<svg width="24" height="24" viewBox="0 0 24 24" fill="none" xmlns="http://www.w3.org/2000/svg">
<g id="arrow-circle-down">
<path id="Vector" d="M0.424531 8.69799C-0.636041 12.9844 0.292668 16.7658 3.1868 19.9385C3.26221 20.0204 3.33894 20.1024 3.41578 20.1813C4.97037 21.78 6.9068 22.767 8.4412 23.4539C9.09966 23.7496 12.4788 24.1088 13.393 23.9688C18.8262 23.1344 22.4018 19.9832 23.6471 14.7113C23.8849 13.6786 24.0033 12.6206 23.9999 11.5593C24.0058 9.05923 22.9821 6.1528 20.8711 3.97613C20.6538 3.79135 20.4372 3.59995 20.2278 3.41442C19.7735 3.01293 19.3041 2.59721 18.8129 2.2426C15.0611 -0.472732 11.1629 -0.487902 7.22696 0.952041C3.66351 2.25492 1.37528 4.86152 0.424531 8.69799ZM7.24222 2.23552C10.6956 0.759865 14.1606 0.499436 17.5401 2.7096C18.1581 3.11415 19.8054 4.48331 20.0648 4.68895L20.0815 4.70158L20.0952 4.7172C21.4137 6.15503 22.9234 8.78375 22.8901 11.4862C22.8791 12.6417 22.727 13.7912 22.4373 14.9077C21.5788 18.1162 19.5265 20.4546 16.1629 22.054C12.7436 23.7377 7.83992 22.0356 6.53521 21.1499C5.09309 20.1361 3.83127 18.8748 2.80488 17.4212C1.19517 15.0775 0.833921 11.7089 1.6984 8.62942C2.10329 7.20748 2.81082 5.89601 3.76969 4.79011C4.72857 3.68421 5.91474 2.81159 7.24222 2.23552Z" fill="#333333"/>
<path id="Vector_2" d="M7.02361 13.6942C7.02158 13.7735 7.04618 13.8513 7.09398 13.917C7.16764 13.9897 7.24929 14.0551 7.3376 14.112C7.40424 14.1559 7.46765 14.204 7.52741 14.2559C7.99081 14.6778 8.45327 15.1007 8.9148 15.5245C9.51391 16.0736 10.1141 16.6216 10.7154 17.1685C10.9664 17.4116 11.2428 17.6308 11.5404 17.8228C11.7034 17.9311 11.8969 17.9926 12.0969 18C12.3334 18 12.5632 17.8953 12.8103 17.6836C13.2268 17.3268 13.6778 16.9533 14.1892 16.5415C14.5615 16.2417 14.9352 15.9434 15.3102 15.6465C15.7165 15.3239 16.1219 15 16.5264 14.6748C16.689 14.5506 16.8312 14.405 16.9486 14.2425C17.0141 14.1452 17.0226 13.9351 16.9414 13.8535C16.8837 13.8088 16.8147 13.7786 16.7409 13.766C16.6671 13.7534 16.591 13.7587 16.5201 13.7815C16.347 13.8694 16.1841 13.9737 16.0339 14.0927C15.9983 14.1189 15.9629 14.1452 15.9272 14.171C15.409 14.5452 14.8911 14.9198 14.3736 15.2947C13.7703 15.7316 13.1668 16.1681 12.563 16.6041C12.5093 16.64 12.4524 16.6716 12.3931 16.6987L12.3509 16.7197C12.3636 16.4789 12.3765 16.2419 12.3895 16.0086C12.4211 15.4316 12.451 14.8867 12.4737 14.3342C12.5219 13.1602 12.5687 11.4453 12.6138 9.78674C12.6529 8.35908 12.6896 7.01058 12.7263 6.02022C12.7316 5.82613 12.7169 5.63201 12.6823 5.44054C12.6324 5.14813 12.471 5 12.2024 5H12.2018C11.9017 5 11.7199 5.16577 11.69 5.46614C11.6818 5.54889 11.6733 5.63181 11.6644 5.7149C11.6285 6.0556 11.5915 6.4078 11.5866 6.75577C11.5673 8.14401 11.5522 10.1092 11.5376 12.0091C11.5268 13.4812 11.5159 14.8715 11.5035 15.937C11.5005 16.0145 11.4921 16.0917 11.4785 16.1682C11.476 16.1852 11.4733 16.2025 11.4707 16.2204L11.3914 16.1524C11.3041 16.0774 11.2314 16.015 11.1615 15.95C10.1546 15.0294 9.00039 14.2598 7.74005 13.6689L7.70139 13.6502C7.59219 13.5917 7.47588 13.5456 7.35493 13.5128C7.28319 13.5021 7.20977 13.5067 7.14022 13.5262C7.11217 13.5321 7.08424 13.5379 7.05685 13.5415L7 13.5486L7.01084 13.6012C7.01677 13.632 7.02103 13.663 7.02361 13.6942Z" fill="#333333"/>
</g>
</svg>
