<svg width="24" height="24" fill="none" xmlns="http://www.w3.org/2000/svg"><g id="arrow-circle-down" fill="#333"><path id="Vector" d="M.425 8.698c-1.061 4.286-.132 8.068 2.762 11.24.075.082.152.164.229.243 1.554 1.599 3.49 2.586 5.025 3.273.659.296 4.038.655 4.952.515 5.433-.835 9.009-3.986 10.254-9.258.238-1.032.356-2.09.353-3.152.006-2.5-1.018-5.406-3.129-7.583a42.201 42.201 0 01-.643-.562c-.455-.401-.924-.817-1.415-1.171C15.06-.473 11.163-.487 7.227.952 3.664 2.255 1.375 4.862.425 8.698zm6.817-6.462C10.696.76 14.161.499 17.54 2.71c.618.404 2.265 1.773 2.525 1.979l.016.013.014.015c1.319 1.438 2.828 4.067 2.795 6.77a14.162 14.162 0 01-.453 3.42c-.858 3.21-2.91 5.548-6.274 7.147-3.42 1.684-8.323-.018-9.628-.904a15.442 15.442 0 01-3.73-3.729C1.195 15.078.834 11.71 1.698 8.63A10.068 10.068 0 013.77 4.79a9.722 9.722 0 013.472-2.554z"/><path id="Vector_2" d="M7.024 13.694a.362.362 0 00.07.223c.074.073.155.138.244.195.066.044.13.092.19.144l1.387 1.268c.599.55 1.2 1.098 1.8 1.645.251.243.528.462.825.654.163.108.357.17.557.177.236 0 .466-.105.713-.316.417-.357.868-.73 1.38-1.143.372-.3.745-.598 1.12-.895.406-.322.812-.646 1.216-.971a2.07 2.07 0 00.423-.433c.065-.097.074-.307-.008-.389a.466.466 0 00-.421-.072 2.89 2.89 0 00-.486.312l-.107.078-1.553 1.124-1.811 1.31c-.054.035-.11.067-.17.094l-.042.02.038-.71c.032-.577.062-1.122.085-1.675.048-1.174.095-2.889.14-4.547.039-1.428.076-2.776.112-3.767a2.825 2.825 0 00-.044-.58c-.05-.292-.211-.44-.48-.44-.3 0-.482.166-.512.466l-.026.249c-.035.34-.072.693-.077 1.04-.02 1.389-.035 3.354-.05 5.254-.01 1.472-.021 2.862-.034 3.928a1.695 1.695 0 01-.024.231l-.008.052-.08-.068c-.087-.075-.16-.137-.23-.202a13.662 13.662 0 00-3.42-2.281l-.04-.019a1.646 1.646 0 00-.346-.137.515.515 0 00-.215.013 1.118 1.118 0 01-.083.015L7 13.55l.01.052a.746.746 0 01.014.093z"/></g></svg>