<svg width="47" height="80" fill="none" xmlns="http://www.w3.org/2000/svg"><g id="Group 71" fill="#D62121"><path id="Vector" d="M13.804 23.979c.006.969.24 1.821 1.074 2.47 1.122.875 2.232.9 2.885-.337.882-1.667 1.662-3.442 2.133-5.262.887-3.428 1.502-6.926 2.272-10.386.195-.874.456-1.757.842-2.561.577-1.196 1.697-1.78 2.756-1.608 1.03.167 2.007 1.123 2.019 2.446.014 1.619-.11 3.283-.49 4.854-.738 3.051-1.703 6.047-2.554 9.07-.199.706-.396 1.43-.45 2.156-.048.65-.008 1.349.187 1.966.287.915.995 1.126 1.705.487.762-.688 1.52-1.45 2.038-2.322 1.345-2.268 2.636-4.578 3.798-6.945.91-1.855 1.886-3.624 3.528-4.93.76-.602 1.575-1.278 2.624-.8 1.011.461 1.072 1.513 1.082 2.43.022 1.998-.525 3.81-1.959 5.315-3.003 3.158-4.302 7.105-5.036 11.28-.155.88-.219 1.81-.112 2.69.164 1.358 1.031 1.78 2.227 1.12 1.872-1.029 3.305-2.497 4.047-4.543.523-1.442 1.353-2.622 2.765-3.285 1.047-.493 2.155-.644 3.13.149.965.786.93 1.857.627 2.947-.462 1.662-1.461 2.951-2.662 4.171-2.834 2.886-5.756 5.712-8.307 8.837-1.648 2.018-2.662 4.55-4.043 6.799-2.193 3.57-4.043 7.298-5.703 11.148-1.094 2.537-2.636 4.881-3.951 7.326-.806 1.5-1.466 3.086-2.364 4.525-1.878 3.012-4.33 5.378-7.956 6.136-4.94 1.034-9.389-2.153-9.89-7.185-.166-1.67.007-3.402.218-5.08.448-3.58 1.082-7.134 1.534-10.71.553-4.383.971-8.782 1.504-13.167.33-2.714.225-5.287-1.172-7.772C.972 33.315-.074 31.104.21 28.566c.066-.595.084-1.26.374-1.745.367-.613.934-1.415 1.515-1.508.583-.09 1.6.429 1.882.966.855 1.638 1.476 3.405 2.127 5.144.22.587.177 1.273.408 1.854.183.46.545 1.081.927 1.162.372.078 1.076-.334 1.273-.716.677-1.319 1.445-2.67 1.727-4.097.565-2.863-.087-5.726-.45-8.58-.364-2.85-.718-5.704-.913-8.57-.1-1.483.56-2.177 1.821-2.514 1.255-.336 2.258.084 2.624 1.339.342 1.176.51 2.418.599 3.643.224 3.177-.345 5.643-.32 9.035z"/><path id="Vector_2" d="M27.12 0v4.94l-2.27-.356C24.61 3.339 25.692.91 27.12 0z"/><path id="Vector_3" d="M11.796 3.528l.275 4.502-1.99.136c.107-1.64.27-3.309 1.715-4.638z"/><path id="Vector_4" d="M39.986 7.43l-.263 4.224c-.748-.229-1.289-.353-1.787-.572-.147-.065-.306-.483-.233-.598.659-1.047 1.369-2.064 2.064-3.09l.221.036h-.002z"/><path id="Vector_5" d="M2.423 20.808c.312 1.104.623 2.206.907 3.203-.798.125-1.514.235-2.372.368.335-1.138.701-2.379 1.07-3.617l.397.046h-.002z"/><path id="Vector_6" d="M45.827 26.823c-.587-.522-1.024-.91-1.39-1.238l2.186-2.284.177.072c-.316 1.116-.63 2.232-.973 3.452v-.002z"/></g></svg>