<svg width="47" height="80" fill="none" xmlns="http://www.w3.org/2000/svg"><g id="Group 70" fill="#D62121"><path id="Vector" d="M33.324 11.989c.312-2.03 1.747-2.637 3.48-1.796.787.38 1.2 1.052 1.158 1.856-.11 2.07-.26 4.142-.516 6.196-.353 2.828-.885 5.632-1.212 8.462-.266 2.31.04 4.581 1.373 6.563.379.564 1.058 1.273 1.62 1.29.897.026.99-1.018 1.204-1.746.443-1.506.818-3.033 1.33-4.517.234-.681.647-1.336 1.11-1.895 1.303-1.566 2.823-1.28 3.46.664a7.174 7.174 0 01-.069 4.748c-.48 1.319-.982 2.663-1.711 3.85-1.486 2.417-1.56 5-1.3 7.682.592 6.113 1.128 12.23 1.775 18.338.242 2.293.784 4.553 1.09 6.84.412 3.064.033 5.989-2.06 8.438-2.377 2.784-6.14 3.561-9.63 2.054-2.999-1.296-5.156-3.534-6.605-6.376-2.463-4.831-4.712-9.773-7.161-14.613-1.937-3.827-4.124-7.528-6.045-11.364-2.312-4.617-5.92-8.159-9.383-11.843a33.264 33.264 0 01-3.005-3.721c-.379-.542-.528-1.316-.582-2-.164-2.005 1.314-3.138 3.253-2.543 1.753.538 2.783 1.814 3.35 3.485.691 2.037 2.037 3.529 3.815 4.644 1.387.868 2.431.383 2.47-1.248a18.372 18.372 0 00-.432-4.378c-.804-3.602-2.143-6.946-4.729-9.735-1.51-1.629-1.945-3.727-1.523-5.928.33-1.728 1.477-2.197 2.954-1.22 1.857 1.228 2.925 3.054 3.9 5.01 1.45 2.902 3.052 5.727 4.645 8.555.302.537.818.986 1.314 1.373.72.562 1.413.407 1.646-.466.218-.812.337-1.755.148-2.557-.793-3.358-1.764-6.672-2.572-10.026a26.069 26.069 0 01-.692-4.561c-.108-1.885.827-3.223 2.139-3.43 1.45-.23 2.775.755 3.219 2.684.661 2.874 1.098 5.799 1.737 8.677.508 2.286 1.163 4.54 1.786 6.799.123.445.353.874.605 1.267.526.82 1.054 1.726 2.257 1.47 1.109-.236 2.056-1.345 2.098-2.536.16-4.421-.446-7.686.29-12.446z"/><path id="Vector_2" d="M22.34 4.372c-.78.087-1.531.17-2.293.252V0c1.195.048 2.56 2.876 2.294 4.372z"/><path id="Vector_3" d="M35.43 3.195c1.508 1.614 1.45 3.382 1.711 5.015-.711-.085-1.35-.164-2.05-.246l.34-4.77z"/><path id="Vector_4" d="M9.528 10.433L7.49 11.2c-.462-1.385-.353-2.816-.176-4.338l2.214 3.57z"/><path id="Vector_5" d="M43.466 24.562l1.07-3.582c.13-.006.259-.012.388-.016l1.068 3.768-.22.201c-.582-.9-1.318-.897-2.308-.369l.002-.002z"/><path id="Vector_6" d="M.18 22.78l2.235 2.187-1.458 1.316L0 22.843l.177-.06.002-.003z"/></g></svg>