<svg width="44" height="52" fill="none" xmlns="http://www.w3.org/2000/svg"><path d="M29.924 16.98c-.107-1.712-.239-3.192-.278-4.676a54.776 54.776 0 01.069-4.178c.024-.48.201-.976.404-1.422.569-1.245 2.096-2.103 3.16-1.827 1.087.282 2.014 1.857 1.797 3.251-.59 3.8-1.236 7.592-1.854 11.387-.304 1.86-.12 3.654.801 5.327.207.374.472.736.776 1.038.995.992 2.224.914 2.85-.334.548-1.088.82-2.32 1.186-3.499.274-.885.434-1.81.768-2.67.362-.926 1.19-1.27 2.215-1.077.95.177 1.44.684 1.428 1.764-.01.857-.164 1.726-.364 2.565-.2.84-.505 1.66-.814 2.47-.7 1.827-1.152 3.632-1.149 5.666.006 2.421-.626 4.843-.964 7.268a130.643 130.643 0 00-.447 3.695c-.503 4.587-2.99 7.73-7.228 9.32-4.237 1.592-8.108.552-11.335-2.522-1.068-1.018-1.791-2.42-2.574-3.707-.53-.868-.882-1.842-1.322-2.764-1.093-2.29-2.908-3.62-5.375-4.18a44.356 44.356 0 01-4.642-1.314c-1.28-.442-2.136-1.361-2.278-2.795-.129-1.307.472-2.092 1.737-1.881 1.354.226 2.666.744 3.973 1.2 1.283.448 2.532.989 3.801 1.47.636.24 1.274.495 1.934.64.376.083.962.098 1.154-.12.205-.233.149-.804.035-1.177-.1-.328-.423-.596-.671-.868-.723-.8-1.542-1.527-2.174-2.394-1.549-2.13-2.983-4.342-4.53-6.475-.634-.872-1.404-1.657-2.174-2.418-1.29-1.271-1.776-2.858-2.013-4.588-.235-1.724 1.514-2.561 2.781-1.885.66.353 1.285.895 1.736 1.496 1.823 2.43 3.538 4.942 5.364 7.373 1.357 1.808 2.803 3.553 4.252 5.29.326.392.798.692 1.258.93.627.325 1.02.066 1.022-.648 0-.395-.069-.813-.207-1.182-1.236-3.326-2.01-6.763-2.755-10.227-.431-2-1.482-3.861-2.176-5.813-.38-1.074-.656-2.196-.869-3.319-.207-1.086.45-2.26 1.335-2.64.858-.369 1.9-.074 2.558.981.596.955 1.11 2.02 1.393 3.104 1.264 4.85 2.992 9.521 5.128 14.042.243.51.794.876 1.203 1.309.345-.513.902-.99.999-1.546.438-2.531.746-5.086 1.074-7.438l.002-.002zM18.182 5.034l-2.112.809c-.74-.712-.917-2.907-.106-4.001l2.218 3.192zM34.17 3.999L32.041 3.9l1.23-3.9c.157.017.316.032.476.048l.423 3.95zM.953 30.24c1.057.282 2.114.562 3.327.884-.76.651-1.329 1.253-.816 2.228l-.243.09-2.52-2.785.252-.416zm5.238-16.68c-.453.388-.89.765-1.411 1.21-.733-.98-1.465-1.981-1.195-3.597l2.604 2.388h.002z" fill="#D62121"/><path d="M43.484 17.93l-1.79-.754c.608-.817 1.231-1.65 1.854-2.485l.436.166-.5 3.074z" fill="#D62121"/></svg>