<svg width="44" height="52" fill="none" xmlns="http://www.w3.org/2000/svg"><g id="Group 69" fill="#D62121"><path id="Vector" d="M14.941 10.335c0 2.91-.09 5.824.034 8.73.078 1.848.421 3.693.76 5.518.096.51.593.947.906 1.416.403-.393.949-.715 1.184-1.192 2.2-4.458 3.945-9.092 5.293-13.882a12.07 12.07 0 011.469-3.261c.745-1.147 1.735-1.393 2.63-.975.916.429 1.535 1.731 1.216 2.865-.425 1.515-.807 3.075-1.493 4.474-1.064 2.174-1.67 4.44-2.182 6.786-.535 2.444-1.39 4.814-2.099 7.22-.156.534-.36 1.067-.419 1.613-.091.84.466 1.243 1.133.753.89-.654 1.756-1.405 2.429-2.272 2.909-3.746 5.721-7.569 8.629-11.315a4.502 4.502 0 011.897-1.402c1.385-.512 2.606.494 2.451 1.952-.19 1.796-.824 3.392-2.143 4.726-1.063 1.074-2.013 2.269-2.923 3.478-1.526 2.03-2.961 4.128-4.475 6.17-.361.487-.883.858-1.33 1.283-.224.213-.563.39-.649.649-.162.49-.386 1.122-.205 1.523.278.609.9.25 1.398.078.67-.231 1.364-.405 2.031-.647 1.134-.408 2.243-.883 3.381-1.27 1.342-.452 2.68-.978 4.065-1.212 1.275-.217 1.875.562 1.747 1.867-.144 1.437-1.014 2.356-2.284 2.79-1.606.55-3.263.982-4.922 1.353-2.305.515-4.001 1.767-5.07 3.862-.633 1.243-1.216 2.512-1.852 3.754-2.178 4.255-7.052 6.653-11.773 5.813-4.563-.813-8.328-4.809-8.915-9.455-.45-3.568-1.181-7.127-1.265-10.702-.062-2.643-.569-5.054-1.473-7.474-.387-1.036-.622-2.147-.79-3.245-.216-1.403.328-2.303 1.338-2.49 1.355-.251 2.144.215 2.56 1.657.316 1.1.475 2.242.765 3.35.189.713.403 1.446.757 2.085.831 1.508 2.218 1.586 3.282.22 1.055-1.351 1.545-2.941 1.432-4.613-.127-1.85-.496-3.683-.763-5.524-.348-2.393-.712-4.784-1.04-7.181a3.567 3.567 0 01.062-1.294c.29-1.185 1.183-2.057 2.087-2.12 1.03-.071 2.557.965 2.885 2.148.302 1.094.396 2.244.582 3.37l-.338.026v-.003z"/><path id="Vector_2" d="M28.635 6.027l-2.036-.889 2.175-3.112c.828.963.656 3.206-.14 4.001z"/><path id="Vector_3" d="M11.559.002c.378 1.249.758 2.497 1.167 3.841-.716.043-1.34.078-2.146.127.159-1.336.313-2.647.47-3.957.17-.004.34-.007.509-.013v.002z"/><path id="Vector_4" d="M40.09 31.427l3.416-.887.162.292c-.597 1.152-1.573 1.983-2.733 3.053.47-1.176.103-1.845-.846-2.458z"/><path id="Vector_5" d="M41.087 11.434c.26 1.61-.49 2.606-1.22 3.63-.486-.426-.935-.821-1.4-1.227l2.62-2.403z"/><path id="Vector_6" d="M2.931 17.014l-1.778.81-.512-3.082c.14-.061.278-.125.417-.186l1.873 2.458z"/></g></svg>