<svg width="80" height="80" fill="none" xmlns="http://www.w3.org/2000/svg"><g clip-path="url(#clip0_303_3737)"><mask id="mask0_303_3737" style="mask-type:alpha" maskUnits="userSpaceOnUse" x="0" y="0" width="80" height="80"><path d="M40 80c22.091 0 40-17.909 40-40S62.091 0 40 0 0 17.909 0 40s17.909 40 40 40z" fill="#E1E0E7"/></mask><g mask="url(#mask0_303_3737)"><path d="M95.716-16.48v99.536H-15.716V-16.48c.182 0 .363.003.545.003h72.652l38.235-.003zM27.883 25.027l.002-.194c-.57-.985-1.143-1.967-1.71-2.954-.06-.106-.084-.233-.125-.351.562-.185.098-.49.041-.681-.867-2.943-.794-5.844.415-8.672.725-1.697 1.787-2.127 3.509-1.503 1.533.554 2.798 1.521 3.912 2.688.37.387.666.846.996 1.272l.014-.01c-.403-.207-.796-.437-1.212-.615-1.03-.44-2.23-.183-2.905.598 2.055.01 2.163.033 2.61.537-.525.333-1.054.67-1.584 1.005l.05.156c1.15-.577 1.993-.03 2.837.713-.396.118-.766.193-1.105.34-.339.147-.647.365-1.076.615.511-.033.864-.056 1.26-.08l-1.838 1.116.055.136c.82-.198 1.55-.804 2.573-.652l-.931.769-.15.114.03.064.188-.1.286-.043c.036.033.073.065.109.1-.079.22-.186.435-.228.66-.063.332-.07.674-.116 1.009-.034.241-.096.478-.156.77l1.641-1.257.073.106-.83 1.027.092.069.722-.407L34.3 23.2l-.01.136a2.58 2.58 0 00.102-.068c.975-1.107 2.057-2.078 3.4-2.732.11-.054.204-.28.197-.42-.071-1.14-.501-2.171-.994-3.192.792.698 1.217 1.634 1.642 2.578.02-.876.058-1.745-.398-2.533h-.004l.611.526.107-.027-.543-2.177c.229.18.421.332.615.482l.116.121c.03-.02.059-.041.087-.062l-.088.062-.016-.165-.104.053-.5-1.033-.83-1.093c.78.263 1.567.515 2.342.793.474.17.934.381 1.4.574l-.016.072.02-.069-.944-.85a40.332 40.332 0 00-.264-.352c.329.022.684-.03.98.078.767.286 1.51.642 2.263.97l.087-.077-.525-.935h.37l2.096 1.06 1.06.808.058-.07-.93-1.196 1.245.398-.011-.01 2.28 1.47.066-.038-.729-1.144.11-.136c1.29.5 2.307 1.432 3.38 2.28l.099.083a69.156 69.156 0 01-.007-.171l-.577-1.69c.052-.035.103-.072.156-.107l1.618 2.145c.702-.74 1.542-1.36 2.466-1.878l-.947 1.966-.017.141.092-.075 1.68-1.287.068.087-1.141 2.104.137.107c.105-.1.214-.197.313-.303.73-.783 1.427-1.6 2.195-2.345 1.124-1.09 2.35-2.064 3.8-2.697 1.431-.624 2.23-.11 2.32 1.463.003.054.005.109.005.163.034 2.617-.762 4.962-2.34 7.04-.398.523-.846 1.006-1.27 1.508l.064.069.857-.562-.957 2.385 1.374-.384c-.274.582-.54 1.003-.67 1.464-.128.455-.118.95-.168 1.428l.168.032.757-.601c-.03 1.5.187 2.864-.553 4.183-.144-.156-.226-.227-.287-.313-.846-1.197-1.685-2.399-2.536-3.593-.084-.118-.229-.192-.346-.287a2.07 2.07 0 00.12.707c.365 1.154.784 2.293 1.084 3.463.503 1.957.712 4.002 1.81 5.77l.084-.017c-.012 0-.025-.004-.036-.002-.017.003-.033.011-.05.016.002-.373.03-.748 0-1.12-.082-1.06-.19-2.12-.298-3.309l.721.613.46-1.02c.607 1.81 1.209 3.45 2.655 4.633h-1.227l1.63 2.693-.115.111c-.672-.072-.883.165-.702.802.04.137.128.26.186.391.375.86.724 1.73 1.13 2.574.216.446.463.914.813 1.253.937.907 1.936 1.751 2.912 2.617.554.49.824 1.087.716 1.834l-.169 1.191c.644-.921.766-1.875.2-2.87l.71-.297c-.116.326-.225.553-.272.792-.026.133.049.287.08.431.116-.05.271-.07.342-.158.233-.287.382-.783.658-.861.562-.158.906-.737 1.537-.716.083.003.207-.171.254-.287.22-.546-.443-.904-.319-1.452.04-.179-.063-.39-.1-.587l.12-.03-.373-.589c.643-.118.75-.37.64-1.338l.687.244-.393-1.184c.786.552 1.483 1.099 2.42.59-1.053-.242-2.106-.456-2.363-1.745-.03-.146-.017-.301-.023-.453.175.032.475.019.503.1.199.577.708.493 1.118.525.21.017.438-.202.659-.315-.126-.17-.224-.372-.382-.499-.294-.236-.622-.427-1.032-.7l1.11-.308-.607-.872 1.294.179.04-.126-.43-.375c-.271-.251-.544-.501-.816-.751 1.035.308 1.122.265 1.576-.76.067-.153.164-.29.247-.434l.14.03c.021.202.015.414.073.607.05.17.17.318.26.475.383-.324.385.275.638.264-.113.213-.222.427-.338.638-.065.12-.14.233-.21.349.14-.025.278-.057.418-.072.113-.012.229-.003.344-.003l.074.22.127-.313.113.088-.96 1.767.132.108c.36-.138.722-.274 1.139-.433-.027.76-.44 1.237-.989 1.605-.42.282-.524.603-.328.968.753.319 1.444.413 2.117-.185.003-.04.022-.184.03-.328.141-2.983-.127-5.94-.69-8.863-.316-1.637-.702-3.273-1.22-4.857-2.925-8.933-8.254-16.074-16.109-21.274C56.446 2.856 50.364.819 43.8.242a38.787 38.787 0 00-12.136.833C20.105 3.734 11.429 10.278 5.555 20.548c-2.677 4.68-4.264 9.735-4.86 15.09-.16 1.42-.175 2.855-.237 4.285-.004.114.137.266.25.342.077.053.222.004.336 0a41.266 41.266 0 00-.08-.392l-.108-.497c1.047.826 1.435.891 2.037.366-.444-.13-.873-.23-1.281-.388-.143-.056-.266-.233-.337-.384a2.309 2.309 0 01-.192-.672c-.025-.197.022-.402.036-.604.274.11.377.266.52.365a2.4 2.4 0 00.598.3c.442.147.392-.3.526-.501.027-.04-.176-.255-.296-.363-.219-.194-.454-.369-.74-.597l.622-.238-.405-.771.642-.174c-.16-.343-.3-.64-.437-.928 1.421.304 1.072-1.016 1.54-1.636.085.568.15 1.1.252 1.623.023.12.171.216.263.325.027.022.054.046.079.07l-.268.788 1.21-.077-.887 1.711 1.557-.316c-.275.306-.473.512-.654.73-.26.316-.515.637-.757.967-.099.133-.242.319-.209.439.033.122.248.211.397.282.593.28 1.155-.08 1.625-.112l.522.917c-.196.44-.179.844.052 1.214-.08.376-.283.759-.172.908.312.419.158.6-.184.839-.137.093-.19.307-.298.498l.63.12-.463.397.314.67c.178 0 .453.043.708-.008.854-.173.701.803 1.203 1.036.082.038.074.272.11.414l-.12.128.584.34c-.277.436-.457-.013-.673-.081-.222-.069-.434-.172-.65-.26l-.086-.15-.062.068.157.072c.309.238.105.394-.104.506-.264.142-.55.244-.836.366l.16.204-.523.258.868-.137.004.024c.027.044.008.013-.011-.019.105-.1.347-.016.726.252-.112.233-.319.467-.312.695.01.402-.447.996-.836.923-.38-.072-.607.06-.736.471.117.047.226.132.329.124.552-.04 1.103-.102 1.654-.163.174-.019.346-.078.52-.08.597-.01 1.194.008 1.788-.015.071-.003.135-.196.201-.3-.548.1-1.026.286-1.414-.167-.12-.139-.126-.372-.185-.563.174.127.243.327.364.366.12.04.35-.037.433-.142.232-.292.75-.511.273-1.047-.12-.136.044-.524.076-.796l2.298 1.306.972.873-.308.292c.456.2.855.378 1.367.604l-6.026.868.164.322c-.846.654-1.995.758-2.706 1.58l.856.764-.131.214-2.218-.862c.006-.027-.044.106-.022.12.552.345 1.074.829 1.677.974.725.175 1.407.288 1.873.934.189.261.409.499.613.749l2.011 2.462-2.725.128-.01.132.412.299c-.759.484-1.47.94-2.182 1.395l.09.163c1.092-.82 2.33-1.213 3.728-1.256l-.416-.46c.688.065 1.237.117 1.865.178-1.367-2.262-3.252-4.032-4.891-6.034 2.782-1.388 5.649-2.115 8.796-2.095-.818-1.034-1.642-1.886-2.657-2.542-.509-.326-1.01-.664-1.528-.975-.35-.21-.723-.38-1.076-.583-.029-.016.008-.148.015-.226l2.66.2.041-.154c-1.126-.34-2.251-.679-3.417-1.029 2.43-.856 4.893-.859 7.538-.342-.206-.157-.27-.22-.345-.26-1.033-.563-2.069-1.122-3.104-1.683l-.209-.094.013.01c-.619-.197-1.237-.394-1.993-.637l.933-.262 7.415-1.28-1.575-.789c-.37-.21-.724-.46-1.115-.62-1.22-.5-2.452-.966-3.82-1.5l2.612-.626 2.543-.264-.936-.576.019-.096h2.165l-1.11-.802-3.586-1.97.501-.146c1.791-.222 3.578-.206 5.359.146l.053-.148-1.67-1.052c-.658-.316-1.314-.634-1.97-.95l.021-.102 1.327-.166 2.035-.013.094.005c1.243.182 2.486.362 3.73.543l.1-.085-1.204-1.07c-.821-.993-1.864-1.719-2.919-2.43 1.344-.125 2.61.225 3.855.71l.064-.144-1.557-1.208-.104-.09.011.01-.52-.4 1.083-.048.372.021c-.012 0-.025 0-.037.002.244.013.488.016.73.041.337.035.375-.093.212-.351l-1.52-2.44.008.008c.103-.057.206-.115.31-.171.395.14.787.289 1.186.419.354.115.714.211 1.07.317.356.337.72.666 1.066 1.015.508.514.8.54 1.425.052l-1.151-2.164c.027-.022.053-.046.08-.07.304.276.607.552.912.827l.07.129.133.014a4.528 4.528 0 00-.05-.078 5.613 5.613 0 00-.098.069l-.002.01zM6.22 45.843l-.612.386.89.347c-.082-.21-.182-.476-.283-.74H6.3l-.019-.054-.061.061h-.001zm59.598 9.71l.026.028-.031-.022-.313-.913.268-.294c.526.343 1.203.313 1.667-.096-.17-.037-.32-.069-.466-.102 1.08-.61 1.968-1.414 2.562-2.517l.108-.163-.098-.084-.084.173c-.549.501-1.063 1.05-1.659 1.487-.453.332-.996.672-1.528.726-.498.05-.745.286-1.042.573-.282.272-.551.584-.886.77-2.29 1.263-4.678 1.815-7.247.914-.213-.075-.448-.089-.673-.13-.297-.185-.593-.369-.89-.552.396 1.004 1.158 1.616 2.052 2.03 1.079.502 2.2.915 3.31 1.35 1.524.596 3.055 1.176 4.689 1.804-2.161.97-4.109 2.005-5.533 3.834 2.76-1.2 5.366-.373 7.97.526a.425.425 0 00-.172-.156c-2.09-1.05-4.247-1.697-6.611-1.093l-.032-.035c.434-.35.84-.747 1.31-1.04 1.13-.707 2.29-1.364 3.455-2.051l-3.02-1.5.03-.247 1.41-.18-.078.38c.203 0 .39-.014.573.004.164.017.324.07.487.105-.03-.178-.035-.365-.098-.531-.106-.276-.248-.54-.376-.807a1.87 1.87 0 01.11-.054l-.428-.138c-.034-.36-.013-.7-.106-1.005-.149-.485-.352-.528-.74-.214-.628.509-1.247 1.027-1.869 1.54l.069.139 1.754-.588.136.132-1.127 1.421c-1.393-.531-2.75-1.035-4.09-1.58-.166-.068-.244-.351-.363-.535 2.339.205 4.5-.396 6.56-1.453l1.016.146-.002-.001zm7.087-6.541c-.407-.06-.826-.163-1.055.324-.465-.329-1.1.309-1.183 1.088l.678.21c.1-.283.338-.246.601-.072.43.284.868.455 1.41.35.215-.042.542.206.525-.23-.007-.194-.203-.38-.336-.606-.088.273-.161.526-.171.524-.323-.081-.695-.116-.942-.31-.192-.15-.228-.502-.275-.621.326-.294.534-.48.741-.665l.19-.09c-.01-.013-.02-.026-.032-.038l-.15.137-.001-.001zm-35.11-14.567c1.431.074 2.862.2 4.293.21 1.339.01 2.62-.336 3.826-.934.942-.466 1.869-.969 2.835-1.377 1.093-.463 2.217-.53 3.311.06.038.022.1-.001.17-.005.13-.914-.116-1.732-.57-2.501-.818-1.392-1.96-2.469-3.295-3.35-.279-.185-.6-.304-.902-.452l-.008-.106-.05.01.072.087c.608.701 1.322 1.326 1.726 2.251l-1.27-.543 1.467 1.928-.133.108c-1.57-1.037-3.178-1.995-5.012-2.498l-.315-.028c-.002.016-.004.032-.008.05l.232.086 1.643 1.415a4.61 4.61 0 00-.074.081l-2.352-.785 1.855 1.618c-.659-.168-1.213-.464-1.796-.688-.577-.223-1.182-.376-1.773-.558 0 .024-.003.047-.004.07.713.507 1.426 1.015 2.255 1.603-1.347-.362-2.526-.68-3.707-.996l-.308-.04-.007.079.261.02 2.242 1.608c-.033.056-.066.11-.097.166-1.384-.632-2.777-1.229-4.363-1.236l2.998 1.517-.052.14c-.168-.028-.337-.054-.505-.081-1.165-.19-2.322-.191-3.436.24-.927.36-1.843.75-2.751 1.155-1.363.61-2.715 1.244-4.177 1.916 1.588.204 3.08.137 4.5.597-3.511.309-6.868 1.123-10.005 2.756 1.528-.196 3.04-.458 4.565-.566 1.551-.11 3.096.087 4.556.424-1.885.174-3.818.314-5.739.544-1.74.209-4.564 1.21-5.568 1.911 2.083-.279 4.049-.33 6.001.06-2.813.389-5.483 1.188-7.971 2.572 1.867-.348 3.736-.594 5.645-.421-2.3.666-4.518 1.48-6.408 2.824 1.486-.343 3.025-.721 4.575-1.044a20.58 20.58 0 012.412-.332c.584-.051 1.177-.01 1.766-.01l.015-.266-2.41-.335-.016-.12 4.975-.55.01-.074-4.637-.789-.002-.086 7.256-.828.013-.11-4.914-1.124.005-.19 10.189-.659.02-.07-5.613-2.055.014-.175c1.082 0 2.165-.023 3.248.006 1.064.028 2.126.108 3.189.166l.03-.102-2.586-1.16c.934.065 1.858.22 2.788.345.364.05.736.032 1.102.045l-.116.075.117.044-.008-.12c-.499-.235-.994-.48-1.499-.7-.564-.247-1.138-.472-1.708-.707l-.01-.016h-.002zm-9.314 9.849c0 .049.002.099.004.148 7.824-.304 15.413.919 22.932 3.491-.26.191-.45.449-.648.457-.652.024-1.305-.05-1.96-.075-1.804-.066-3.61-.125-5.415-.187l-.042.135c1.64 1.039 3.436 1.795 5.283 2.695-5.841.244-11.389 1.239-16.7 3.39.27-.014.526-.085.783-.152 2.19-.566 4.355-1.262 6.574-1.666 2.71-.493 5.459-.785 8.202-1.071.95-.1 1.914-.298 2.905.041 3.34 1.14 6.746 2.006 10.307 2.03 1.061.008 2.123-.061 3.242-.097-.346-.595-.53-1.178-.922-1.532-.892-.81-.821-1.782-.599-2.763.11-.482.378-.996.728-1.34.717-.703.84-1.008.257-1.843-.643-.924-1.306-1.84-2.034-2.695-1.256-1.474-2.178-1.634-3.928-.797-.049.023-.096.052-.144.077-2.14 1.097-3.892 2.658-5.333 4.565-.279.368-.494.39-.888.249-3.372-1.208-6.851-1.997-10.394-2.486-1.887-.261-3.79-.47-5.692-.553-2.168-.093-4.345-.021-6.518-.021zM56.71 35.96c.013-.102.028-.203.04-.305.013-.108.023-.217.039-.324.298-2.027.015-3.938-1.133-5.676-1.739-2.633-4.06-4.675-6.593-6.5-.026-.02-.094.018-.177.036 2.023 2.327 3.49 4.96 4.684 7.758.07.165.154.337.275.464 1.268 1.312 2.142 2.86 2.865 4.547zM25.577 46.845c.142.026.286.082.426.075 1.518-.084 3.034-.24 4.553-.26 4.183-.053 8.354.128 12.488.854 1.148.202 2.32.274 3.483.394.086.01.182-.08.377-.175-7.13-1.66-14.2-1.764-21.326-.888zm21.346-11.051l-.178.031c0 .27-.072.563.01.804.608 1.756 3.46 2.547 4.945 1.33-2.162.475-3.83-.06-4.778-2.166zM63.466 67.01l2.617-1.453-.093-.179-2.982 1.43c1.173 1.199 2.477 1.934 3.82 2.609.09.044.253-.06.458-.114l-3.819-2.293zm-52.194-4.62c-.91-.596-3.164-.834-4.26-.431.567.06 1.139.03 1.705.069.54.037 1.075.145 1.613.221l-.03.139-2.328 1.315-.016.155c.18.022.4.122.534.053.916-.474 1.813-.985 2.782-1.52zM1.099 44.37l.906.124a1.56 1.56 0 00-.415-.624c-.224-.22-.483-.41-.679-.65-.115-.142-.137-.36-.2-.544l-.277.062c.12.871.238 1.742.364 2.652.231-.05.396-.088.457-.101l-.155-.92zm63.747 5.236c-.06.656.038 1.107.543 1.36.5.248 1.133.078 1.658-.466-.943.251-1.72.19-2.201-.892v-.002zM1.392 46.44l.8-.103.013-.218-1.249-.471-.183.166.434.887.185-.26zm69.212 6.454l1.715-.844c-.7-.378-1.64.09-1.715.844zM5.776 55.847c-.15.015-.414.081-.67.056-.267-.026-.524-.14-.818-.226.065.222.357.48.875.776l.612-.605zm73.806-9.856c-.753-.078-.94.112-.906.734l.746.205.16-.94zM50.434 33.886c-.202.291-.43.483-.396.605.048.172.267.354.45.408.084.024.364-.252.358-.384-.006-.173-.208-.338-.412-.628v-.001zM4.403 52.318l1.381.91c-.324-.927-.738-1.189-1.381-.91zm62.713 3.224l.096-.145c-.368-.25-.736-.503-1.103-.754-.04.063-.082.124-.123.186l1.131.713h-.001zm9.054.666l-1.034.255c.353.447.635.384 1.034-.255zM4.665 46.195l.625.055.058-.101-.683-.336v.382zm.249 5.663l.043-.108c-.2-.214-.401-.428-.71-.755.02.27-.025.471.048.531.178.145.409.226.619.333v-.001zm67.719 2.168l.014-.117h-.298c.032-.191.065-.381.12-.716l-.487.744.651.089zm5.602-13.251c-.01-.011-.02-.03-.031-.03s-.024.016-.036.024c.01.011.02.03.031.03s.024-.016.036-.024zm-58.88 4.773c-.007.012-.02.027-.018.033.007.014.023.026.035.038l.02-.07h-.037v-.002z" fill="#333"/><path d="M76.18 37.659l.429.375-.04.126-1.294-.18c.23.332.39.56.608.873l-1.11.309c.408.273.738.464 1.032.7.158.127.256.33.382.498-.22.113-.449.332-.66.316-.409-.033-.918.052-1.117-.525-.029-.082-.329-.07-.503-.1.006.15-.007.306.023.452.257 1.29 1.31 1.503 2.362 1.745-.936.509-1.633-.038-2.42-.59.142.423.25.754.394 1.184-.297-.106-.487-.172-.688-.243.11.968.002 1.219-.64 1.338l.374.59-.12.029c.037.196.14.408.1.587-.124.548.54.906.319 1.451-.047.116-.17.29-.254.287-.631-.02-.976.558-1.537.716-.276.078-.426.574-.658.861-.071.089-.226.108-.343.159-.03-.144-.106-.298-.08-.431.047-.24.156-.467.273-.793l-.71.296c-.255-.277-.493-.57-.764-.826-.935-.88-1.884-1.746-2.825-2.62a.48.48 0 01-.114-.184c-.4-1.135-.796-2.272-1.191-3.402.619-.077 1.326-.167 2.219-.28l-1.248-1.85 1.741.349c-.18-.296-.264-.5-.404-.652-.492-.532-.975-1.078-1.511-1.565-1.724-1.565-2.531-3.502-2.45-5.82.015-.438.058-.876.089-1.313l-.085-.038c-.321.546-.642 1.093-1.026 1.75-.252-2.05.497-3.686 1.563-5.331l-1.389.333-.1-.095 1.836-1.797c-.82.065-1.57.123-2.34.185.023-.089.025-.147.051-.19.2-.324.386-.658.608-.967 1.306-1.815 2.156-3.817 2.465-6.036.194-1.396.235-2.793-.183-4.158-.368-1.202-1.253-1.715-2.48-1.46a9.208 9.208 0 00-1.46.43c-2.155.84-4.095 2.08-6.023 3.33-.707.46-1.357 1.007-2.035 1.515-.372-.492-.694-1.002-1.1-1.435-.465-.492-1.003-.914-1.508-1.366l-.011-.02.003.014.862 2.02-.14.113c-1.119-.728-2.188-1.555-3.66-1.938l.6.885-.081.111-1.293-.531.011.008-1.635-.788.202.848-2.094-1.06-.938-.474-.042.106.517.543-.117.156c-.187-.01-.391.027-.558-.038-.846-.323-1.683-.672-2.524-1.012l-.097.187.582.492.263.353c-.251-.007-.525.051-.748-.03-.848-.31-1.678-.665-2.515-1.004l-.091.175.554.34.83 1.093c-.323-.126-.697-.185-.96-.388-1.008-.777-1.963-1.621-2.967-2.403-1.675-1.302-3.465-2.409-5.552-2.931-1.945-.488-3.043.036-3.887 1.842-.85 1.822-1.213 3.763-1.35 5.75-.207 3.02.366 5.894 1.694 8.616-.357-.105-.717-.2-1.07-.318-.399-.13-.792-.278-1.187-.419l-.572-.275c-.055.07-.11.139-.168.208l.43.24-.007-.009 1.52 2.44c.163.26.123.388-.213.352-.242-.025-.485-.028-.729-.041l.037-.002-.37-.021c-.574-.037-1.148-.071-1.722-.107l-.014.132 1.17.423-.01-.01.104.09c.52.402 1.038.805 1.557 1.208l-.064.144c-1.244-.485-2.512-.835-3.855-.712a36.677 36.677 0 01-.285-.039c.801.632 1.59 1.26 2.386 1.88.265.207.544.395.818.59l1.204 1.07-.1.085a3985.97 3985.97 0 00-3.728-.542l-.094-.005-2.035.013h-2.11l-.016.197 2.747 1.021 1.671 1.052-.053.148c-1.782-.353-3.57-.37-5.36-.147l-1.226.062c.575.36 1.166.62 1.753.886.854.386 1.706.778 2.558 1.166l1.11.803h-2.165l-.019.096.936.576c-.953.1-1.749.182-2.543.264-1.166-.136-2.175.407-3.399.706.689.225 1.224.384 1.747.574 1.329.481 2.65.977 3.975 1.466l1.575.789-7.414 1.28-1.638.26.027.124 1.166.29-.19.234.012-.003c-.129.474-1.014.43-.765 1.185l-1.315.45.02.076 4.78-.632c-.55-.542-.958-.626-1.47-.31-.026-.27-.054-.53-.08-.792l.512.016-.013-.01.21.093c1.034.561 2.07 1.12 3.103 1.683.076.042.139.104.345.261-2.645-.517-5.109-.513-7.538.342l3.417 1.029-.041.154-2.66-.2-1.433-.205c-.034-.143-.025-.377-.108-.415-.502-.232-.35-1.21-1.203-1.036-.255.053-.53.008-.708.008l-.315-.67.463-.397-.63-.12c.109-.19.162-.403.298-.498.343-.238.497-.42.185-.838-.111-.15.092-.533.172-.908-.231-.37-.249-.776-.052-1.215l-.522-.917c-.47.034-1.032.393-1.625.113-.15-.071-.364-.16-.397-.283-.033-.12.11-.306.208-.439.243-.33.498-.651.758-.967.18-.22.378-.424.654-.73l-1.557.316.887-1.71c-.496.03-.867.055-1.21.077l.267-.788.18-.092-.08-.129-.178.149c-.09-.107-.24-.203-.263-.325-.102-.523-.168-1.055-.252-1.622-.468.62-.12 1.939-1.54 1.636l.436.927-.641.174c.143.27.263.502.405.772l-.621.237c.284.229.521.403.738.597.122.108.323.324.297.363-.134.2-.084.647-.526.502a2.4 2.4 0 01-.598-.3c-.143-.1-.247-.256-.52-.366-.016.202-.062.408-.037.605.029.229.094.461.193.67.07.152.194.33.337.385.407.157.836.259 1.281.389-.602.526-.99.46-2.038-.367l.11.498.08.391c-.115.004-.26.053-.338 0-.112-.076-.254-.228-.249-.342.06-1.429.078-2.864.236-4.284.597-5.356 2.185-10.41 4.861-15.09C11.427 10.28 20.103 3.736 31.661 1.077A38.754 38.754 0 0143.797.246c6.565.575 12.647 2.612 18.152 6.258 7.855 5.2 13.183 12.341 16.108 21.274.519 1.583.905 3.22 1.22 4.857.564 2.923.832 5.88.69 8.864-.006.144-.025.286-.03.327-.673.598-1.362.503-2.117.185-.196-.365-.092-.686.329-.968.549-.367.962-.846.989-1.605l-1.14.433-.132-.108c.32-.59.641-1.177.96-1.767-.036-.03-.075-.059-.112-.088l-.127.314c-.026-.073-.05-.147-.075-.22-.114 0-.23-.01-.343.002-.14.014-.279.047-.417.072.07-.116.145-.23.21-.348.115-.21.224-.426.337-.639-.254.011-.255-.588-.638-.264-.09-.157-.21-.306-.26-.475-.057-.193-.052-.404-.074-.608l-.14-.029c-.082.144-.18.282-.246.433-.454 1.026-.541 1.068-1.576.761l.816.75-.09.101.068.036.023-.137-.002.002zM12.993 41.68l-.31-1.545c-.31.339-.597.507-.63.714-.08.512-.378.579-.933.486.227.345.37.774.543.787.698.052 1.424.044 2.159-.535l-.83.093h.001z" fill="#D62121"/><path d="M40.21 29.2c1.181.318 2.361.636 3.708.997-.828-.59-1.54-1.096-2.255-1.602 0-.024.003-.047.004-.071.592.183 1.197.335 1.773.558.582.224 1.136.52 1.796.688a7418.41 7418.41 0 00-1.855-1.618l2.352.785.074-.081-1.643-1.415.09-.108c1.834.503 3.443 1.46 5.012 2.498l.133-.108-1.468-1.928 1.27.543c-.402-.925-1.117-1.548-1.725-2.251l-.014.009c.301.148.623.267.901.451 1.334.882 2.477 1.96 3.297 3.351.452.77.698 1.586.568 2.502-.069.003-.13.026-.17.005-1.093-.592-2.216-.524-3.31-.061-.966.408-1.893.91-2.835 1.377-1.206.598-2.487.942-3.826.933-1.431-.01-2.862-.135-4.292-.208a3.655 3.655 0 01-.144.036l-.008-.045.161.023c.57.235 1.144.46 1.708.706.505.22 1 .466 1.499.7l.01.003c-.37-.013-.742.004-1.105-.045-.929-.125-1.854-.28-2.789-.346l2.587 1.16-.03.103c-1.063-.058-2.125-.138-3.19-.166-1.081-.028-2.165-.006-3.248-.006l-.014.175 5.614 2.056-.02.07-10.19.659-.004.19 4.913 1.123-.013.11-7.255.828c0 .029 0 .058.002.086l4.636.79-.01.072-4.974.552.015.119c.803.111 1.608.222 2.41.335l-.014.266c-.59 0-1.181-.041-1.766.01a20.85 20.85 0 00-2.412.332c-1.55.323-3.088.701-4.576 1.044 1.89-1.345 4.11-2.159 6.408-2.825-1.909-.172-3.777.073-5.645.422 2.489-1.383 5.16-2.182 7.972-2.573-1.954-.39-3.918-.338-6.002-.059 1.005-.701 3.83-1.702 5.569-1.91 1.922-.23 3.855-.37 5.738-.545-1.459-.337-3.003-.535-4.555-.424-1.524.11-3.038.37-4.566.566 3.137-1.633 6.494-2.447 10.005-2.756-1.42-.46-2.91-.393-4.5-.597 1.463-.672 2.814-1.307 4.177-1.916a60.051 60.051 0 012.752-1.154c1.114-.432 2.271-.431 3.435-.241l.506.08.052-.14-2.998-1.517c1.586.007 2.979.605 4.362 1.237l.098-.166-2.242-1.607.053-.06h.004zM26.179 42.522c-.013-.01-.025-.03-.037-.03-.013 0-.025.018-.038.03.012.011.023.032.035.033.012 0 .025-.019.041-.032zm2.301 1.773c2.173 0 4.35-.072 6.518.021 1.902.084 3.805.292 5.692.553 3.543.489 7.02 1.278 10.394 2.486.394.14.61.119.888-.249 1.441-1.907 3.192-3.468 5.333-4.565.048-.025.095-.053.144-.077 1.75-.837 2.672-.677 3.928.797.73.856 1.39 1.773 2.034 2.695.582.835.46 1.14-.257 1.843-.35.344-.619.86-.728 1.34-.221.982-.293 1.954.6 2.763.39.355.574.936.92 1.532-1.118.036-2.18.104-3.24.097-3.562-.025-6.969-.89-10.308-2.03-.992-.338-1.955-.14-2.906-.041-2.742.286-5.491.578-8.201 1.072-2.22.403-4.385 1.099-6.574 1.665-.256.067-.513.139-.782.152 5.31-2.151 10.858-3.146 16.7-3.39-1.849-.9-3.644-1.656-5.284-2.695l.042-.135c1.805.062 3.61.122 5.416.188.654.023 1.307.098 1.959.074.198-.008.388-.265.648-.456-7.519-2.573-15.108-3.796-22.932-3.492 0-.049-.003-.1-.004-.148zm32.996 6.97c.03-.075.06-.15.092-.225-1.61-1.206-3.447-1.906-5.396-2.356 1.769.86 3.536 1.72 5.304 2.582zm-5.906.29l.01-.272h-5.068c1.741.133 3.394.342 5.06.272h-.002zm1.815-.297l3.64 1.558.102-.256c-1.145-.715-2.431-1.074-3.742-1.302zM51.492 16.21c-.286-.673-.575-1.345-.862-2.019l.008.006c.506.453 1.044.874 1.508 1.366.406.433.73.943 1.102 1.436.677-.509 1.327-1.057 2.034-1.515 1.928-1.252 3.868-2.49 6.023-3.331.47-.184.964-.325 1.46-.43 1.227-.255 2.112.258 2.48 1.46.418 1.364.378 2.762.183 4.158-.31 2.22-1.16 4.22-2.465 6.036-.223.309-.41.643-.608.968-.026.043-.028.1-.051.189l2.34-.185-1.836 1.797c-.01.041-.022.083-.034.124l.135-.03 1.388-.332c-1.066 1.646-1.815 3.282-1.563 5.33l1.026-1.75c.028.014.057.026.085.039-.03.438-.074.875-.09 1.314-.08 2.316.727 4.254 2.45 5.82.537.486 1.021 1.03 1.512 1.564.14.152.224.356.404.652l-1.74-.35c.402.599.778 1.155 1.247 1.852-.894.112-1.6.2-2.219.28.395 1.129.791 2.266 1.19 3.401a.47.47 0 00.115.183c.941.875 1.89 1.741 2.825 2.62.273.257.51.55.764.827.566.997.444 1.95-.2 2.872.057-.398.112-.794.17-1.191.107-.747-.162-1.344-.717-1.835-.977-.865-1.975-1.71-2.913-2.617-.349-.338-.597-.807-.812-1.253-.407-.844-.755-1.715-1.13-2.573-.058-.133-.147-.255-.186-.391-.181-.639.03-.874.702-.802l.14.018-.024-.13-1.631-2.692h1.227c-1.446-1.184-2.048-2.825-2.654-4.634-.194.427-.324.714-.461 1.02l-.721-.612c.109 1.188.214 2.248.298 3.309.03.371.003.746 0 1.12l.004.002c-1.1-1.768-1.309-3.812-1.812-5.77-.3-1.17-.72-2.309-1.084-3.462a2.064 2.064 0 01-.12-.707c.117.095.262.169.346.287.85 1.194 1.69 2.395 2.536 3.592.06.087.142.158.287.314.74-1.319.523-2.682.553-4.184l-.758.602-.168-.033c.05-.478.04-.973.169-1.428.128-.46.396-.881.67-1.463l-1.374.383.957-2.385-.857.562-.063-.069c.424-.502.87-.985 1.268-1.508 1.58-2.078 2.375-4.421 2.341-7.04 0-.054-.002-.109-.005-.163-.091-1.572-.889-2.088-2.32-1.463-1.45.633-2.675 1.607-3.8 2.697-.767.745-1.465 1.562-2.195 2.346-.1.106-.208.202-.313.302-.046-.036-.092-.07-.138-.107l1.142-2.104.086-.096a7.306 7.306 0 01-.155.009l-1.68 1.286a.875.875 0 00-.075-.066l.948-1.966c-.923.519-1.764 1.14-2.466 1.878L51.697 15.4l-.157.108.578 1.69-.094.085c-1.072-.846-2.089-1.78-3.379-2.278l-.11.135.729 1.144-.067.04-2.28-1.471c.431.177.861.355 1.293.531l.081-.11c-.17-.254-.343-.506-.601-.886 1.474.383 2.542 1.21 3.662 1.938.06.01.122.018.183.026l-.044-.14.002-.001zm-25.996 9.023c-1.328-2.722-1.9-5.595-1.694-8.615.137-1.988.5-3.93 1.35-5.75.844-1.807 1.942-2.331 3.887-1.843 2.087.524 3.876 1.63 5.552 2.931 1.005.78 1.96 1.626 2.966 2.404.264.203.637.262.96.387l.502 1.031.002-.006-.613-.485c.19.768.367 1.473.543 2.178l-.107.027-.611-.527.056-.18-.063-.015.01.196c.457.788.42 1.656.399 2.533-.425-.944-.85-1.88-1.642-2.578.491 1.022.922 2.052.993 3.192.01.14-.085.365-.196.42-1.343.653-2.424 1.624-3.4 2.731-.03-.021-.06-.044-.093-.066l1.033-1.83-.723.408-.091-.069.83-1.027-.073-.106-1.641 1.257c.06-.291.12-.528.156-.77.047-.335.054-.677.115-1.009.043-.227.15-.442.229-.661l.136-.194-.056-.046-.19.14c-.095.015-.19.03-.286.043l-.068-.078.93-.77c-1.022-.152-1.752.453-2.572.653l-.056-.136c.591-.36 1.183-.718 1.84-1.117l-1.261.08c.429-.25.737-.469 1.076-.615.338-.146.708-.221 1.105-.34-.843-.741-1.687-1.29-2.837-.712l-.05-.156 1.583-1.005c-.445-.504-.554-.527-2.61-.537.677-.782 1.876-1.04 2.906-.598.416.178.809.409 1.212.615a1.86 1.86 0 00-.008.078l.071-.022c-.025-.015-.051-.03-.076-.047-.33-.426-.626-.885-.996-1.273-1.114-1.166-2.379-2.132-3.912-2.688-1.723-.623-2.785-.193-3.51 1.503-1.209 2.83-1.282 5.73-.414 8.672.057.193.52.497-.041.681.04.118.064.246.125.352.566.987 1.14 1.97 1.71 2.953l-.058.06-.912-.826c-.043-.08-.085-.16-.129-.238l-.127.037.025.044.1-.088.05.316 1.152 2.163c-.626.49-.917.464-1.426-.051-.345-.348-.71-.677-1.065-1.015l.003.004zm.65-3.844c-.073-.048-.108-.08-.15-.091-.022-.007-.053.025-.082.039.025.032.044.08.077.092.031.01.076-.017.156-.04zM56.71 35.96c-.724-1.687-1.6-3.235-2.866-4.546-.122-.127-.205-.3-.275-.464-1.193-2.798-2.662-5.43-4.684-7.758.083-.018.15-.056.177-.037 2.534 1.825 4.855 3.868 6.593 6.5 1.15 1.74 1.431 3.65 1.133 5.677-.016.108-.025.216-.04.324-.012.102-.026.203-.039.305z" fill="#F8F3DC"/><path d="M58.24 56.86c.118.183.196.468.363.535 1.34.544 2.698 1.049 4.09 1.58l1.127-1.42c-.046-.044-.092-.088-.136-.133l-1.754.587a58.728 58.728 0 00-.07-.137c.623-.514 1.243-1.034 1.87-1.541.388-.315.59-.271.74.214.093.304.071.645.105 1.005l.428.137a3.362 3.362 0 01-.11.055c.127.268.27.53.376.806.064.166.068.354.099.532-.163-.036-.323-.088-.487-.105-.184-.018-.37-.004-.573-.004l.077-.381-1.409.181-.03.247 3.02 1.5c-1.165.686-2.325 1.344-3.455 2.05-.47.294-.875.69-1.31 1.041l-.027.09.06-.055c2.363-.603 4.521.043 6.611 1.093a.441.441 0 01.172.156c-2.605-.9-5.211-1.726-7.97-.526 1.424-1.83 3.371-2.864 5.532-3.834-1.634-.628-3.164-1.209-4.687-1.805-1.11-.434-2.231-.848-3.312-1.349-.893-.414-1.655-1.026-2.05-2.03l.89.552c.146.126.273.292.441.372.45.215.918.393 1.379.586v.001zm-45.504-8.28c1.015.657 1.839 1.51 2.658 2.543-3.147-.02-6.014.707-8.796 2.095 1.639 2.003 3.524 3.773 4.891 6.033l-1.865-.178.416.461c-1.4.043-2.636.435-3.727 1.256l-.09-.163c.71-.456 1.423-.91 2.18-1.395l-.41-.3.01-.132c.847-.039 1.694-.08 2.724-.127L8.716 56.21c-.204-.25-.425-.488-.613-.75-.466-.645-1.149-.76-1.873-.933-.604-.145-1.125-.629-1.677-.974-.023-.014.028-.147.022-.12l2.218.862.13-.215-.855-.764c.71-.822 1.86-.925 2.706-1.579l-.164-.322 6.026-.869-1.367-.603.308-.293c-.332-.297-.653-.584-.972-.872l.13-.198z" fill="#D62121"/><path d="M7.432 47.906l-.867.138c.26-.13.39-.192.523-.258l-.16-.204c.285-.123.571-.225.836-.367.208-.111.413-.267.104-.505l-.009.009c.216.088.427.19.65.26.216.066.396.516.674.08l1.125.412c-.032.271-.197.66-.076.795.477.536-.04.756-.273 1.048-.083.105-.312.181-.433.142-.121-.04-.189-.24-.364-.367.058.19.066.425.185.563.388.453.866.268 1.414.167-.066.105-.13.297-.2.3-.596.025-1.193.006-1.79.016-.173.003-.344.06-.519.08-.551.06-1.102.122-1.654.163-.103.008-.212-.077-.329-.124.129-.412.356-.544.736-.472.39.073.847-.52.836-.922-.007-.23.2-.464.312-.696-.38-.269-.62-.353-.725-.252l.008-.007-.004.001z" fill="#D62121"/><path d="M25.576 46.846c7.126-.876 14.196-.773 21.326.888-.195.094-.291.184-.378.175-1.162-.12-2.333-.192-3.482-.394-4.135-.727-8.305-.907-12.488-.853-1.518.02-3.035.175-4.553.259-.14.007-.284-.048-.426-.075h.001zM58.24 56.86c-.461-.193-.93-.371-1.379-.586-.168-.08-.295-.246-.44-.372.224.042.458.055.67.13 2.57.901 4.958.349 7.247-.915.335-.184.604-.498.887-.77.297-.286.545-.522 1.042-.572.531-.054 1.075-.394 1.528-.726.596-.437 1.11-.986 1.659-1.487.023.025.048.05.074.074-.594 1.104-1.483 1.908-2.564 2.518l-1.2.198-.268.294-.697.761c-2.06 1.057-4.22 1.658-6.56 1.453zM46.922 35.795c.948 2.106 2.616 2.641 4.778 2.166-1.486 1.217-4.339.426-4.944-1.33-.083-.24-.011-.535-.011-.803l.178-.032-.001-.001z" fill="#F8F3DC"/><path d="M63.466 67.011l3.82 2.293c-.205.055-.369.159-.458.114-1.344-.675-2.648-1.41-3.821-2.61l2.982-1.429.093.18-2.617 1.452h.001zm9.43-18.008l-.741.666c.048.119.083.47.275.62.247.194.619.23.942.31.01.003.083-.25.171-.523.132.227.329.412.336.606.018.436-.31.188-.525.23-.543.105-.98-.066-1.41-.35-.262-.174-.5-.211-.601.072l-.678-.21c.082-.778.718-1.416 1.183-1.088.23-.487.649-.383 1.055-.324l-.008-.008.001-.001zM11.272 62.39c-.97.535-1.866 1.045-2.782 1.52-.133.068-.354-.032-.534-.054l.016-.155 2.328-1.315.03-.139c-.537-.076-1.073-.185-1.613-.221-.566-.039-1.137-.01-1.705-.07 1.095-.4 3.35-.164 4.26.432v.001z" fill="#D62121"/><path d="M18.105 40.477c-1.325-.49-2.647-.984-3.975-1.466-.523-.19-1.058-.35-1.747-.574 1.224-.299 2.233-.843 3.399-.706l-2.612.626c1.366.533 2.6 1 3.82 1.499.39.16.745.411 1.115.62z" fill="#F8F3DC"/><path d="M1.1 44.369l.155.919-.457.101-.364-2.652.277-.062c.063.183.085.402.2.544.196.24.455.43.68.65.16.158.308.328.414.624l-.906-.124H1.1z" fill="#D62121"/><path d="M42.94 14.034l-.518-.543.042-.106.938.475h-.371l.525.935-.087.078c-.754-.329-1.495-.685-2.264-.97-.296-.11-.652-.059-.98-.08l-.58-.494.096-.186c.84.34 1.677.688 2.524 1.011.167.064.37.028.559.036.01.032.032.055.064.067l.214.053-.04-.178a5.14 5.14 0 01-.12-.098h-.003zM10.306 47.472l-1.125-.412-.585-.34.119-.129 1.432.205c-.008.079-.045.21-.017.226.354.203.728.372 1.077.583.517.311 1.019.648 1.527.975l-.13.197c-.767-.435-1.533-.87-2.299-1.307l.001.002zm8.157-11.48c-.852-.39-1.704-.78-2.558-1.166-.587-.266-1.176-.525-1.753-.886l1.226-.062-.501.147 3.586 1.968zm19.225-22.337l-.554-.34.09-.175c.838.339 1.67.694 2.516 1.003.223.082.497.024.748.031l.945.853-.003-.004c-.466-.193-.926-.404-1.4-.574-.775-.278-1.56-.53-2.342-.793v-.001zm27.159 35.95c.481 1.082 1.257 1.145 2.201.893-.525.544-1.159.714-1.657.465-.506-.252-.604-.703-.544-1.359v.002zM23.252 30.987c-.272-.196-.553-.383-.818-.59-.796-.62-1.585-1.247-2.386-1.88.092.012.188.025.285.04 1.055.711 2.099 1.437 2.92 2.43zm-4.132 1.837l-2.747-1.02.015-.198H18.5l-1.327.166-.022.101 1.97.951z" fill="#F8F3DC"/><path d="M1.393 46.44l-.185.261-.434-.887c.06-.056.122-.11.183-.166l1.249.471-.013.218-.8.103z" fill="#D62121"/><path d="M45.496 14.92l-.202-.847 1.635.788c-.37-.12-.742-.237-1.244-.398l.93 1.195-.058.071-1.06-.807v-.001z" fill="#F8F3DC"/><path d="M70.605 52.894c.074-.753 1.015-1.222 1.715-.844l-1.715.844z" fill="#D62121"/><path d="M13.325 43.446l-.51-.017c-.332-.07-.662-.14-.994-.208l-1.166-.29-.027-.124 1.638-.26-.933.262 1.993.638-.001-.001z" fill="#F8F3DC"/><path d="M5.776 55.847l-.611.605c-.52-.296-.811-.554-.876-.776.294.085.551.2.818.226.255.025.52-.04.67-.056l-.001.001zm73.807-9.857l-.16.94-.746-.205c-.034-.623.153-.812.906-.734z" fill="#D62121"/><path d="M24.443 27.1l-1.52-2.44 1.52 2.44zm25.992 6.786c.204.29.406.455.412.627.006.133-.273.409-.358.385-.183-.054-.402-.235-.45-.409-.034-.12.194-.313.396-.604z" fill="#F8F3DC"/><path d="M4.403 52.318c.643-.279 1.057-.017 1.381.91l-1.381-.91zm60.396 3.089l.697-.761.314.913.006-.005-1.017-.146z" fill="#D62121"/><path d="M22.602 27.836l-1.171-.423.014-.132c.574.036 1.148.07 1.721.107l-1.085.049.52.4z" fill="#F8F3DC"/><path d="M67.116 55.542l-1.13-.713.121-.186 1.104.755-.096.144h.001zm9.055.667c-.4.638-.682.701-1.034.254l1.034-.255zM65.765 54.35l1.2-.197.466.102c-.463.41-1.14.44-1.666.096zM4.666 46.194v-.382l.683.336-.058.101c-.188-.016-.376-.032-.625-.055zm1.547-.358l.282.74-.89-.347.613-.386-.006-.007h.001zm-1.298 6.021c-.21-.107-.441-.188-.62-.333-.071-.059-.028-.26-.046-.531l.71.755-.044.108v.001zm67.719 2.169l-.651-.089c.174-.266.288-.438.487-.744l-.12.716h.298c-.004.04-.008.077-.014.117z" fill="#D62121"/><path d="M22.93 24.669l-.43-.24c.056-.069.112-.139.169-.207l.571.275-.31.172z" fill="#F8F3DC"/><path d="M72.904 49.012l.15-.137.032.037a8.202 8.202 0 01-.19.091l.008.008z" fill="#D62121"/><path d="M40.157 29.26l-.26-.02.006-.079.308.04-.054.06z" fill="#F8F3DC"/><path d="M7.867 46.711l-.157-.072.062-.069.086.15.009-.008v-.001z" fill="#D62121"/><path d="M44.164 27.441l-.232-.086.008-.05.315.028-.09.108h-.001zm-23.631 4.152l.093.005a2.537 2.537 0 01-.093-.005zm20.479 4.275l.007.12-.116-.044.116-.074-.007-.002zm-7.275-16.532l-.187.1-.03-.063.15-.114.069.078h-.002z" fill="#F8F3DC"/><path d="M6.219 45.843l.061-.06.018.053h-.085l.006.007zm1.206 2.07a.61.61 0 01.01.018.628.628 0 00-.004-.024l-.006.007v-.001z" fill="#D62121"/><path d="M69.455 51.562l.084-.173.098.084-.108.163a.949.949 0 01-.074-.074zM41.433 15.025l-.02.07.017-.073.003.003zM23.537 27.409H23.5h.037zm15.602-11.516l-.117-.121-.003.008.102-.053.017.165v.001zm12.98 1.303l.007.171-.1-.084.094-.086h-.001zm2.791.501l-.09.075.016-.141c.026.02.052.042.075.066zm-7.434 8.392l-.072-.087.05-.01.008.106.014-.009zM27.88 25.027l.101-.07.05.078-.134-.015-.017.007zm6.512-1.763l-.101.07.009-.137.092.066v.001zm27 14.033c.016-.006.032-.014.049-.017a.1.1 0 01.036.002l-.083.017-.004-.002h.002z" fill="#F8F3DC"/><path d="M65.81 55.558l.032.022a.612.612 0 01-.026-.029l-.007.006.002.001zm12.426-14.783c-.012.009-.025.026-.036.025-.01 0-.02-.02-.031-.03.012-.01.025-.027.036-.026.01 0 .02.02.031.03z" fill="#D62121"/><path d="M19.356 45.548h.037l-.02.07c-.012-.013-.028-.022-.034-.038-.004-.007.01-.023.017-.033zm19.783-29.655l.088-.062c-.03.02-.059.041-.087.062h-.001zM27.897 25.02l-.07-.128.058-.06c0 .064-.002.13-.004.194a.15.15 0 01.016-.006z" fill="#F8F3DC"/><path d="M11.821 43.22l.993.21.08.79c.512-.315.92-.23 1.469.312l-4.78.631c-.006-.025-.012-.05-.02-.075l1.315-.45c-.249-.756.636-.712.765-1.186l-.012.003.19-.234zm1.172-1.54l.83-.092c-.735.58-1.46.587-2.16.535-.173-.013-.315-.442-.542-.787.554.092.853.025.934-.486.032-.207.318-.375.63-.714l.31 1.545h-.002zm-8.791-6.576c.06-.05.119-.1.179-.148l.08.128-.18.092a.954.954 0 00-.08-.07v-.002z" fill="#333"/><path d="M11.631 43.455l.012-.003-.012.003z" fill="#F8F3DC"/><path d="M76.18 37.659l-.023.138-.067-.037.089-.101h.001z" fill="#333"/><path d="M50.63 14.191l-.004-.014.01.021-.007-.007z" fill="#F8F3DC"/><path d="M37.805 34.461l-.161-.023.008.045.145-.036.01.015h-.002zm-11.627 8.06c-.016.013-.029.033-.041.032-.012 0-.023-.022-.035-.034.013-.011.026-.03.038-.03.013 0 .025.02.037.031l.001.001zm35.298 8.745l-5.304-2.582c1.949.449 3.787 1.149 5.396 2.356l-.092.226zm-5.907.289c-1.665.07-3.318-.139-5.059-.272h5.068l-.01.272zm1.815-.297c1.31.228 2.599.587 3.742 1.302l-.102.256-3.64-1.558zm7.946-11.471c.01.044.017.086.026.13a6.692 6.692 0 00-.141-.019l.115-.11z" fill="#333"/><path d="M62.905 26.24l-.134.03.034-.124.1.095z" fill="#D62121"/><path d="M56.59 16.412l.154-.01-.086.097-.069-.086v-.002z" fill="#333"/><path d="M51.492 16.21l.044.14-.183-.026.14-.113z" fill="#D62121"/><path d="M26.147 21.39c-.08.021-.125.049-.156.039-.032-.011-.052-.06-.077-.092.028-.014.06-.046.082-.04.042.013.077.045.15.092zm.688 2.746l-.05-.316.002.006.13.24-.08.07h-.002zm11.401-7.169l-.01-.195.063.014-.056.18.003.001zm-4.211 2.326l.19-.141.055.046-.136.194c-.036-.033-.073-.065-.11-.1zm.898-4.663c.025.016.051.03.076.047l-.07.022c.001-.026.005-.052.007-.077l-.014.01v-.002z" fill="#333"/><path d="M26.785 23.82l-.1.088c-.009-.014-.016-.03-.025-.043l.128-.037-.003-.008zm34.449 39.824l-.059.056.028-.09.031.034z" fill="#333"/><path d="M43.06 14.132c.012.06.026.12.04.178a11.903 11.903 0 01-.212-.054l.171-.126v.002z" fill="#D62121"/><path d="M42.94 14.034l.12.098-.172.125a.104.104 0 01-.066-.067c.04-.05.078-.102.117-.154v-.002z" fill="#D62121"/></g></g><defs><clipPath id="clip0_303_3737"><path fill="#fff" d="M0 0h80v80H0z"/></clipPath></defs></svg>