<svg width="47" height="80" viewBox="0 0 47 80" fill="none" xmlns="http://www.w3.org/2000/svg">
<g id="Group 70">
<path id="Vector" d="M33.3238 11.9889C33.6362 9.95918 35.0713 9.35249 36.8047 10.193C37.5908 10.5739 38.004 11.2451 37.9617 12.0494C37.8529 14.1194 37.7017 16.1914 37.4457 18.2453C37.093 21.0732 36.5609 23.8769 36.2343 26.7068C35.9683 29.0167 36.2746 31.2883 37.607 33.2697C37.9859 33.834 38.6651 34.5435 39.2275 34.5596C40.1244 34.5858 40.2172 33.5418 40.4308 32.8141C40.8742 31.3085 41.2491 29.7806 41.7611 28.2972C41.9949 27.6159 42.4081 26.9608 42.8717 26.4025C44.1738 24.8364 45.6936 25.1226 46.3305 27.0656C46.8445 28.6358 46.8263 30.2624 46.262 31.8144C45.7822 33.1326 45.2804 34.477 44.5507 35.6642C43.0652 38.0809 42.9906 40.6649 43.2506 43.3456C43.8432 49.459 44.3794 55.5763 45.0264 61.6836C45.2683 63.9774 45.8105 66.2369 46.1168 68.5246C46.528 71.5883 46.1491 74.5129 44.0569 76.9619C41.6785 79.7455 37.9153 80.5235 34.4263 79.0158C31.4271 77.7198 29.2704 75.4825 27.8212 72.6404C25.3581 67.809 23.1087 62.8668 20.6597 58.0273C18.7228 54.1997 16.5358 50.499 14.615 46.6633C12.3031 42.0456 8.69512 38.5042 5.23231 34.8196C4.14187 33.6587 3.1381 32.4029 2.22705 31.0988C1.84811 30.5566 1.69896 29.7827 1.64454 29.0994C1.48127 27.0938 2.95871 25.9611 4.89772 26.5557C6.6513 27.0938 7.68127 28.3697 8.24766 30.0406C8.93901 32.0784 10.2854 33.57 12.0632 34.6846C13.4499 35.5533 14.494 35.0676 14.5323 33.4369C14.5666 31.9797 14.4174 30.4821 14.101 29.0591C13.2967 25.4572 11.9584 22.1133 9.37236 19.3237C7.86268 17.6951 7.42731 15.5968 7.84857 13.3958C8.17913 11.6684 9.326 11.1988 10.8034 12.1763C12.6598 13.4039 13.7281 15.23 14.7036 17.1851C16.1529 20.0876 17.7553 22.9135 19.3476 25.7414C19.6499 26.2775 20.1659 26.727 20.6618 27.114C21.3813 27.6763 22.0747 27.5211 22.3085 26.6484C22.5262 25.8361 22.6451 24.8928 22.4557 24.0906C21.6635 20.7326 20.692 17.4189 19.8837 14.065C19.525 12.5734 19.2811 11.0335 19.1924 9.50366C19.0835 7.61907 20.0188 6.2807 21.3309 6.0731C22.7802 5.84332 24.1064 6.82895 24.5499 8.75788C25.211 11.6321 25.6484 14.5568 26.2873 17.4351C26.7952 19.7208 27.4503 21.9742 28.0731 24.2337C28.1961 24.6791 28.4259 25.1085 28.6778 25.5015C29.2039 26.3219 29.732 27.2269 30.9353 26.9709C32.0439 26.7351 32.9912 25.6265 33.0335 24.4353C33.193 20.0139 32.5875 16.749 33.3238 11.9889Z" fill="#D62121"/>
<path id="Vector_2" d="M22.3409 4.37185C21.5608 4.45852 20.809 4.54116 20.0471 4.6238V0C21.2424 0.0483745 22.6069 2.87627 22.3409 4.37185Z" fill="#D62121"/>
<path id="Vector_3" d="M35.4302 3.19482C36.9378 4.80932 36.8794 6.57701 37.1414 8.20965C36.4299 8.12499 35.791 8.04638 35.0916 7.96375C35.1943 6.52863 35.3012 5.00685 35.4302 3.19482Z" fill="#D62121"/>
<path id="Vector_4" d="M9.52758 10.4327C8.87654 10.6786 8.27186 10.9063 7.48981 11.2006C7.02824 9.8159 7.13708 8.38482 7.31445 6.86304C8.03604 8.02604 8.75762 9.19106 9.52758 10.4327Z" fill="#D62121"/>
<path id="Vector_5" d="M43.4664 24.5622C43.8594 23.246 44.198 22.1133 44.5367 20.9805C44.6657 20.9744 44.7947 20.9684 44.9237 20.9644C45.2804 22.2201 45.6352 23.4758 45.9919 24.7315C45.9194 24.798 45.8448 24.8646 45.7722 24.9331C45.1897 24.0321 44.454 24.0361 43.4644 24.5642L43.4664 24.5622Z" fill="#D62121"/>
<path id="Vector_6" d="M0.179267 22.7803C0.92504 23.5079 1.6688 24.2376 2.41457 24.9672C1.98726 25.3542 1.55189 25.7472 0.95729 26.2834C0.626731 25.0962 0.314312 23.9695 -0.00012207 22.8428C0.0583305 22.8226 0.118798 22.8024 0.177251 22.7823L0.179267 22.7803Z" fill="#D62121"/>
</g>
</svg>
