<svg width="47" height="80" viewBox="0 0 47 80" fill="none" xmlns="http://www.w3.org/2000/svg">
<g id="Group 71">
<path id="Vector" d="M13.8043 23.9786C13.8103 24.9476 14.0435 25.8 14.8779 26.4494C15.9997 27.324 17.1095 27.3481 17.7629 26.1117C18.6455 24.445 19.4255 22.6698 19.896 20.8503C20.7826 17.4225 21.3978 13.9243 22.1678 10.4643C22.3628 9.58977 22.6241 8.70718 23.0102 7.903C23.5872 6.70678 24.707 6.12375 25.7665 6.29464C26.7958 6.46151 27.7729 7.41849 27.785 8.74136C27.7991 10.3598 27.6744 12.0244 27.2944 13.5946C26.5566 16.6465 25.5916 19.642 24.7412 22.6657C24.5421 23.3714 24.3451 24.0952 24.2908 24.8209C24.2426 25.4703 24.2828 26.17 24.4778 26.7872C24.7653 27.7019 25.473 27.913 26.1826 27.2737C26.9446 26.5861 27.7025 25.8242 28.2212 24.9516C29.5662 22.6838 30.8569 20.3738 32.019 18.0075C32.9297 16.1519 33.9048 14.3827 35.5473 13.0779C36.3073 12.4748 37.1215 11.7993 38.171 12.2777C39.1822 12.7381 39.2425 13.7896 39.2526 14.7064C39.2747 16.7048 38.7279 18.5162 37.2944 20.022C34.2908 23.1804 32.9921 27.1269 32.2582 31.3027C32.1034 32.1812 32.0391 33.1121 32.1456 33.9926C32.3105 35.3497 33.177 35.7719 34.3732 35.1125C36.245 34.0831 37.6784 32.6155 38.4203 30.5688C38.943 29.1273 39.7733 27.9472 41.1846 27.2838C42.2321 26.7912 43.3398 26.6404 44.3149 27.4325C45.2799 28.2186 45.2457 29.2902 44.9422 30.3799C44.4798 32.0425 43.4806 33.3312 42.2803 34.5515C39.4456 37.4365 36.5244 40.2632 33.9731 43.3875C32.3246 45.406 31.3113 47.9371 29.9301 50.1868C27.7367 53.7574 25.8871 57.4848 24.2265 61.3348C23.1328 63.872 21.5908 66.2162 20.2759 68.6609C19.4697 70.1607 18.8103 71.7469 17.9116 73.1864C16.0339 76.198 13.5811 78.5643 9.95629 79.3223C5.01661 80.3557 0.567479 77.1691 0.0668764 72.1369C-0.0999911 70.4662 0.072905 68.7352 0.284002 67.0565C0.732333 63.4779 1.36563 59.9234 1.81798 56.3468C2.37085 51.9641 2.78903 47.5652 3.3218 43.1804C3.65151 40.4663 3.54697 37.8929 2.14971 35.408C0.971583 33.3151 -0.073857 31.1036 0.209617 28.5664C0.275962 27.9713 0.294059 27.3059 0.583564 26.8214C0.951477 26.2082 1.51843 25.406 2.09945 25.3135C2.68248 25.223 3.69976 25.7417 3.98123 26.2785C4.83567 27.917 5.45689 29.6842 6.10828 31.4233C6.32742 32.0103 6.2852 32.6959 6.5164 33.2769C6.69935 33.7373 7.06124 34.3585 7.44322 34.4389C7.81516 34.5174 8.51881 34.1052 8.71584 33.7232C9.39336 32.4044 10.1614 31.0534 10.4428 29.6259C11.0078 26.7631 10.3564 23.9002 9.99248 21.0453C9.62858 18.1965 9.27474 15.3417 9.07973 12.4768C8.97921 10.9931 9.64065 10.2995 10.9012 9.96171C12.1557 9.62596 13.1589 10.0461 13.5248 11.3007C13.8666 12.4768 14.0355 13.7192 14.124 14.9436C14.3477 18.1212 13.7788 20.5871 13.8043 23.9786Z" fill="#D62121"/>
<path id="Vector_2" d="M27.1195 0V4.93968C26.4279 4.83112 25.6619 4.7125 24.8497 4.58383C24.6104 3.33936 25.6921 0.910735 27.1195 0Z" fill="#D62121"/>
<path id="Vector_3" d="M11.7958 3.52832C11.8883 5.0241 11.9788 6.52188 12.0713 8.02972C11.4541 8.07194 10.8208 8.11617 10.0809 8.16643C10.1875 6.5259 10.3503 4.85723 11.7958 3.52832Z" fill="#D62121"/>
<path id="Vector_4" d="M39.9864 7.43047C39.8999 8.80964 39.8135 10.1888 39.723 11.6544C38.9751 11.4252 38.4343 11.3006 37.9357 11.0815C37.789 11.0171 37.6301 10.5989 37.7025 10.4844C38.3619 9.43691 39.0716 8.41962 39.7672 7.39429C39.8416 7.40635 39.914 7.41841 39.9884 7.43047H39.9864Z" fill="#D62121"/>
<path id="Vector_5" d="M2.42314 20.8082C2.73476 21.9119 3.04638 23.0137 3.32986 24.0108C2.53171 24.1355 1.81598 24.2461 0.95752 24.3788C1.29326 23.2408 1.65917 22.0004 2.02708 20.762C2.15977 20.778 2.29246 20.7921 2.42515 20.8082H2.42314Z" fill="#D62121"/>
<path id="Vector_6" d="M45.8267 26.8233C45.2397 26.3006 44.8034 25.9126 44.4375 25.5849C45.1492 24.841 45.887 24.071 46.6229 23.301C46.6812 23.3252 46.7415 23.3493 46.7998 23.3734C46.4841 24.4892 46.1705 25.605 45.8267 26.8253V26.8233Z" fill="#D62121"/>
</g>
</svg>
