<svg width="44" height="52" viewBox="0 0 44 52" fill="none" xmlns="http://www.w3.org/2000/svg">
<path d="M29.9236 16.98C29.8174 15.2685 29.685 13.7883 29.6459 12.3043C29.6104 10.9136 29.644 9.51721 29.7148 8.12645C29.7391 7.64547 29.9162 7.14957 30.1194 6.704C30.688 5.45866 32.2148 4.60109 33.2793 4.877C34.3662 5.15851 35.2928 6.73383 35.0765 8.12832C34.4855 11.9277 33.8405 15.7197 33.2216 19.5154C32.9177 21.3759 33.1022 23.1694 34.0232 24.8417C34.2301 25.2164 34.4949 25.578 34.7987 25.8801C35.7943 26.8719 37.0228 26.7936 37.6492 25.5464C38.1973 24.4576 38.4695 23.2253 38.8349 22.0471C39.109 21.1616 39.2693 20.2369 39.603 19.3774C39.9647 18.4509 40.7924 18.1078 41.8178 18.2999C42.7686 18.477 43.2589 18.9841 43.2458 20.0635C43.2365 20.9211 43.0818 21.7898 42.8823 22.6287C42.6828 23.4695 42.3771 24.2898 42.0676 25.0989C41.3685 26.9259 40.9155 28.7306 40.9192 30.7645C40.9248 33.1862 40.2928 35.6079 39.9554 38.0333C39.7838 39.2619 39.644 40.4942 39.5079 41.7284C39.0046 46.3145 36.5176 49.4577 32.2801 51.0479C28.0426 52.64 24.1723 51.5998 20.9452 48.5256C19.877 47.5077 19.1536 46.1057 18.3706 44.8194C17.8412 43.9506 17.4888 42.9774 17.0489 42.0546C15.9564 39.7653 14.1406 38.4342 11.6741 37.8749C10.1063 37.5188 8.54958 37.0844 7.03204 36.5606C5.75128 36.1187 4.89557 35.1996 4.75389 33.766C4.62525 32.4591 5.22555 31.6743 6.4914 31.8849C7.84487 32.1105 9.15733 32.6288 10.4642 33.0855C11.7468 33.533 12.9959 34.0736 14.2655 34.5546C14.9012 34.7951 15.5388 35.0505 16.1987 35.1959C16.5753 35.2779 17.1607 35.2928 17.3527 35.0747C17.5578 34.8417 17.5019 34.2712 17.3882 33.8984C17.2875 33.5702 16.965 33.3018 16.717 33.0296C15.9937 32.2298 15.1753 31.5028 14.5433 30.6359C12.994 28.5068 11.5604 26.2939 10.013 24.1612C9.37918 23.2887 8.60923 22.5038 7.83928 21.7432C6.5492 20.4718 6.06262 18.8853 5.82585 17.1552C5.59095 15.4307 7.33965 14.5937 8.60737 15.2704C9.26733 15.6228 9.89186 16.1653 10.343 16.7656C12.1663 19.1966 13.8814 21.7078 15.7066 24.1388C17.0638 25.9472 18.5105 27.6921 19.959 29.4297C20.2853 29.8212 20.7569 30.1213 21.2174 30.3599C21.8438 30.6843 22.2372 30.4252 22.239 29.7112C22.239 29.3159 22.1701 28.8983 22.0321 28.5292C20.7961 25.2033 20.0224 21.7656 19.2767 18.3017C18.846 16.3014 17.7946 14.4408 17.1011 12.4889C16.7207 11.4151 16.4448 10.2928 16.2323 9.17045C16.0254 8.08358 16.6816 6.91094 17.5671 6.53062C18.4247 6.16149 19.4668 6.45605 20.1249 7.51124C20.7215 8.46575 21.2342 9.53026 21.5176 10.6153C22.7815 15.4643 24.5097 20.1362 26.6462 24.6571C26.8886 25.1679 27.4404 25.5333 27.8487 25.9658C28.1936 25.4531 28.751 24.9759 28.8479 24.4203C29.286 21.8886 29.5937 19.3345 29.9218 16.9818L29.9236 16.98Z" fill="#D62121"/>
<path d="M18.1823 5.0337C17.4477 5.31521 16.7915 5.56689 16.07 5.8428C15.3299 5.13064 15.1528 2.93638 15.9638 1.84204C16.7318 2.9457 17.4701 4.00834 18.1823 5.0337Z" fill="#D62121"/>
<path d="M34.1705 3.9989C33.3875 3.96161 32.8077 3.93551 32.0415 3.90009C32.4666 2.55221 32.8692 1.27517 33.2701 0C33.4285 0.0167786 33.587 0.0316926 33.7473 0.0484712C33.8853 1.33483 34.0232 2.62305 34.1705 3.9989Z" fill="#D62121"/>
<path d="M0.952606 30.2407C2.00966 30.5222 3.06671 30.8019 4.28036 31.1244C3.51973 31.775 2.95112 32.3772 3.4638 33.3522C3.38364 33.382 3.30161 33.4119 3.22144 33.4417C2.38065 32.5133 1.54172 31.5849 0.700928 30.6565L0.952606 30.2407Z" fill="#D62121"/>
<path d="M6.19125 13.5608C5.73822 13.9485 5.30012 14.3251 4.77998 14.7707C4.04732 13.7901 3.31465 12.7889 3.58497 11.1726C4.53949 12.047 5.35232 12.7927 6.18938 13.5608H6.19125Z" fill="#D62121"/>
<path d="M43.4844 17.9308C42.7797 17.6344 42.3006 17.4312 41.6947 17.1758C42.3025 16.3592 42.9251 15.5259 43.5478 14.6907L43.984 14.8566C43.82 15.8652 43.6559 16.8738 43.4844 17.9308Z" fill="#D62121"/>
</svg>
