<svg width="44" height="52" viewBox="0 0 44 52" fill="none" xmlns="http://www.w3.org/2000/svg">
<g id="Group 69">
<path id="Vector" d="M14.9415 10.3345C14.9415 13.2457 14.8502 16.1587 14.975 19.0643C15.0533 20.9132 15.3963 22.7583 15.7355 24.583C15.8305 25.0936 16.3281 25.5298 16.6413 25.9994C17.0438 25.6062 17.5899 25.2837 17.8248 24.8066C20.0259 20.3485 21.7703 15.7152 23.1179 10.9253C23.4384 9.78651 23.9435 8.65334 24.5865 7.66367C25.332 6.51746 26.3217 6.27144 27.2163 6.68892C28.1333 7.11759 28.752 8.42036 28.4333 9.55354C28.0084 11.0688 27.6263 12.6288 26.9404 14.0284C25.8762 16.2016 25.2705 18.4679 24.758 20.8144C24.2231 23.2578 23.3676 25.6285 22.6594 28.0347C22.5028 28.5677 22.2997 29.1007 22.24 29.6468C22.1487 30.4874 22.706 30.89 23.3732 30.3998C24.2622 29.7456 25.1289 28.9945 25.8017 28.1279C28.711 24.3817 31.5235 20.5591 34.4309 16.8129C34.8987 16.2091 35.6163 15.6742 36.3282 15.4114C37.713 14.8988 38.9338 15.9053 38.7791 17.3627C38.589 19.1594 37.9553 20.7548 36.6358 22.0892C35.5734 23.1628 34.6229 24.3575 33.7134 25.567C32.187 27.5967 30.7519 29.6953 29.2385 31.7361C28.8769 32.2244 28.355 32.5953 27.9077 33.0203C27.6841 33.2327 27.3449 33.4098 27.2592 33.6688C27.097 34.159 26.8733 34.7908 27.0541 35.1915C27.3318 35.801 27.9543 35.4413 28.452 35.2698C29.1229 35.0387 29.8162 34.8654 30.4835 34.6231C31.6166 34.2149 32.7256 33.7397 33.8643 33.3539C35.2063 32.901 36.5444 32.3754 37.9292 32.1406C39.204 31.9244 39.8042 32.7034 39.6756 34.008C39.5321 35.445 38.6617 36.3639 37.3925 36.7981C35.7859 37.3479 34.129 37.7803 32.4702 38.1512C30.1648 38.6656 28.4687 39.9181 27.4008 42.0129C26.7671 43.2561 26.1838 44.5253 25.5482 45.7666C23.3695 50.0215 18.4957 52.4202 13.7748 51.5797C9.21227 50.7671 5.44746 46.7711 4.86038 42.1248C4.40934 38.5575 3.67874 34.9977 3.59487 31.423C3.53337 28.7802 3.02643 26.3685 2.1225 23.9493C1.73483 22.913 1.5 21.8022 1.33226 20.7045C1.11607 19.301 1.66028 18.4008 2.67045 18.2145C4.02541 17.9629 4.81378 18.4288 5.2294 19.8714C5.54624 20.971 5.70466 22.1135 5.99541 23.2206C6.18365 23.9344 6.39798 24.6668 6.7521 25.3061C7.58334 26.8139 8.96999 26.8922 10.0342 25.526C11.0891 24.1748 11.5793 22.585 11.4656 20.9132C11.3388 19.0625 10.9698 17.2304 10.7033 15.389C10.3548 12.9959 9.99133 10.6047 9.66331 8.20789C9.60553 7.78668 9.62417 7.32819 9.72481 6.91444C10.0156 5.72908 10.9083 4.85684 11.8122 4.79347C12.8429 4.72265 14.3693 5.7589 14.6973 6.94239C14.9993 8.03643 15.0925 9.18637 15.2788 10.3121L14.9415 10.3382V10.3345Z" fill="#D62121"/>
<path id="Vector_2" d="M28.6346 6.02739C27.9282 5.71801 27.33 5.45708 26.5994 5.13837C27.2852 4.15617 28.0196 3.10686 28.7744 2.02588C29.6019 2.98945 29.4304 5.23156 28.6346 6.02739Z" fill="#D62121"/>
<path id="Vector_3" d="M11.5588 0.00186417C11.9371 1.25059 12.3174 2.49931 12.7255 3.84309C12.0098 3.88596 11.3855 3.92137 10.5803 3.96983C10.7387 2.63351 10.8934 1.32328 11.05 0.0130463C11.2196 0.00931879 11.3892 0.00559131 11.5588 0V0.00186417Z" fill="#D62121"/>
<path id="Vector_4" d="M40.0894 31.4269C41.3511 31.0989 42.4284 30.8194 43.5056 30.5398C43.5597 30.6367 43.6137 30.7355 43.6678 30.8324C43.0714 31.9842 42.0948 32.8155 40.9355 33.8853C41.4052 32.7092 41.038 32.0401 40.0894 31.4269Z" fill="#D62121"/>
<path id="Vector_5" d="M41.0865 11.4343C41.3474 13.0446 40.5963 14.0399 39.8676 15.0631C39.3811 14.6381 38.932 14.243 38.4679 13.8367C39.2637 13.1061 40.0801 12.3569 41.0865 11.4343Z" fill="#D62121"/>
<path id="Vector_6" d="M2.93144 17.0142C2.27353 17.3143 1.80386 17.5268 1.15341 17.8231C0.976348 16.7626 0.808608 15.7524 0.640869 14.7423C0.780652 14.6808 0.918569 14.6174 1.05835 14.5559C1.6678 15.3555 2.27539 16.1532 2.93144 17.0142Z" fill="#D62121"/>
</g>
</svg>
