<svg width="80" height="80" viewBox="0 0 80 80" fill="none" xmlns="http://www.w3.org/2000/svg">
<g clip-path="url(#clip0_303_3737)">
<mask id="mask0_303_3737" style="mask-type:alpha" maskUnits="userSpaceOnUse" x="0" y="0" width="80" height="80">
<path d="M40 80C62.0914 80 80 62.0914 80 40C80 17.9086 62.0914 0 40 0C17.9086 0 0 17.9086 0 40C0 62.0914 17.9086 80 40 80Z" fill="#E1E0E7"/>
</mask>
<g mask="url(#mask0_303_3737)">
<path d="M95.7162 -16.4791V83.0559H-15.7162V-16.4791C-15.534 -16.4791 -15.3528 -16.4759 -15.1705 -16.4759C9.04666 -16.4759 33.2639 -16.4759 57.481 -16.4759C70.2265 -16.4759 82.9708 -16.478 95.7162 -16.4791ZM27.8832 25.0259C27.8832 24.9615 27.8854 24.896 27.8854 24.8316C27.3146 23.8472 26.7416 22.8649 26.1752 21.8783C26.1141 21.7724 26.0911 21.6447 26.0497 21.5269C26.6117 21.3424 26.1479 21.0379 26.0911 20.8458C25.2235 17.9034 25.2966 15.0025 26.5059 12.1735C27.2306 10.4775 28.2925 10.0475 30.0147 10.6707C31.5482 11.2251 32.8131 12.1921 33.9274 13.3588C34.2974 13.7463 34.5932 14.2046 34.9228 14.6314L34.937 14.6216C34.5342 14.4142 34.1413 14.1839 33.7255 14.006C32.6941 13.5651 31.4958 13.8226 30.8202 14.6041C32.8753 14.6139 32.9834 14.6368 33.4297 15.1411C32.9048 15.4739 32.3755 15.8101 31.8461 16.1462C31.8625 16.1986 31.88 16.2499 31.8963 16.3023C33.0456 15.725 33.8892 16.2729 34.7329 17.015C34.3367 17.1329 33.9667 17.2082 33.6284 17.3544C33.289 17.5018 32.9812 17.7201 32.5523 17.97C33.063 17.9372 33.4156 17.9143 33.8128 17.8892C33.1558 18.2887 32.5643 18.6478 31.9738 19.0057C31.9924 19.0516 32.0109 19.0963 32.0295 19.1422C32.8491 18.9435 33.5793 18.3378 34.6019 18.4895C34.233 18.794 33.9514 19.0265 33.6709 19.2589C33.6207 19.2971 33.5705 19.3353 33.5203 19.3735C33.5302 19.3943 33.5411 19.4161 33.5509 19.4368C33.6131 19.403 33.6764 19.3703 33.7386 19.3364C33.8336 19.3222 33.9296 19.3081 34.0246 19.2939C34.0606 19.3266 34.0977 19.3593 34.1337 19.3932C34.0551 19.6136 33.9482 19.8286 33.9056 20.0546C33.8434 20.3864 33.8368 20.728 33.7899 21.063C33.7561 21.3042 33.6939 21.5411 33.6338 21.8336C34.2177 21.3861 34.746 20.9812 35.2753 20.5763C35.2993 20.6112 35.3244 20.6472 35.3484 20.6821C35.0712 21.0248 34.7951 21.3664 34.5179 21.7091C34.5484 21.7321 34.579 21.755 34.6096 21.7779C34.8453 21.6447 35.08 21.5127 35.3321 21.3708C34.9675 22.0169 34.6336 22.6085 34.2996 23.2C34.2963 23.2458 34.2941 23.2906 34.2909 23.3364C34.3247 23.3135 34.3585 23.2906 34.3924 23.2677C35.367 22.161 36.4486 21.1896 37.7921 20.5359C37.9023 20.4824 37.9962 20.2565 37.9885 20.1168C37.9176 18.9763 37.4876 17.9449 36.9954 16.9244C37.7866 17.6218 38.2123 18.5583 38.6368 19.5023C38.6576 18.6259 38.6947 17.7572 38.2385 16.9692H38.2352C38.4393 17.1438 38.6434 17.3195 38.8464 17.4952L38.9533 17.4679C38.7776 16.7629 38.6008 16.0578 38.4098 15.2906C38.639 15.4718 38.8311 15.6235 39.0254 15.773C39.0636 15.8134 39.1029 15.8538 39.1411 15.8941C39.1705 15.8734 39.2 15.8527 39.2284 15.8319C39.1989 15.8527 39.1694 15.8734 39.14 15.8941C39.1345 15.8396 39.1291 15.7839 39.1236 15.7293C39.0887 15.7468 39.0548 15.7643 39.0199 15.7817C38.8529 15.4379 38.687 15.093 38.5201 14.7493C38.2439 14.3847 37.9667 14.0202 37.6906 13.6557C38.4709 13.9187 39.2568 14.1708 40.0317 14.4491C40.5064 14.6194 40.9659 14.83 41.4319 15.0232C41.4265 15.0472 41.421 15.0712 41.4156 15.0952C41.4221 15.0723 41.4287 15.0494 41.4352 15.0265C41.1209 14.7427 40.8066 14.4589 40.4922 14.1752C40.4038 14.0573 40.3154 13.9394 40.2281 13.8237C40.5566 13.8456 40.9124 13.7932 41.2071 13.9023C41.9754 14.1883 42.7176 14.5441 43.4707 14.8726C43.5001 14.8464 43.5285 14.8213 43.558 14.7951C43.3855 14.4884 43.2142 14.1817 43.033 13.8598H43.403L45.4985 14.9206C45.8521 15.1902 46.2057 15.4587 46.5593 15.7282C46.579 15.7042 46.5975 15.6813 46.6172 15.6573C46.3334 15.2928 46.0497 14.9271 45.6873 14.4622C46.1894 14.6226 46.5604 14.7405 46.9315 14.8595L46.9206 14.8507C47.6802 15.3408 48.4409 15.8308 49.2005 16.3209C49.2224 16.3078 49.2453 16.2947 49.2671 16.2816C49.0238 15.9007 48.7814 15.5187 48.5381 15.1378C48.5752 15.093 48.6123 15.0483 48.6483 15.0025C49.9383 15.5023 50.9555 16.4344 52.0273 17.2813C52.06 17.3097 52.0939 17.337 52.1266 17.3653C52.1244 17.3086 52.1222 17.2518 52.1201 17.194C51.928 16.6308 51.7359 16.0677 51.5427 15.5045C51.5951 15.4685 51.6464 15.4325 51.6988 15.3965C52.2336 16.1059 52.7694 16.8153 53.3173 17.5422C54.0191 16.8022 54.8595 16.1823 55.7828 15.6638C55.4499 16.3547 55.1432 16.9921 54.8355 17.6295C54.83 17.6764 54.8246 17.7233 54.8191 17.7714C54.8497 17.7463 54.8802 17.7211 54.9108 17.696C55.4707 17.2671 56.0306 16.8382 56.5905 16.4093C56.6134 16.4377 56.6363 16.4671 56.6592 16.4955C56.2783 17.1973 55.8985 17.898 55.5176 18.5997C55.5634 18.6357 55.6093 18.6707 55.6551 18.7067C55.7599 18.6063 55.869 18.5102 55.9684 18.4044C56.6985 17.6207 57.3948 16.8033 58.1632 16.0589C59.2873 14.9686 60.513 13.9951 61.9634 13.3621C63.3943 12.7378 64.1932 13.2529 64.2827 14.8246C64.2859 14.8791 64.2881 14.9337 64.2881 14.9883C64.322 17.6055 63.5263 19.9498 61.9471 22.0278C61.5498 22.5506 61.1023 23.0341 60.6789 23.5362C60.6996 23.5591 60.7214 23.582 60.7422 23.6049C60.9943 23.439 61.2464 23.2742 61.5989 23.0428C61.2529 23.904 60.9626 24.6276 60.6418 25.4276C61.1787 25.278 61.5411 25.1765 62.0158 25.0445C61.7419 25.6262 61.4756 26.0475 61.3457 26.508C61.218 26.9632 61.2278 27.4587 61.1776 27.9356C61.2333 27.9465 61.289 27.9574 61.3457 27.9683C61.5564 27.8003 61.7681 27.6333 62.1031 27.367C62.0737 28.8677 62.2898 30.2308 61.5498 31.5503C61.4057 31.3943 61.3239 31.3233 61.2628 31.2371C60.4169 30.0398 59.5776 28.8382 58.7274 27.6442C58.6434 27.5263 58.4982 27.4521 58.3814 27.3572C58.3782 27.6617 58.4382 27.8636 58.5015 28.0644C58.866 29.218 59.2851 30.3574 59.5853 31.5274C60.0884 33.4843 60.2969 35.5285 61.3959 37.2966C61.4232 37.2911 61.4516 37.2857 61.4789 37.2802C61.4669 37.2802 61.4538 37.2759 61.4428 37.278C61.4265 37.2813 61.4101 37.289 61.3937 37.2944C61.3948 36.9211 61.4221 36.5457 61.3937 36.1746C61.3108 35.1138 61.2038 34.054 61.0947 32.8655C61.4036 33.1274 61.624 33.314 61.8161 33.4778C61.9536 33.1722 62.0835 32.8851 62.2767 32.4573C62.8835 34.2679 63.4849 35.9083 64.931 37.0914H63.7042C64.2925 38.0639 64.8131 38.9239 65.3348 39.7839C65.2966 39.821 65.2573 39.8581 65.2191 39.8952C64.5468 39.8232 64.3362 40.06 64.5173 40.6974C64.5566 40.8338 64.645 40.9561 64.7029 41.0881C65.0783 41.9471 65.4265 42.818 65.8336 43.6617C66.0486 44.108 66.2963 44.5763 66.6456 44.9146C67.5831 45.8216 68.5817 46.6663 69.5585 47.5318C70.1119 48.0229 70.3825 48.6188 70.2745 49.3664C70.2167 49.7626 70.1621 50.1599 70.1053 50.5572C70.7493 49.636 70.8715 48.6821 70.3051 47.6868C70.4928 47.6082 70.6794 47.5307 71.0156 47.3899C70.8988 47.7162 70.7896 47.9432 70.7427 48.1823C70.7165 48.3154 70.7918 48.4693 70.8224 48.6134C70.9392 48.5621 71.0941 48.5424 71.1651 48.4551C71.3976 48.1681 71.5471 47.6715 71.8232 47.594C72.3853 47.4357 72.7291 46.8573 73.3599 46.878C73.4428 46.8813 73.5673 46.7067 73.6142 46.591C73.8347 46.0453 73.1711 45.6873 73.2955 45.1394C73.3359 44.9604 73.2322 44.7487 73.1951 44.5522C73.2355 44.5424 73.2759 44.5326 73.3151 44.5228C73.1973 44.3351 73.0783 44.1484 72.9419 43.9334C73.5847 43.8145 73.6928 43.5634 73.5815 42.5954C73.7823 42.6663 73.9722 42.734 74.269 42.8387C74.1261 42.4087 74.0169 42.078 73.8761 41.6546C74.6619 42.2068 75.3594 42.7536 76.2958 42.245C75.2426 42.0027 74.1905 41.7888 73.9329 40.4999C73.9034 40.3536 73.9165 40.1986 73.91 40.0469C74.0846 40.0786 74.3847 40.0655 74.4131 40.1473C74.6117 40.7236 75.1214 40.6396 75.5307 40.6723C75.7402 40.6887 75.9695 40.4704 76.1899 40.3569C76.0644 40.1877 75.9662 39.9847 75.8079 39.8581C75.5143 39.6224 75.1858 39.4314 74.7765 39.1585C75.2633 39.0232 75.5842 38.9337 75.8865 38.8497C75.6682 38.5364 75.51 38.3094 75.2786 37.9776C75.8428 38.0562 76.2085 38.1064 76.573 38.1566C76.5861 38.1151 76.5992 38.0737 76.6123 38.0311C76.4693 37.9056 76.3263 37.7801 76.1834 37.6557C75.9116 37.4046 75.6387 37.1547 75.367 36.9048C76.4016 37.2126 76.489 37.17 76.943 36.1441C77.0096 35.9924 77.1067 35.8548 77.1896 35.7108C77.2366 35.7206 77.2824 35.7304 77.3293 35.7402C77.3512 35.9432 77.3446 36.155 77.4025 36.3482C77.4527 36.5173 77.5738 36.6658 77.6633 36.8229C78.0464 36.4988 78.0475 37.0979 78.3007 37.087C78.1883 37.2999 78.0791 37.5138 77.9634 37.7255C77.898 37.8445 77.8237 37.958 77.7539 38.0737C77.8925 38.0486 78.0311 38.0169 78.1708 38.0016C78.2843 37.9896 78.4 37.9995 78.5146 37.9995C78.5397 38.0726 78.5637 38.1468 78.5888 38.2199C78.6314 38.1151 78.674 38.0104 78.7165 37.9056C78.7536 37.9351 78.7918 37.9645 78.8289 37.994C78.5091 38.5834 78.1883 39.1716 77.8685 39.761C77.9121 39.797 77.9569 39.833 78.0005 39.869C78.3618 39.7315 78.7231 39.5951 79.14 39.4357C79.1127 40.1965 78.7001 40.6734 78.1512 41.0412C77.731 41.3228 77.6273 41.6437 77.8227 42.0093C78.5757 42.328 79.2666 42.4218 79.94 41.8237C79.9433 41.7844 79.9618 41.6404 79.9694 41.4963C80.1113 38.5135 79.8428 35.5558 79.2797 32.633C78.9643 30.9959 78.5779 29.3599 78.0595 27.7763C75.1345 18.8431 69.8063 11.702 61.9514 6.5015C56.4464 2.85621 50.364 0.818556 43.7992 0.243385C39.7162 -0.114595 35.6617 0.157166 31.6628 1.07613C20.1048 3.7337 11.4292 10.2778 5.55525 20.5479C2.87804 25.2278 1.29114 30.2832 0.694138 35.6387C0.535883 37.0576 0.519512 38.4928 0.458393 39.9225C0.454027 40.0371 0.594818 40.1888 0.707233 40.2652C0.784723 40.3176 0.92988 40.2685 1.04448 40.2652C1.01829 40.1342 0.99209 40.0033 0.964806 39.8734C0.935337 39.7348 0.903687 39.5962 0.855665 39.3757C1.90341 40.2019 2.29086 40.2674 2.89332 39.7424C2.44912 39.6126 2.0202 39.5111 1.61201 39.3539C1.46903 39.2982 1.34571 39.1214 1.27476 38.9697C1.17763 38.7613 1.11214 38.5277 1.08268 38.2985C1.05758 38.101 1.10451 37.8958 1.11869 37.6939C1.39264 37.8041 1.49632 37.9602 1.63929 38.0595C1.82156 38.185 2.02674 38.2898 2.23738 38.3596C2.6794 38.5059 2.6292 38.0584 2.76344 37.8576C2.78963 37.8183 2.58663 37.6033 2.46658 37.4952C2.2483 37.301 2.01255 37.1263 1.7277 36.8982C2.00055 36.7935 2.15771 36.7334 2.34871 36.6603C2.20683 36.3907 2.08568 36.1604 1.9438 35.8887C2.16972 35.8276 2.34762 35.7795 2.58554 35.7151C2.42511 35.3724 2.28541 35.0756 2.14898 34.7874C3.56999 35.0909 3.22074 33.7714 3.68895 33.1514C3.77408 33.719 3.83957 34.2505 3.94107 34.7743C3.96399 34.8944 4.11242 34.9905 4.2041 35.0985C4.23138 35.1214 4.25758 35.1454 4.28268 35.1694C4.20191 35.4085 4.12006 35.6475 4.01528 35.9574C4.35798 35.9356 4.72906 35.9116 5.22565 35.8799C4.92224 36.4649 4.64393 37.0019 4.33834 37.5913C4.79891 37.4974 5.26276 37.4035 5.89468 37.2748C5.61965 37.5814 5.4221 37.7866 5.24093 38.0049C4.98118 38.3214 4.72579 38.6423 4.4835 38.9719C4.38527 39.105 4.24229 39.2906 4.27504 39.4106C4.30778 39.5329 4.52279 39.6224 4.67231 39.6933C5.26494 39.9738 5.82701 39.6136 6.29741 39.5809C6.48622 39.9127 6.64229 40.1866 6.8191 40.4977C6.62265 40.9372 6.64011 41.3421 6.87149 41.7124C6.79073 42.0879 6.58772 42.4709 6.69905 42.6205C7.01119 43.0385 6.8573 43.2207 6.5146 43.4587C6.37818 43.5525 6.32579 43.7664 6.21665 43.9574C6.4764 44.0065 6.6161 44.0327 6.84639 44.0764C6.62483 44.2663 6.48186 44.3896 6.38363 44.4737C6.48732 44.6952 6.57572 44.8829 6.69796 45.1438C6.87585 45.1438 7.15089 45.1874 7.40628 45.1362C8.25976 44.9626 8.10696 45.9394 8.60901 46.1719C8.69086 46.2101 8.68322 46.4437 8.71924 46.5855C8.67886 46.6281 8.63848 46.6718 8.59809 46.7143C8.79346 46.8278 8.98772 46.9413 9.18309 47.0537C8.90587 47.4903 8.72579 47.0407 8.50969 46.973C8.28813 46.9042 8.0764 46.8005 7.8603 46.7132C7.83193 46.663 7.80246 46.6128 7.77408 46.5626C7.75335 46.5855 7.73261 46.6085 7.71187 46.6314C7.76426 46.6554 7.81665 46.6794 7.86904 46.7034C8.1779 46.9413 7.97381 47.0974 7.76535 47.2087C7.50123 47.3506 7.21528 47.4532 6.92933 47.5754C6.95007 47.6016 7.01337 47.6835 7.08868 47.7795C6.95553 47.845 6.82674 47.9083 6.5659 48.0371C6.95662 47.9749 7.19564 47.9378 7.43356 47.8996C7.44011 47.9367 7.44666 47.9749 7.43793 47.9236C7.46521 47.9684 7.44557 47.9367 7.42702 47.905C7.53179 47.8046 7.77372 47.8887 8.1528 48.1572C8.04148 48.3896 7.83411 48.6243 7.84066 48.8524C7.85157 49.254 7.39427 49.8477 7.00464 49.7746C6.62483 49.7026 6.39782 49.8346 6.26904 50.2461C6.38581 50.293 6.49496 50.3782 6.59755 50.3705C7.1498 50.3291 7.70096 50.2679 8.25212 50.2068C8.42565 50.1883 8.59809 50.1293 8.77163 50.1272C9.36863 50.1173 9.96563 50.1348 10.5604 50.1119C10.6314 50.1086 10.6947 49.9165 10.7613 49.8117C10.2134 49.9121 9.73534 50.0977 9.3468 49.6447C9.22783 49.5061 9.22128 49.2726 9.16235 49.0816C9.33588 49.2093 9.40464 49.409 9.52579 49.4483C9.64693 49.4876 9.87613 49.4112 9.95908 49.3064C10.1915 49.0139 10.7089 48.7945 10.2319 48.2587C10.1119 48.1233 10.2756 47.7348 10.3083 47.463C11.0745 47.8985 11.8407 48.334 12.6057 48.7694C12.9266 49.0565 13.2475 49.3446 13.5782 49.6415C13.4658 49.7484 13.3894 49.8216 13.2704 49.934C13.7255 50.1348 14.125 50.3116 14.6368 50.5375C12.5064 50.8442 10.5528 51.1269 8.61119 51.4063C8.6352 51.4543 8.70287 51.5853 8.7749 51.7282C7.92906 52.382 6.77981 52.4857 6.06931 53.3075C6.388 53.5924 6.65648 53.8314 6.92497 54.0715C6.88131 54.1435 6.83766 54.2156 6.794 54.2865C6.05839 54.0005 5.32169 53.7135 4.57626 53.4243C4.58172 53.397 4.53152 53.5302 4.55444 53.5443C5.1056 53.8892 5.62838 54.3727 6.23083 54.5179C6.95553 54.6925 7.63766 54.806 8.10369 55.4521C8.2925 55.713 8.51296 55.9509 8.71706 56.2008C9.35444 56.9801 9.99073 57.7604 10.7285 58.663C9.69823 58.7111 8.85021 58.7514 8.00328 58.7907C8 58.8344 7.99673 58.8791 7.99345 58.9228C8.12115 59.0155 8.24884 59.1083 8.40491 59.2218C7.64639 59.7064 6.93479 60.1615 6.2232 60.6166C6.25376 60.6712 6.28322 60.7258 6.31378 60.7804C7.40519 59.9596 8.64284 59.5667 10.0409 59.5241C9.89687 59.3648 9.81174 59.2698 9.62511 59.0636C10.3127 59.1291 10.8617 59.1814 11.4903 59.2415C10.1228 56.9801 8.23793 55.2098 6.59864 53.2082C9.38063 51.8199 12.2478 51.093 15.3954 51.1127C14.5768 50.0791 13.7528 49.2267 12.7378 48.5708C12.2292 48.2445 11.7272 47.9072 11.2098 47.5962C10.8606 47.3855 10.4873 47.2164 10.1337 47.0134C10.1053 46.997 10.1424 46.8649 10.149 46.7874C11.0352 46.854 11.9225 46.9206 12.8087 46.9872C12.8229 46.9359 12.836 46.8846 12.8502 46.8333C11.7239 46.4939 10.5986 46.1544 9.43302 45.8041C11.8636 44.9484 14.3258 44.9452 16.9714 45.4625C16.7651 45.3053 16.7018 45.242 16.6265 45.2016C15.5929 44.6385 14.5572 44.0797 13.5225 43.5187C13.4527 43.487 13.3828 43.4565 13.313 43.4248L13.3261 43.4357C12.7072 43.2382 12.0895 43.0407 11.3332 42.7984C11.7282 42.687 11.9978 42.6117 12.2663 42.5364C14.7012 42.1162 17.1372 41.695 19.6813 41.2562C19.1149 40.9724 18.6106 40.7192 18.1064 40.4671C17.7353 40.2576 17.3817 40.0065 16.991 39.8461C15.7719 39.3462 14.5386 38.8813 13.1711 38.3476C14.1119 38.1217 14.9479 37.922 15.7828 37.7211C16.5784 37.6382 17.373 37.5553 18.3258 37.457C17.9176 37.2049 17.6535 37.0434 17.3905 36.8808C17.397 36.8491 17.4025 36.8164 17.409 36.7847H19.5744C19.1149 36.4529 18.7896 36.2183 18.4644 35.9825C17.266 35.3244 16.0666 34.6663 14.878 34.0136C15.0145 33.9744 15.1967 33.9209 15.379 33.8674C17.17 33.6447 18.9566 33.6611 20.7378 34.0126C20.7553 33.9634 20.7738 33.9143 20.7913 33.8652C20.2347 33.5149 19.678 33.1634 19.1203 32.8131C18.4633 32.4966 17.8074 32.179 17.1503 31.8625C17.158 31.8286 17.1645 31.7948 17.1722 31.761L18.4993 31.5951C19.1771 31.5907 19.8548 31.5864 20.5337 31.582C20.5654 31.5842 20.5959 31.5864 20.6276 31.5875C21.8707 31.7686 23.1138 31.9487 24.358 32.1299C24.3907 32.1015 24.4246 32.0731 24.4573 32.0447C24.0557 31.6879 23.6551 31.3321 23.2535 30.9752C22.4327 29.982 21.3905 29.2562 20.3351 28.5446C21.6786 28.4202 22.9457 28.7705 24.1899 29.2551C24.2117 29.2071 24.2325 29.1591 24.2543 29.1111C23.7348 28.7083 23.2164 28.3056 22.6969 27.9029L22.5932 27.8134L22.6041 27.8232C22.4699 27.7206 22.3367 27.618 22.0835 27.4237C22.5353 27.403 22.8518 27.3888 23.1673 27.3746C23.2917 27.3823 23.415 27.3888 23.5394 27.3965C23.5274 27.3965 23.5143 27.3965 23.5023 27.3975C23.7457 27.4106 23.9902 27.4139 24.2314 27.439C24.5686 27.4739 24.6068 27.3462 24.4442 27.0876C23.9378 26.2745 23.4314 25.4614 22.9239 24.6472L22.9315 24.6559C23.0352 24.5992 23.1378 24.5413 23.2415 24.4846C23.6366 24.6254 24.0295 24.7738 24.4278 24.9037C24.7815 25.0194 25.1416 25.1154 25.4985 25.2213C25.8543 25.5585 26.2188 25.887 26.5637 26.2363C27.0723 26.7503 27.3637 26.7765 27.9891 26.2876C27.6082 25.5727 27.2229 24.8491 26.8377 24.1244C26.8649 24.1015 26.8911 24.0775 26.9173 24.0546C27.2218 24.3296 27.5252 24.6057 27.8297 24.8808C27.8527 24.9233 27.8767 24.967 27.8996 25.0096C27.9443 25.0139 27.9891 25.0194 28.0327 25.0237C28.0164 24.9975 28 24.9714 27.9836 24.9462C27.9498 24.9692 27.916 24.9932 27.8854 25.015L27.8832 25.0259ZM6.21883 45.8434C6.01255 45.9733 5.80628 46.1031 5.60655 46.2286C5.89359 46.3411 6.22429 46.4698 6.49605 46.5757C6.41528 46.3651 6.31487 46.0999 6.21446 45.8357C6.24284 45.8357 6.27122 45.8357 6.29959 45.8357C6.29305 45.8183 6.28759 45.7997 6.28104 45.7823C6.2603 45.803 6.24066 45.8226 6.21992 45.8434H6.21883ZM65.8172 55.5536L65.8434 55.5809C65.8325 55.5733 65.8227 55.5656 65.8117 55.5591C65.707 55.2546 65.6033 54.9501 65.4985 54.6456C65.588 54.5473 65.6775 54.4502 65.767 54.352C66.2931 54.6947 66.9697 54.6652 67.4336 54.2559C67.2633 54.2188 67.1149 54.1872 66.9675 54.1544C68.048 53.5443 68.9364 52.74 69.5302 51.6366C69.5662 51.582 69.6022 51.5285 69.6382 51.4739L69.54 51.3899C69.5116 51.4477 69.4843 51.5056 69.4559 51.5634C68.907 52.0644 68.3929 52.6134 67.797 53.0499C67.3441 53.3817 66.8006 53.7222 66.269 53.7757C65.7714 53.8259 65.5236 54.0617 65.2267 54.3487C64.9452 54.6205 64.6756 54.9326 64.3405 55.1181C62.0518 56.382 59.6628 56.9342 57.0936 56.0327C56.8808 55.9585 56.6461 55.9443 56.4213 55.9029C56.1244 55.7184 55.8276 55.534 55.5318 55.3506C55.9269 56.3547 56.6887 56.967 57.5825 57.3817C58.6619 57.8827 59.7839 58.2963 60.8939 58.7307C62.4175 59.3266 63.9476 59.9072 65.5815 60.5348C63.4205 61.5051 61.4734 62.5397 60.0491 64.3689C62.8093 63.1694 65.4145 63.9956 68.0196 64.895C67.9673 64.8153 67.9105 64.7705 67.8472 64.7389C65.7572 63.6889 63.5995 63.0417 61.2355 63.6464L61.2038 63.6115C61.6382 63.2611 62.0442 62.8638 62.5146 62.5703C63.6442 61.8641 64.8044 61.2071 65.9689 60.5195C64.9823 60.0295 63.9662 59.5252 62.949 59.0199C62.9588 58.9381 62.9697 58.8551 62.9795 58.7733C63.4379 58.7143 63.8963 58.6554 64.3885 58.5921C64.3547 58.7569 64.3307 58.8759 64.3111 58.973C64.5141 58.973 64.7007 58.9588 64.884 58.9773C65.0478 58.9937 65.2082 59.0461 65.3708 59.0821C65.3403 58.9042 65.3359 58.7165 65.2726 58.5506C65.1667 58.2745 65.0248 58.0115 64.8971 57.7441C64.9332 57.7255 64.9692 57.707 65.0063 57.6895C64.8568 57.6415 64.7083 57.5935 64.5785 57.552C64.5446 57.1918 64.5664 56.8524 64.4726 56.5468C64.3242 56.0622 64.1212 56.0186 63.7326 56.3329C63.1051 56.8415 62.4862 57.3599 61.8641 57.8739C61.887 57.9198 61.91 57.9656 61.9329 58.0115C62.5179 57.8161 63.1018 57.6196 63.6868 57.4243C63.7326 57.4679 63.7785 57.5116 63.8232 57.5563C63.4609 58.0126 63.0985 58.4698 62.6958 58.9773C61.3031 58.4458 59.9465 57.9416 58.6063 57.397C58.4404 57.3293 58.3618 57.0456 58.2428 56.8622C60.5817 57.0674 62.7427 56.466 64.8022 55.4095C65.1416 55.4576 65.4799 55.5067 65.8194 55.5547L65.8172 55.5536ZM72.9037 49.0117C72.4966 48.9528 72.0775 48.8491 71.8494 49.3359C71.3845 49.0074 70.7482 49.6447 70.6663 50.424C70.89 50.4928 71.1061 50.5604 71.3441 50.6336C71.4434 50.3509 71.6824 50.388 71.9454 50.5615C72.3744 50.8464 72.8131 51.0166 73.3555 50.9119C73.5705 50.8704 73.8969 51.1181 73.8805 50.6816C73.8729 50.4884 73.6775 50.3029 73.5443 50.0759C73.4559 50.3487 73.3828 50.6019 73.373 50.5997C73.0499 50.519 72.6778 50.484 72.4311 50.2898C72.239 50.1392 72.203 49.7877 72.1561 49.6688C72.4824 49.3752 72.6898 49.1896 72.8971 49.0041C72.9604 48.9735 73.0237 48.943 73.087 48.9135C73.0761 48.9015 73.0663 48.8884 73.0554 48.8764C73.0052 48.9222 72.955 48.967 72.9048 49.0128L72.9037 49.0117ZM37.7954 34.4448C39.2262 34.519 40.657 34.6445 42.0879 34.6543C43.427 34.6641 44.7083 34.3192 45.9143 33.7211C46.8562 33.2551 47.7828 32.752 48.7487 32.3438C49.8423 31.881 50.9664 31.8134 52.06 32.4049C52.0982 32.4257 52.1604 32.4027 52.2292 32.3995C52.3591 31.4849 52.1135 30.6674 51.6606 29.898C50.842 28.5064 49.6993 27.4292 48.3645 26.5473C48.0862 26.3629 47.7643 26.2439 47.463 26.0955C47.4608 26.0606 47.4576 26.0246 47.4554 25.9896C47.439 25.9929 47.4216 25.9962 47.4052 25.9995C47.4292 26.0289 47.4532 26.0573 47.4772 26.0868C48.0851 26.7885 48.7989 27.4128 49.2027 28.3383C48.7422 28.1408 48.358 27.976 47.9323 27.7948C48.4617 28.49 48.931 29.1067 49.4003 29.7233C49.3555 29.7593 49.3119 29.7954 49.2671 29.8314C47.6977 28.7935 46.089 27.8363 44.2554 27.3331C44.1506 27.3233 44.0458 27.3146 43.94 27.3048C43.9378 27.3211 43.9356 27.3375 43.9323 27.355C44.0098 27.3834 44.0862 27.4128 44.1637 27.4412C44.7116 27.9127 45.2595 28.3842 45.8074 28.8557C45.7823 28.8829 45.7572 28.9102 45.7332 28.9375C44.9921 28.6898 44.251 28.4431 43.3812 28.1517C44.083 28.764 44.6592 29.2671 45.2355 29.7703C44.5774 29.6022 44.0229 29.3064 43.4401 29.0816C42.8628 28.8589 42.2581 28.7061 41.6666 28.5239C41.6666 28.5479 41.6644 28.5708 41.6633 28.5948C42.376 29.1012 43.0887 29.6087 43.9182 30.197C42.5714 29.8346 41.3915 29.5171 40.2106 29.2005C40.1081 29.1874 40.0055 29.1744 39.9029 29.1613C39.9007 29.1874 39.8985 29.2136 39.8963 29.2398C39.9836 29.2464 40.0699 29.254 40.1572 29.2606C40.9048 29.7965 41.6513 30.3323 42.3989 30.8682C42.3662 30.9239 42.3334 30.9784 42.3018 31.0341C40.9179 30.4022 39.5252 29.8052 37.9394 29.7975C38.9664 30.3171 39.952 30.8158 40.9375 31.3146C40.9201 31.3615 40.9026 31.4074 40.8851 31.4543C40.7171 31.427 40.5479 31.4008 40.3798 31.3735C39.2153 31.1847 38.0584 31.1825 36.9441 31.6147C36.0175 31.9749 35.1007 32.3634 34.1926 32.7694C32.8295 33.3784 31.4783 34.0125 30.0158 34.6849C31.6038 34.8889 33.0958 34.8224 34.5157 35.2819C31.0046 35.5907 27.6475 36.4049 24.5108 38.0377C26.0387 37.8423 27.5514 37.5804 29.0761 37.4723C30.627 37.3621 32.1724 37.5585 33.6317 37.8958C31.7468 38.0704 29.8139 38.2101 27.893 38.4404C26.1533 38.6488 23.3288 39.6497 22.3247 40.3514C24.4082 40.072 26.3738 40.0207 28.3263 40.4104C25.5127 40.8 22.8431 41.5989 20.3547 42.9828C22.2221 42.6347 24.0906 42.3891 25.9995 42.5615C23.6999 43.2284 21.4821 44.0426 19.5918 45.3861C21.0783 45.0434 22.6172 44.6647 24.167 44.3416C24.9593 44.1757 25.7714 44.0808 26.579 44.0098C27.1629 43.9585 27.7555 44 28.3449 44C28.3503 43.9116 28.3547 43.8232 28.3602 43.7337C27.5569 43.6224 26.7525 43.5111 25.9493 43.3986C25.9438 43.3593 25.9394 43.319 25.934 43.2797C27.5918 43.0963 29.2508 42.9119 30.9086 42.7285C30.9119 42.7045 30.9151 42.6794 30.9184 42.6554C29.373 42.3924 27.8276 42.1293 26.2821 41.8663C26.2821 41.8379 26.281 41.8085 26.2799 41.7801C28.6985 41.504 31.1171 41.2278 33.5356 40.9517C33.54 40.9146 33.5443 40.8775 33.5487 40.8415C31.9105 40.4671 30.2734 40.0928 28.6352 39.7184L28.6396 39.5285C32.036 39.3091 35.4325 39.0887 38.8289 38.8693C38.8355 38.8464 38.8431 38.8224 38.8497 38.7995C36.9779 38.1141 35.1072 37.4297 33.2355 36.7443C33.2398 36.6854 33.2453 36.6276 33.2497 36.5686C34.3323 36.5686 35.415 36.5457 36.4977 36.5752C37.5618 36.6035 38.6237 36.6832 39.6868 36.7411C39.6966 36.7072 39.7064 36.6734 39.7173 36.6385C38.8551 36.2521 37.9929 35.8647 37.1307 35.4783C38.0649 35.5438 38.9894 35.6988 39.9192 35.8243C40.2827 35.8734 40.6548 35.8559 41.0205 35.869C40.9823 35.8941 40.943 35.9192 40.9048 35.9443C40.9441 35.9585 40.9834 35.9738 41.0216 35.988C41.0194 35.9476 41.0161 35.9072 41.0139 35.8679C40.5152 35.6333 40.0196 35.3888 39.5154 35.1673C38.9512 34.9206 38.3771 34.6958 37.8074 34.4611L37.7976 34.4448H37.7954ZM28.4813 44.2936C28.4813 44.3427 28.4835 44.3929 28.4846 44.442C36.3089 44.1375 43.8985 45.361 51.4172 47.9334C51.1574 48.1244 50.9675 48.382 50.7689 48.3896C50.1173 48.4136 49.4636 48.3394 48.8098 48.3154C47.0046 48.2488 45.1995 48.1899 43.3943 48.1277C43.3801 48.1724 43.3659 48.2183 43.3517 48.263C44.9921 49.302 46.7875 50.0584 48.6352 50.9577C42.794 51.2022 37.2464 52.1965 31.9356 54.3476C32.2052 54.3345 32.4606 54.2625 32.7181 54.1959C34.9075 53.6295 37.0729 52.9342 39.2917 52.5304C42.0016 52.0371 44.7509 51.7446 47.4936 51.4587C48.4442 51.3593 49.4079 51.1607 50.3989 51.5001C53.7386 52.6407 57.1449 53.5061 60.7061 53.5302C61.767 53.5378 62.8289 53.469 63.9476 53.433C63.6016 52.8382 63.4172 52.2554 63.0265 51.9007C62.1337 51.0919 62.2046 50.1195 62.4273 49.1383C62.5364 48.6559 62.8049 48.1419 63.1553 47.7981C63.8723 47.0952 63.9946 46.7896 63.4117 45.9547C62.7689 45.0314 62.1064 44.1157 61.3784 43.26C60.1222 41.7855 59.2 41.6262 57.4505 42.4633C57.4014 42.4862 57.3544 42.5146 57.3064 42.5397C55.1651 43.6366 53.4145 45.1984 51.9727 47.105C51.6944 47.4729 51.4794 47.4958 51.0854 47.3539C47.713 46.1457 44.2336 45.3566 40.6909 44.8677C38.8038 44.6068 36.9015 44.3984 34.9992 44.3154C32.8306 44.2216 30.6543 44.2936 28.4813 44.2936ZM56.7094 35.9596C56.7225 35.8581 56.7367 35.7566 56.7487 35.6551C56.7618 35.5471 56.7716 35.4379 56.788 35.331C57.086 33.3042 56.8033 31.3932 55.6551 29.6546C53.9165 27.0221 51.5951 24.9801 49.0619 23.1542C49.0358 23.1345 48.9681 23.1727 48.8851 23.1913C50.9075 25.5181 52.3754 28.1506 53.5694 30.949C53.6393 31.1138 53.7233 31.2862 53.8445 31.4128C55.1116 32.7247 55.9858 34.2723 56.7094 35.9596ZM25.5771 46.8453C25.719 46.8715 25.863 46.9272 26.0027 46.9195C27.5209 46.8355 29.0368 46.6794 30.5561 46.6608C34.7394 46.6074 38.9097 46.7875 43.0439 47.5143C44.1921 47.7162 45.3643 47.7883 46.5266 47.9083C46.6128 47.9171 46.7089 47.8276 46.9042 47.7326C39.7741 46.0726 32.704 45.9689 25.5782 46.8453H25.5771ZM46.9228 35.7937L46.7449 35.8254C46.7449 36.095 46.6729 36.3885 46.7558 36.6286C47.3626 38.3847 50.2145 39.176 51.6999 37.9591C49.5378 38.4338 47.8701 37.899 46.9217 35.7926L46.9228 35.7937ZM63.4663 67.0112C64.4508 66.4644 65.2671 66.0115 66.0835 65.5585C66.0518 65.4985 66.0213 65.4385 65.9896 65.3795C65.0259 65.8412 64.0622 66.3029 63.0079 66.8082C64.1812 68.0076 65.4854 68.7432 66.8289 69.4177C66.9184 69.4625 67.081 69.3588 67.2862 69.3042C65.9951 68.5293 64.8033 67.8145 63.4674 67.0112H63.4663ZM11.272 62.3891C10.3629 61.7932 8.10805 61.5553 7.01228 61.958C7.57872 62.018 8.15062 61.9885 8.71706 62.0267C9.2573 62.0638 9.79209 62.1719 10.3302 62.2483L10.2996 62.3869C9.52361 62.8256 8.74762 63.2633 7.97163 63.702C7.96617 63.7533 7.96071 63.8057 7.95635 63.857C8.13643 63.8789 8.35689 63.9793 8.49005 63.9105C9.40574 63.4357 10.3029 62.925 11.272 62.3902V62.3891ZM1.09905 44.3689C1.51378 44.4256 1.75935 44.4595 2.00491 44.4933C1.89905 44.1986 1.75062 44.0273 1.59018 43.869C1.36644 43.6497 1.10669 43.4598 0.911327 43.2186C0.795637 43.0767 0.773809 42.8584 0.710506 42.675C0.61883 42.6958 0.52606 42.7165 0.434381 42.7372C0.553345 43.6082 0.672308 44.4791 0.797819 45.3894C1.0292 45.3381 1.194 45.301 1.25512 45.2879C1.19946 44.9593 1.15253 44.6778 1.10014 44.3689H1.09905ZM64.8458 49.6055C64.7858 50.2614 64.884 50.7121 65.3894 50.9643C65.8881 51.2131 66.5222 51.0428 67.0472 50.4993C66.1042 50.7503 65.3272 50.6881 64.8458 49.6066V49.6055ZM1.39154 46.4404C1.66549 46.4044 1.92852 46.3705 2.19155 46.3367C2.19591 46.2647 2.20028 46.1915 2.20464 46.1195C1.78882 45.9623 1.3719 45.8052 0.956074 45.648C0.894955 45.7037 0.833838 45.7583 0.772718 45.8139C0.917875 46.1097 1.06194 46.4055 1.2071 46.7012C1.28022 46.5986 1.35225 46.496 1.39154 46.4404ZM70.6041 52.8939C71.2066 52.597 71.7261 52.3416 72.3187 52.0502C71.6191 51.6715 70.6783 52.1408 70.6041 52.8939ZM5.77572 55.8472C5.6262 55.8625 5.36208 55.928 5.1056 55.9029C4.83929 55.8767 4.58172 55.7621 4.28814 55.6769C4.35289 55.8988 4.64466 56.1575 5.16344 56.4529C5.39919 56.2194 5.61856 56.0022 5.77463 55.8483L5.77572 55.8472ZM79.582 45.9907C78.8289 45.9132 78.6412 46.1031 78.6761 46.7252C78.9239 46.7929 79.1411 46.8529 79.4216 46.9304C79.4761 46.6139 79.5285 46.304 79.582 45.9907ZM50.4338 33.886C50.2319 34.1774 50.0038 34.3694 50.0377 34.4906C50.0857 34.663 50.3051 34.8453 50.4884 34.8988C50.5724 34.9228 50.8518 34.6467 50.8464 34.5146C50.8398 34.3422 50.6379 34.1773 50.4338 33.887V33.886ZM4.40273 52.3176C4.85457 52.6155 5.26712 52.8873 5.78445 53.2278C5.4603 52.3012 5.04557 52.0393 4.40273 52.3176ZM67.116 55.5416C67.1476 55.4936 67.1793 55.4456 67.212 55.3975C66.8442 55.1465 66.4764 54.8944 66.1086 54.6434C66.0682 54.7056 66.0267 54.7667 65.9864 54.8289C66.3629 55.0668 66.7405 55.3037 67.1171 55.5416H67.116ZM76.1703 56.2085C75.7785 56.3045 75.4718 56.3798 75.1356 56.4628C75.4892 56.9102 75.7708 56.8469 76.1703 56.2085ZM4.66467 46.1937C4.9146 46.2155 5.10232 46.2319 5.29004 46.2494C5.30969 46.2156 5.32824 46.1817 5.34789 46.1479C5.11105 46.0311 4.87422 45.9154 4.66467 45.8117V46.1937ZM4.91351 51.857C4.9277 51.821 4.94298 51.785 4.95716 51.749C4.75635 51.5351 4.55553 51.3212 4.24775 50.9937C4.26631 51.2644 4.22156 51.4652 4.29468 51.5252C4.47258 51.6704 4.70396 51.7512 4.91351 51.8581V51.857ZM72.633 54.0246C72.6374 53.9853 72.6418 53.9471 72.6472 53.9078H72.3493C72.3809 53.7168 72.4137 53.5269 72.4693 53.1918C72.2696 53.4974 72.1561 53.6698 71.9815 53.9361C72.2303 53.97 72.4322 53.9973 72.633 54.0246ZM78.2352 40.7738C78.2243 40.7629 78.2145 40.7443 78.2036 40.7432C78.1926 40.7432 78.1795 40.7596 78.1675 40.7684C78.1785 40.7793 78.1883 40.7978 78.1992 40.7989C78.2101 40.7989 78.2232 40.7825 78.2352 40.7738ZM19.355 45.5465C19.3484 45.5585 19.3342 45.5738 19.3375 45.5804C19.3441 45.5945 19.3604 45.6055 19.3724 45.6175C19.379 45.5945 19.3855 45.5705 19.3921 45.5476C19.3801 45.5476 19.367 45.5476 19.355 45.5476V45.5465Z" fill="#333333"/>
<path d="M76.1801 37.6589C76.3231 37.7844 76.466 37.91 76.609 38.0344C76.5959 38.0759 76.5828 38.1173 76.5697 38.1599C76.2041 38.1097 75.8396 38.0584 75.2753 37.9809C75.5056 38.3116 75.6649 38.5397 75.8832 38.8529C75.5809 38.937 75.2611 39.0265 74.7733 39.1618C75.1814 39.4347 75.511 39.6256 75.8046 39.8614C75.9629 39.9891 76.0611 40.1921 76.1866 40.3602C75.9662 40.4726 75.7381 40.692 75.5274 40.6756C75.1181 40.6428 74.6085 40.728 74.4098 40.1506C74.3814 40.0688 74.0813 40.0808 73.9067 40.0502C73.9132 40.2008 73.9001 40.3569 73.9296 40.5031C74.1872 41.7921 75.2393 42.006 76.2925 42.2483C75.3561 42.7569 74.6587 42.2101 73.8728 41.6578C74.0136 42.0813 74.1228 42.412 74.2658 42.842C73.9689 42.7362 73.779 42.6696 73.5782 42.5986C73.6884 43.5667 73.5804 43.8177 72.9386 43.9367C73.075 44.1517 73.1929 44.3394 73.3119 44.5261C73.2715 44.5359 73.2311 44.5457 73.1918 44.5555C73.2289 44.752 73.3326 44.9637 73.2922 45.1427C73.1678 45.6906 73.8314 46.0486 73.6109 46.5943C73.564 46.71 73.4407 46.8846 73.3566 46.8813C72.7258 46.8606 72.3809 47.439 71.8199 47.5973C71.5438 47.6748 71.3943 48.1714 71.1618 48.4584C71.0909 48.5468 70.9359 48.5664 70.8191 48.6166C70.7896 48.4726 70.7132 48.3187 70.7394 48.1855C70.7864 47.9465 70.8955 47.7195 71.0123 47.3932C70.6761 47.5329 70.4895 47.6115 70.3018 47.6889C70.0475 47.4117 69.8095 47.1192 69.5378 46.8628C68.6025 45.9831 67.654 45.1165 66.7132 44.2423C66.6619 44.1943 66.6227 44.1255 66.5986 44.0589C66.1992 42.9239 65.803 41.7866 65.4079 40.657C66.0267 40.5795 66.734 40.49 67.6267 40.3776C67.1574 39.6813 66.782 39.1247 66.3793 38.5266C66.9457 38.6401 67.4674 38.7449 68.1201 38.8759C67.94 38.5801 67.8559 38.376 67.7162 38.2243C67.224 37.6917 66.7405 37.146 66.2046 36.6592C64.4813 35.0941 63.6737 33.1569 63.7544 30.8398C63.7697 30.4011 63.8134 29.9634 63.8439 29.5258C63.8155 29.5127 63.7872 29.5007 63.7588 29.4876C63.4379 30.0344 63.1171 30.5812 62.7329 31.2371C62.4808 29.1885 63.2295 27.5525 64.2958 25.9067C63.773 26.0322 63.3408 26.1359 62.9075 26.2396C62.8737 26.2079 62.8398 26.1763 62.8071 26.1446C63.3997 25.564 63.9935 24.9844 64.6428 24.3482C63.8221 24.4126 63.0734 24.4715 62.3029 24.5326C62.3258 24.4442 62.328 24.3864 62.3542 24.3438C62.5539 24.0186 62.7405 23.6846 62.9621 23.3757C64.2685 21.5607 65.1176 19.5591 65.4265 17.3402C65.6207 15.9443 65.6622 14.5473 65.2442 13.182C64.8764 11.9804 63.9913 11.4674 62.7634 11.7228C62.269 11.8254 61.7757 11.9684 61.3042 12.1517C59.1487 12.9921 57.2093 14.2319 55.2808 15.4827C54.5735 15.9411 53.9241 16.489 53.2464 16.9975C52.8742 16.5053 52.5522 15.9945 52.1452 15.5623C51.6813 15.0701 51.1432 14.6478 50.6379 14.1959L50.627 14.1752L50.6303 14.1905L51.4925 16.2096C51.4456 16.2478 51.3997 16.2849 51.3528 16.3231C50.233 15.5951 49.1645 14.7678 47.6911 14.3847C47.9498 14.7645 48.1211 15.0177 48.2925 15.2699C48.2652 15.307 48.2379 15.3441 48.2106 15.3812C47.7795 15.2044 47.3495 15.0265 46.9184 14.8497L46.9293 14.8584C46.4011 14.6041 45.8729 14.3487 45.2944 14.0704C45.385 14.4502 45.4407 14.6849 45.4963 14.9184C44.7978 14.5648 44.0993 14.2112 43.4019 13.8587C43.0909 13.7004 42.7776 13.5422 42.4644 13.3839C42.4502 13.4188 42.436 13.4548 42.4218 13.4898C42.5943 13.6709 42.7667 13.8521 42.9392 14.0333C42.8999 14.0857 42.8617 14.137 42.8224 14.1894C42.6347 14.1795 42.4306 14.2156 42.2636 14.1512C41.4177 13.8281 40.5806 13.4789 39.7402 13.1394C39.7075 13.2016 39.6759 13.2638 39.6431 13.3261C39.8374 13.4898 40.0306 13.6546 40.2248 13.8183C40.3132 13.9362 40.4016 14.054 40.4879 14.1708C40.2368 14.1643 39.9629 14.2221 39.7402 14.1402C38.8922 13.8303 38.0617 13.4756 37.2246 13.1372C37.194 13.1951 37.1645 13.254 37.134 13.3119C37.3184 13.4254 37.504 13.5378 37.6884 13.6513C37.9645 14.0158 38.2417 14.3804 38.5179 14.7449C38.1948 14.6194 37.8205 14.5604 37.5574 14.3574C36.5501 13.5804 35.5951 12.7356 34.591 11.9542C32.9157 10.6521 31.1258 9.54543 29.039 9.02265C27.0941 8.53479 25.9962 9.05867 25.1525 10.8649C24.3023 12.6865 23.9389 14.6281 23.8025 16.6156C23.5951 19.6355 24.1681 22.5091 25.4963 25.2311C25.1394 25.1263 24.7793 25.0303 24.4256 24.9135C24.0273 24.7825 23.6344 24.6352 23.2393 24.4944C23.0494 24.4027 22.8584 24.3111 22.6674 24.2194C22.6117 24.2881 22.5561 24.358 22.4993 24.4267C22.6423 24.5064 22.7853 24.5861 22.9293 24.6668L22.9217 24.6581C23.4281 25.4712 23.9345 26.2843 24.442 27.0985C24.6046 27.3572 24.5653 27.4859 24.2292 27.4499C23.9869 27.4248 23.7435 27.4216 23.5001 27.4085L23.5372 27.4074C23.4128 27.3997 23.2895 27.3932 23.1662 27.3855C22.5932 27.3495 22.0191 27.3146 21.445 27.2786C21.4407 27.3222 21.4352 27.367 21.4308 27.4106C21.8216 27.5514 22.2112 27.6933 22.6019 27.8341L22.591 27.8243C22.6259 27.8538 22.6598 27.8843 22.6947 27.9138C23.2142 28.3165 23.7326 28.7192 24.2521 29.122C24.2303 29.17 24.2096 29.218 24.1877 29.266C22.9435 28.7814 21.6764 28.4311 20.3329 28.5544C20.2357 28.5413 20.1397 28.5282 20.048 28.5151C20.8491 29.1471 21.6382 29.7746 22.4338 30.3956C22.699 30.6019 22.9784 30.7896 23.2524 30.985C23.654 31.3419 24.0546 31.6977 24.4562 32.0546C24.4235 32.0829 24.3896 32.1113 24.3569 32.1397C23.1138 31.9585 21.8707 31.7784 20.6276 31.5984C20.5959 31.5962 20.5653 31.5951 20.5337 31.5929C19.8559 31.5973 19.1782 31.6016 18.4993 31.606C17.7954 31.606 17.0925 31.606 16.3885 31.606L16.3733 31.8035C17.2889 32.1441 18.2046 32.4835 19.1203 32.824C19.6769 33.1744 20.2336 33.5258 20.7913 33.8761C20.7738 33.9252 20.7553 33.9743 20.7378 34.0235C18.9555 33.6709 17.1689 33.6546 15.3779 33.8772C14.9697 33.898 14.5604 33.9187 14.1523 33.9394C14.7274 34.2996 15.3179 34.5583 15.905 34.8246C16.7585 35.2109 17.6109 35.6027 18.4633 35.9913C18.7885 36.2259 19.1138 36.4617 19.5733 36.7935H17.4079C17.4014 36.8251 17.3959 36.8578 17.3894 36.8895C17.6524 37.0521 17.9154 37.2136 18.3247 37.4658C17.3719 37.5651 16.5763 37.648 15.7817 37.7299C14.6161 37.5935 13.6065 38.137 12.3831 38.436C13.0718 38.6608 13.6065 38.8202 14.1304 39.0101C15.4587 39.4914 16.7804 39.9869 18.1053 40.4759C18.6096 40.7291 19.1138 40.9812 19.6802 41.2649C17.1362 41.7048 14.7012 42.125 12.2663 42.5452C11.7206 42.6314 11.1749 42.7187 10.6281 42.8049C10.6368 42.8464 10.6467 42.8879 10.6554 42.9293C11.0439 43.0254 11.4325 43.1225 11.821 43.2186C11.7577 43.2971 11.6944 43.3746 11.6311 43.4532L11.6431 43.4499C11.5143 43.9236 10.6292 43.8799 10.878 44.6352C10.4349 44.7869 9.99946 44.9364 9.56289 45.0859C9.56944 45.1111 9.57599 45.1362 9.58363 45.1613C11.1694 44.9517 12.7553 44.7422 14.3629 44.5293C13.8139 43.9869 13.4046 43.9029 12.8939 44.2183C12.8666 43.9498 12.8393 43.6889 12.8131 43.427C12.9834 43.4325 13.1536 43.4379 13.325 43.4434L13.3119 43.4325C13.3817 43.4641 13.4516 43.4947 13.5214 43.5263C14.5561 44.0873 15.5918 44.6461 16.6254 45.2093C16.7007 45.2508 16.764 45.313 16.9703 45.4701C14.3247 44.9528 11.8614 44.9572 9.43192 45.8117C10.5965 46.1632 11.7228 46.5026 12.8491 46.8409C12.8349 46.8922 12.8218 46.9435 12.8076 46.9948C11.9214 46.9282 11.0341 46.8617 10.1479 46.7951C9.67094 46.7263 9.19291 46.6587 8.71487 46.5899C8.68104 46.4469 8.68977 46.2134 8.60682 46.1752C8.10478 45.9427 8.25757 44.9659 7.40409 45.1394C7.1487 45.1918 6.87367 45.1471 6.69577 45.1471C6.57353 44.8862 6.48513 44.6985 6.38145 44.4769C6.47967 44.3929 6.62265 44.2696 6.8442 44.0797C6.61501 44.036 6.47422 44.0098 6.21446 43.9607C6.32251 43.7708 6.37599 43.5569 6.51242 43.4619C6.85512 43.224 7.00901 43.0428 6.69686 42.6237C6.58554 42.4742 6.78854 42.0911 6.86931 41.7157C6.63793 41.3454 6.62046 40.9405 6.81692 40.501C6.64011 40.1899 6.48404 39.916 6.29523 39.5842C5.82483 39.618 5.26276 39.9771 4.67012 39.6966C4.51951 39.6256 4.30559 39.5362 4.27285 39.4139C4.24011 39.2939 4.38308 39.1083 4.48131 38.9752C4.7236 38.6456 4.97899 38.3236 5.23875 38.0082C5.41883 37.7888 5.61746 37.5836 5.8925 37.278C5.26057 37.4068 4.79782 37.5007 4.33615 37.5945C4.64175 37.0052 4.92006 36.4682 5.22347 35.8832C4.72688 35.9149 4.3558 35.9389 4.0131 35.9607C4.11787 35.6507 4.19973 35.4117 4.28049 35.1727C4.34052 35.1422 4.40055 35.1116 4.46057 35.081C4.43438 35.0385 4.40819 34.9959 4.3809 34.9523C4.32087 35.0014 4.26194 35.0516 4.20191 35.1007C4.11132 34.9937 3.96289 34.8977 3.93888 34.7765C3.83738 34.2527 3.77081 33.7211 3.68677 33.1536C3.21855 33.7746 3.5678 35.093 2.1468 34.7896C2.28213 35.0778 2.42183 35.3757 2.58336 35.7173C2.34543 35.7817 2.16753 35.8297 1.94161 35.8909C2.08459 36.1615 2.20464 36.3929 2.34652 36.6625C2.15553 36.7356 1.99836 36.7956 1.72551 36.9004C2.01037 37.1285 2.2472 37.3031 2.46439 37.4974C2.58554 37.6055 2.78745 37.8205 2.76126 37.8598C2.62701 38.0606 2.67722 38.507 2.2352 38.3618C2.02456 38.292 1.81937 38.1872 1.63711 38.0617C1.49413 37.9623 1.39045 37.8063 1.11651 37.696C1.10123 37.898 1.05539 38.1042 1.08049 38.3007C1.10887 38.5299 1.17435 38.7623 1.27258 38.9719C1.34243 39.1225 1.46685 39.3004 1.60982 39.3561C2.01692 39.5132 2.44584 39.6147 2.89113 39.7446C2.28868 40.2707 1.90123 40.2052 0.85348 39.3779C0.901502 39.5984 0.933153 39.737 0.96262 39.8756C0.989906 40.0065 1.0161 40.1364 1.04229 40.2674C0.927696 40.2707 0.782539 40.3198 0.705049 40.2674C0.592634 40.191 0.45075 40.0393 0.456207 39.9247C0.516235 38.496 0.533697 37.0608 0.691951 35.6409C1.28895 30.2854 2.87695 25.2311 5.55307 20.5501C11.427 10.2799 20.1026 3.73697 31.6606 1.07831C35.6595 0.158256 39.7141 -0.112414 43.797 0.245567C50.3618 0.820738 56.4442 2.85839 61.9492 6.50369C69.8041 11.7042 75.1323 18.8453 78.0573 27.7784C78.5757 29.361 78.9621 30.9981 79.2775 32.6352C79.8407 35.558 80.1091 38.5157 79.9673 41.4985C79.9607 41.6426 79.9422 41.7855 79.9378 41.8259C79.2644 42.424 78.5746 42.3291 77.8205 42.0115C77.624 41.6458 77.7277 41.325 78.149 41.0434C78.698 40.6756 79.1105 40.1975 79.1378 39.4379C78.7198 39.5962 78.3585 39.7337 77.9984 39.8712C77.9547 39.8352 77.91 39.7992 77.8663 39.7632C78.1861 39.1738 78.507 38.5855 78.8267 37.9962C78.7896 37.9667 78.7514 37.9372 78.7143 37.9078C78.6718 38.0126 78.6292 38.1173 78.5866 38.2221C78.5615 38.149 78.5375 38.0748 78.5124 38.0016C78.3978 38.0016 78.2821 37.9918 78.1686 38.0038C78.0289 38.018 77.8903 38.0508 77.7517 38.0759C77.8216 37.9602 77.8969 37.8467 77.9613 37.7277C78.0769 37.5171 78.1861 37.302 78.2985 37.0892C78.0453 37.1001 78.0442 36.501 77.6611 36.8251C77.5716 36.6679 77.4505 36.5195 77.4003 36.3503C77.3435 36.1572 77.349 35.9465 77.3271 35.7424C77.2802 35.7326 77.2344 35.7228 77.1874 35.713C77.1045 35.857 77.0074 35.9945 76.9408 36.1462C76.4868 37.1722 76.3995 37.2136 75.3648 36.907C75.6366 37.1569 75.9094 37.4068 76.1812 37.6568C76.1517 37.6906 76.1211 37.7244 76.0917 37.7583C76.1146 37.7703 76.1364 37.7823 76.1593 37.7943C76.167 37.7484 76.1746 37.7026 76.1823 37.6568L76.1801 37.6589ZM12.9932 41.6808C12.896 41.1951 12.8033 40.7345 12.6832 40.1364C12.3722 40.4748 12.0862 40.6428 12.0535 40.8502C11.9727 41.3621 11.6748 41.4286 11.1203 41.3359C11.3473 41.6808 11.4892 42.1097 11.6628 42.1228C12.3613 42.1752 13.087 42.1675 13.8216 41.588C13.433 41.6316 13.1995 41.6578 12.9921 41.6808H12.9932Z" fill="#D62121"/>
<path d="M40.2106 29.2005C41.3915 29.5181 42.5714 29.8357 43.9181 30.197C43.0898 29.6076 42.3771 29.1012 41.6633 28.5948C41.6633 28.5708 41.6655 28.5479 41.6666 28.5239C42.2592 28.7072 42.8638 28.8589 43.4401 29.0816C44.0218 29.3064 44.5763 29.6022 45.2355 29.7703C44.6592 29.2671 44.0829 28.764 43.3812 28.1517C44.251 28.442 44.9921 28.6898 45.7332 28.9375C45.7583 28.9102 45.7834 28.883 45.8074 28.8557C45.2595 28.3842 44.7116 27.9127 44.1637 27.4412C44.1943 27.4052 44.2237 27.3692 44.2543 27.3332C46.0879 27.8363 47.6966 28.7935 49.266 29.8314C49.3108 29.7954 49.3544 29.7593 49.3992 29.7233C48.9299 29.1067 48.4606 28.4911 47.9312 27.7948C48.3569 27.9771 48.7411 28.1419 49.2016 28.3383C48.7989 27.4128 48.084 26.7896 47.4761 26.0868L47.4619 26.0955C47.7632 26.2439 48.0851 26.3629 48.3634 26.5473C49.6971 27.4292 50.8398 28.5064 51.6595 29.898C52.1124 30.6674 52.358 31.4838 52.2281 32.3995C52.1593 32.4027 52.0971 32.4257 52.0589 32.4049C50.9653 31.8134 49.8423 31.881 48.7476 32.3438C47.7817 32.752 46.8551 33.254 45.9132 33.7211C44.7072 34.3192 43.4259 34.663 42.0868 34.6543C40.6559 34.6445 39.2251 34.519 37.7954 34.4458C37.7473 34.4589 37.6993 34.4709 37.6513 34.4819C37.648 34.4666 37.6458 34.4524 37.6426 34.4371C37.696 34.4447 37.7506 34.4524 37.8041 34.46C38.3738 34.6947 38.9479 34.9195 39.5121 35.1662C40.0175 35.3866 40.5119 35.6322 41.0106 35.8669L41.0205 35.869C40.6516 35.8559 40.2794 35.8734 39.916 35.8243C38.9872 35.6988 38.0617 35.5438 37.1274 35.4783C37.9896 35.8647 38.8518 36.2521 39.7141 36.6385C39.7042 36.6723 39.6944 36.7061 39.6835 36.7411C38.6205 36.6832 37.5585 36.6035 36.4944 36.5752C35.4128 36.5468 34.3291 36.5686 33.2464 36.5686C33.242 36.6276 33.2366 36.6854 33.2322 36.7443C35.104 37.4297 36.9746 38.1141 38.8464 38.7995C38.8398 38.8224 38.8322 38.8464 38.8256 38.8693C35.4292 39.0887 32.0327 39.3091 28.6363 39.5285L28.6319 39.7184C30.2701 40.0928 31.9072 40.4671 33.5454 40.8415C33.5411 40.8786 33.5367 40.9157 33.5323 40.9517C31.1138 41.2278 28.6952 41.504 26.2767 41.7801C26.2767 41.8085 26.2778 41.8379 26.2789 41.8663C27.8243 42.1293 29.3697 42.3924 30.9151 42.6554C30.9119 42.6794 30.9086 42.7045 30.9053 42.7285C29.2475 42.9119 27.5885 43.0963 25.9307 43.2797C25.9362 43.319 25.9405 43.3594 25.946 43.3986C26.7492 43.51 27.5536 43.6213 28.3569 43.7337C28.3514 43.8221 28.3471 43.9105 28.3416 44C27.7522 44 27.1607 43.9585 26.5757 44.0098C25.7681 44.0808 24.9572 44.1768 24.1637 44.3416C22.6139 44.6647 21.0761 45.0434 19.5885 45.3861C21.4789 44.0415 23.6977 43.2273 25.9962 42.5615C24.0873 42.3891 22.2188 42.6336 20.3514 42.9828C22.8398 41.6 25.5105 40.8011 28.3231 40.4104C26.3694 40.0207 24.4049 40.072 22.3214 40.3514C23.3255 39.6497 26.1501 38.6488 27.8898 38.4404C29.8117 38.2101 31.7446 38.0704 33.6284 37.8958C32.1692 37.5585 30.6248 37.361 29.0729 37.4723C27.5492 37.5814 26.0355 37.8423 24.5075 38.0377C27.6442 36.4049 31.0014 35.5907 34.5124 35.2819C33.0925 34.8224 31.6016 34.889 30.0125 34.6849C31.475 34.0126 32.8262 33.3784 34.1894 32.7694C35.0974 32.3634 36.0142 31.9749 36.9408 31.6147C38.0551 31.1825 39.212 31.1836 40.3765 31.3735C40.5446 31.4008 40.7127 31.427 40.8819 31.4543C40.8993 31.4074 40.9168 31.3615 40.9342 31.3146C39.9487 30.8158 38.9632 30.3171 37.9362 29.7975C39.522 29.8041 40.9146 30.4022 42.2985 31.0341C42.3312 30.9784 42.364 30.9239 42.3956 30.8682C41.648 30.3323 40.9015 29.7965 40.1539 29.2606C40.1724 29.2409 40.1899 29.2213 40.2074 29.2005H40.2106ZM26.1784 42.5211C26.1653 42.5102 26.1533 42.4906 26.1413 42.4906C26.1282 42.4906 26.1162 42.5091 26.1031 42.5201C26.1151 42.5321 26.1261 42.5528 26.1381 42.5539C26.1501 42.5539 26.1632 42.5353 26.1795 42.5222L26.1784 42.5211Z" fill="#F8F3DC"/>
<path d="M28.4802 44.2947C30.6532 44.2947 32.8295 44.2226 34.9981 44.3165C36.9004 44.3995 38.8027 44.6079 40.6898 44.8688C44.2325 45.3577 47.7108 46.1468 51.0843 47.355C51.4783 47.4958 51.6933 47.4739 51.9716 47.1061C53.4134 45.1995 55.164 43.6377 57.3053 42.5408C57.3533 42.5157 57.4003 42.4884 57.4494 42.4644C59.1989 41.6273 60.1211 41.7866 61.3774 43.2611C62.1064 44.1168 62.7678 45.0336 63.4106 45.9558C63.9935 46.7907 63.8701 47.0963 63.1542 47.7992C62.8038 48.143 62.5353 48.6581 62.4262 49.1394C62.2046 50.1206 62.1326 51.093 63.0254 51.9018C63.4161 52.2565 63.6005 52.8382 63.9465 53.4341C62.8278 53.4701 61.7659 53.5378 60.7051 53.5312C57.1438 53.5061 53.7375 52.6417 50.3978 51.5012C49.4057 51.1629 48.4431 51.3604 47.4925 51.4598C44.7498 51.7457 42.0006 52.0382 39.2906 52.5315C37.0718 52.9353 34.9064 53.6306 32.7171 54.197C32.4606 54.2636 32.2041 54.3356 31.9345 54.3487C37.2442 52.1975 42.7929 51.2033 48.6341 50.9588C46.7864 50.0595 44.991 49.3031 43.3506 48.2641C43.3648 48.2194 43.379 48.1735 43.3932 48.1288C45.1984 48.191 47.0035 48.251 48.8087 48.3165C49.4625 48.3405 50.1162 48.4147 50.7678 48.3907C50.9664 48.3831 51.1563 48.1255 51.4161 47.9345C43.8974 45.3621 36.3078 44.1386 28.4835 44.4431C28.4835 44.394 28.4813 44.3438 28.4802 44.2947ZM61.4756 51.2655C61.5061 51.1902 61.5367 51.1149 61.5684 51.0396C59.9585 49.8336 58.1206 49.134 56.1724 48.6843C57.9405 49.5443 59.7075 50.4044 61.4756 51.2655ZM55.57 51.5547C55.5733 51.4641 55.5765 51.3735 55.5798 51.2829H50.5124C52.2532 51.4161 53.9056 51.6246 55.5711 51.5547H55.57ZM57.385 51.2578C58.5986 51.7774 59.8112 52.2969 61.0248 52.8164C61.0587 52.7312 61.0936 52.645 61.1274 52.5599C59.9825 51.845 58.6958 51.4859 57.385 51.2578Z" fill="#F8F3DC"/>
<path d="M51.4925 16.2106C51.2055 15.5372 50.9173 14.8649 50.6303 14.1915L50.6379 14.197C51.1443 14.6499 51.6824 15.0712 52.1463 15.5634C52.5523 15.9956 52.8753 16.5064 53.2475 16.9986C53.9252 16.49 54.5746 15.9422 55.2819 15.4838C57.2104 14.2319 59.1498 12.9932 61.3053 12.1528C61.7757 11.9694 62.269 11.8276 62.7645 11.7239C63.9924 11.4685 64.8775 11.9814 65.2453 13.1831C65.6633 14.5473 65.6229 15.9454 65.4276 17.3413C65.1176 19.5602 64.2685 21.5618 62.9632 23.3768C62.7405 23.6857 62.5539 24.0196 62.3553 24.3449C62.3291 24.3875 62.3269 24.4453 62.304 24.5337C63.0745 24.4726 63.8221 24.4136 64.6439 24.3493C63.9945 24.9845 63.4008 25.5651 62.8082 26.1457C62.7973 26.1872 62.7864 26.2287 62.7744 26.2701C62.8191 26.2603 62.8639 26.2505 62.9086 26.2407C63.3408 26.137 63.7741 26.0333 64.2969 25.9078C63.2306 27.5536 62.4819 29.1896 62.734 31.2382C63.1181 30.5834 63.439 30.0366 63.7599 29.4887C63.7883 29.5018 63.8166 29.5138 63.845 29.5269C63.8145 29.9645 63.7708 30.4022 63.7555 30.8409C63.6748 33.1569 64.4824 35.0952 66.2057 36.6603C66.7416 37.1471 67.2262 37.6917 67.7173 38.2254C67.857 38.3771 67.9411 38.5812 68.1211 38.8769C67.4685 38.746 66.9468 38.6412 66.3804 38.5277C66.7831 39.1258 67.1585 39.6824 67.6278 40.3787C66.734 40.4911 66.0278 40.5795 65.409 40.6581C65.8041 41.7877 66.2003 42.925 66.5997 44.06C66.6237 44.1266 66.663 44.1965 66.7143 44.2434C67.6551 45.1176 68.6035 45.9842 69.5389 46.8639C69.8117 47.1203 70.0497 47.4128 70.3029 47.69C70.8693 48.6865 70.7471 49.6404 70.1031 50.5615C70.1599 50.1643 70.2145 49.7681 70.2723 49.3708C70.3804 48.6243 70.1108 48.0273 69.5563 47.5362C68.5795 46.6707 67.5809 45.8259 66.6434 44.919C66.2941 44.5806 66.0464 44.1124 65.8314 43.666C65.4243 42.8224 65.0761 41.9514 64.7007 41.0925C64.6428 40.9604 64.5544 40.8382 64.5151 40.7018C64.334 40.0633 64.5446 39.8276 65.2169 39.8996C65.2638 39.9061 65.3108 39.9127 65.3577 39.9181C65.349 39.8745 65.3413 39.8319 65.3326 39.7883C64.812 38.9282 64.2914 38.0682 63.702 37.0958H64.9288C63.4827 35.9116 62.8813 34.2712 62.2745 32.4617C62.0813 32.8895 61.9514 33.1765 61.8139 33.4821C61.6218 33.3195 61.4025 33.1318 61.0925 32.8699C61.2016 34.0584 61.3075 35.1181 61.3915 36.179C61.421 36.5501 61.3937 36.9255 61.3915 37.2988L61.3948 37.301C60.2958 35.5329 60.0862 33.4887 59.5831 31.5318C59.2829 30.3618 58.8638 29.2224 58.4993 28.0688C58.436 27.8679 58.376 27.666 58.3793 27.3615C58.496 27.4565 58.6412 27.5307 58.7252 27.6486C59.5754 28.8426 60.4158 30.0442 61.2606 31.2415C61.3217 31.3277 61.4035 31.3986 61.5476 31.5547C62.2876 30.2363 62.0715 28.8731 62.101 27.3714C61.7659 27.6377 61.5553 27.8046 61.3435 27.9727C61.2879 27.9618 61.2322 27.9509 61.1754 27.94C61.2257 27.4619 61.2147 26.9675 61.3435 26.5124C61.4723 26.0518 61.7397 25.6306 62.0136 25.0488C61.5378 25.182 61.1765 25.2824 60.6396 25.4319C60.9604 24.6319 61.2518 23.9072 61.5967 23.0472C61.2442 23.2786 60.9921 23.4434 60.74 23.6093C60.7192 23.5864 60.6974 23.5634 60.6767 23.5405C61.1012 23.0385 61.5476 22.555 61.9449 22.0322C63.5241 19.9542 64.3198 17.6109 64.286 14.9926C64.286 14.9381 64.2838 14.8835 64.2805 14.8289C64.1899 13.2573 63.3921 12.7411 61.9613 13.3664C60.5108 13.9995 59.2862 14.973 58.161 16.0633C57.3937 16.8076 56.6963 17.6251 55.9662 18.4087C55.8668 18.5146 55.7577 18.6106 55.6529 18.7111C55.6071 18.675 55.5613 18.6401 55.5154 18.6041C55.8963 17.9023 56.2761 17.2016 56.657 16.4999C56.6854 16.4682 56.7149 16.4355 56.7432 16.4038C56.6919 16.4071 56.6396 16.4104 56.5883 16.4126C56.0284 16.8415 55.4685 17.2704 54.9086 17.6993C54.8846 17.6753 54.8595 17.6535 54.8333 17.6327C55.14 16.9954 55.4478 16.358 55.7806 15.6671C54.8584 16.1855 54.0169 16.8065 53.3151 17.5454C52.7673 16.8186 52.2314 16.1091 51.6966 15.3997C51.6442 15.4357 51.5929 15.4718 51.5405 15.5078C51.7326 16.0709 51.9247 16.6341 52.1179 17.1973C52.0862 17.2257 52.0557 17.2551 52.024 17.2835C50.9523 16.4366 49.9351 15.5034 48.645 15.0046C48.6079 15.0494 48.5708 15.0941 48.5348 15.14C48.7782 15.5209 49.0205 15.9029 49.2638 16.2838C49.242 16.2969 49.2191 16.31 49.1973 16.3231C48.4377 15.833 47.6769 15.343 46.9173 14.8529C47.3484 15.0297 47.7784 15.2076 48.2096 15.3844C48.2368 15.3473 48.2641 15.3102 48.2914 15.2731C48.1201 15.0199 47.9476 14.7678 47.69 14.388C49.1645 14.7711 50.2319 15.5984 51.3517 16.3263C51.4128 16.3351 51.4739 16.3438 51.5351 16.3525C51.5209 16.3056 51.5056 16.2587 51.4914 16.2128L51.4925 16.2106Z" fill="#F8F3DC"/>
<path d="M25.4963 25.2333C24.1681 22.5113 23.5951 19.6377 23.8025 16.6177C23.9389 14.6303 24.3023 12.6887 25.1525 10.8671C25.9962 9.06085 27.0941 8.53698 29.039 9.02483C31.1258 9.54871 32.9146 10.6543 34.591 11.9563C35.5962 12.7367 36.5501 13.5815 37.5574 14.3596C37.8205 14.5626 38.1937 14.6216 38.5179 14.7471C38.6849 15.0909 38.8518 15.4357 39.0188 15.7784L39.021 15.7719C38.8289 15.6202 38.6368 15.4674 38.4076 15.2873C38.5986 16.0546 38.7754 16.7596 38.9512 17.4647L38.8442 17.492C38.6401 17.3162 38.436 17.1405 38.233 16.9648C38.2516 16.9048 38.2701 16.8448 38.2887 16.7847C38.2679 16.7804 38.2472 16.7749 38.2265 16.7705C38.2297 16.836 38.233 16.9004 38.2363 16.9659C38.6925 17.7539 38.6554 18.6216 38.6347 19.499C38.2101 18.555 37.7845 17.6186 36.9932 16.9211C37.4843 17.9427 37.9154 18.973 37.9864 20.1135C37.9951 20.2521 37.9012 20.478 37.7899 20.5326C36.4475 21.1864 35.3659 22.1566 34.3902 23.2644C34.3596 23.2426 34.3291 23.2196 34.2974 23.1978C34.6314 22.6063 34.9653 22.0147 35.3299 21.3686C35.0778 21.5105 34.842 21.6437 34.6074 21.7757C34.5768 21.7528 34.5463 21.7299 34.5157 21.707C34.7929 21.3643 35.069 21.0226 35.3462 20.6799C35.3222 20.645 35.2971 20.609 35.2731 20.5741C34.7449 20.979 34.2156 21.3839 33.6317 21.8314C33.6917 21.54 33.7528 21.3031 33.7877 21.0609C33.8347 20.7258 33.8423 20.3842 33.9034 20.0524C33.946 19.8254 34.0529 19.6104 34.1315 19.391C34.1774 19.3266 34.2221 19.2611 34.2679 19.1967C34.2494 19.1814 34.2308 19.1662 34.2123 19.1509C34.149 19.1978 34.0857 19.2448 34.0224 19.2917C33.9274 19.3059 33.8314 19.3201 33.7364 19.3342C33.7135 19.3081 33.6906 19.2819 33.6677 19.2557C33.9493 19.0232 34.2308 18.7907 34.5986 18.4862C33.576 18.3345 32.8458 18.9392 32.0262 19.1389C32.0076 19.093 31.9891 19.0483 31.9705 19.0025C32.561 18.6434 33.1525 18.2854 33.8096 17.886C33.4123 17.9111 33.0598 17.934 32.549 17.9667C32.9779 17.7168 33.2857 17.4974 33.6251 17.3512C33.9634 17.2049 34.3334 17.1296 34.7296 17.0117C33.887 16.2696 33.0434 15.7217 31.893 16.299C31.8767 16.2467 31.8592 16.1954 31.8428 16.143C32.3722 15.8068 32.9026 15.4707 33.4265 15.1378C32.9812 14.6336 32.872 14.6106 30.8169 14.6008C31.4925 13.8194 32.692 13.5618 33.7222 14.0027C34.1381 14.1806 34.531 14.412 34.9337 14.6183C34.9304 14.6445 34.9282 14.6707 34.9261 14.6958C34.9501 14.6881 34.973 14.6816 34.997 14.6739C34.9719 14.6587 34.9457 14.6434 34.9206 14.627C34.591 14.2014 34.2952 13.7419 33.9252 13.3544C32.8109 12.1877 31.546 11.2218 30.0126 10.6663C28.2903 10.0431 27.2284 10.4731 26.5037 12.1692C25.2944 14.9981 25.2213 17.899 26.089 20.8415C26.1457 21.0336 26.6096 21.3381 26.0475 21.5225C26.0879 21.6404 26.1119 21.7681 26.173 21.8739C26.7394 22.8606 27.3124 23.8439 27.8832 24.8273C27.8636 24.8469 27.8439 24.8666 27.8254 24.8873C27.5209 24.6123 27.2175 24.3362 26.913 24.0611C26.8704 23.9815 26.8278 23.9018 26.7842 23.8232C26.7416 23.8363 26.699 23.8483 26.6565 23.8603C26.6652 23.8745 26.6729 23.8898 26.6816 23.904C26.7154 23.8745 26.7482 23.845 26.782 23.8156C26.7984 23.9214 26.8158 24.0262 26.8322 24.1321C27.2175 24.8568 27.6038 25.5804 27.9836 26.2952C27.3583 26.7853 27.0669 26.7591 26.5583 26.2439C26.2134 25.8958 25.8488 25.5673 25.493 25.2289L25.4963 25.2333ZM26.1468 21.3894C26.0726 21.3413 26.0377 21.3086 25.9962 21.2977C25.9744 21.2911 25.9427 21.3228 25.9143 21.337C25.9394 21.3686 25.958 21.4177 25.9907 21.4287C26.0224 21.4396 26.0671 21.4123 26.1468 21.3894Z" fill="#F8F3DC"/>
<path d="M56.7094 35.9607C55.9858 34.2734 55.1105 32.7247 53.8445 31.4139C53.7222 31.2873 53.6393 31.1149 53.5694 30.9501C52.3765 28.1517 50.9075 25.5192 48.8851 23.1924C48.9681 23.1738 49.0357 23.1356 49.0619 23.1553C51.5962 24.9801 53.9165 27.0232 55.6551 29.6557C56.8044 31.3943 57.086 33.3053 56.788 35.3321C56.7716 35.4401 56.7629 35.5482 56.7487 35.6562C56.7356 35.7577 56.7225 35.8592 56.7094 35.9607Z" fill="#F8F3DC"/>
<path d="M58.2396 56.86C58.3585 57.0434 58.436 57.3282 58.603 57.3948C59.9432 57.9394 61.301 58.4437 62.6925 58.9752C63.0952 58.4677 63.4576 58.0104 63.8199 57.5542C63.7741 57.5105 63.7282 57.4669 63.6835 57.4221C63.0985 57.6175 62.5146 57.8139 61.9296 58.0093C61.9067 57.9634 61.8838 57.9176 61.8608 57.8718C62.4829 57.3577 63.1029 56.8382 63.7293 56.3307C64.1179 56.0164 64.3209 56.06 64.4693 56.5446C64.5632 56.8491 64.5413 57.1896 64.5752 57.5498C64.705 57.5913 64.8535 57.6393 65.003 57.6873C64.967 57.7059 64.931 57.7244 64.8939 57.7419C65.0205 58.0104 65.1634 58.2723 65.2693 58.5484C65.3326 58.7143 65.337 58.9021 65.3675 59.0799C65.2049 59.0439 65.0445 58.9915 64.8808 58.9752C64.6974 58.9566 64.5108 58.9708 64.3078 58.9708C64.3274 58.8726 64.3514 58.7547 64.3853 58.5899C63.893 58.6532 63.4347 58.7121 62.9763 58.7711C62.9664 58.8529 62.9555 58.9359 62.9457 59.0177C63.9629 59.5231 64.979 60.0273 65.9656 60.5173C64.8011 61.2038 63.6409 61.8619 62.5113 62.5681C62.0409 62.8617 61.636 63.2589 61.2016 63.6093C61.1929 63.6398 61.1842 63.6693 61.1743 63.6999C61.194 63.6813 61.2136 63.6628 61.2333 63.6442C63.5973 63.0407 65.755 63.6868 67.845 64.7367C67.9083 64.7684 67.964 64.8142 68.0175 64.8928C65.4123 63.9935 62.806 63.1673 60.0469 64.3667C61.4712 62.5375 63.4183 61.5029 65.5793 60.5326C63.9454 59.9051 62.4153 59.3244 60.8917 58.7285C59.7817 58.2941 58.6608 57.8805 57.5804 57.3795C56.6865 56.9648 55.9247 56.3525 55.5296 55.3484C55.8265 55.5329 56.1233 55.7173 56.4202 55.9007C56.5664 56.0273 56.693 56.1932 56.8611 56.2729C57.3119 56.4879 57.779 56.6658 58.2396 56.8589V56.86Z" fill="#D62121"/>
<path d="M12.7356 48.5806C13.7506 49.2366 14.5746 50.09 15.3943 51.1225C12.2467 51.1029 9.37954 51.8297 6.59755 53.218C8.23684 55.2207 10.1217 56.991 11.4892 59.2513C10.8606 59.1913 10.3116 59.1389 9.62401 59.0734C9.81065 59.2797 9.89577 59.3746 10.0398 59.534C8.64066 59.5765 7.4041 59.9694 6.31269 60.7902C6.28213 60.7356 6.25266 60.681 6.2221 60.6265C6.9337 60.1713 7.64639 59.7162 8.40382 59.2317C8.24775 59.1181 8.12006 59.0254 7.99236 58.9326C7.99564 58.8889 7.99891 58.8442 8.00219 58.8005C8.85021 58.7613 9.69714 58.7209 10.7274 58.6729C9.98964 57.7703 9.35335 56.9899 8.71597 56.2106C8.51187 55.9607 8.29141 55.7228 8.1026 55.4619C7.63657 54.8158 6.95444 54.7012 6.22974 54.5277C5.6262 54.3825 5.10451 53.899 4.55335 53.5542C4.53043 53.54 4.58063 53.4068 4.57517 53.4341C5.3206 53.7244 6.0573 54.0104 6.79291 54.2963C6.83657 54.2243 6.88022 54.1523 6.92388 54.0813C6.65539 53.8412 6.38691 53.6022 6.06822 53.3173C6.77872 52.4955 7.92797 52.3918 8.77381 51.7381C8.70069 51.5951 8.63411 51.4641 8.6101 51.4161C10.5517 51.1356 12.5053 50.854 14.6357 50.5473C14.1239 50.3214 13.7244 50.1446 13.2693 49.9438C13.3883 49.8303 13.4647 49.7583 13.5771 49.6513C13.2453 49.3544 12.9244 49.0674 12.6046 48.7793C12.6483 48.7138 12.692 48.6472 12.7356 48.5806Z" fill="#D62121"/>
<path d="M7.43247 47.9061C7.19346 47.9443 6.95553 47.9814 6.56481 48.0437C6.82565 47.9149 6.95444 47.8516 7.08759 47.7861C7.01228 47.69 6.94898 47.6093 6.92824 47.582C7.2131 47.4587 7.49905 47.3572 7.76426 47.2153C7.97163 47.104 8.17681 46.9479 7.86794 46.71L7.85921 46.7187C8.07531 46.8071 8.28595 46.9097 8.5086 46.9784C8.7247 47.045 8.90478 47.4947 9.18309 47.0592C9.55853 47.1967 9.93288 47.3332 10.3083 47.4707C10.2756 47.7424 10.1108 48.131 10.2319 48.2663C10.7089 48.8022 10.1915 49.0216 9.95908 49.3141C9.87613 49.4188 9.64693 49.4952 9.52579 49.4559C9.40464 49.4166 9.33698 49.2169 9.16235 49.0892C9.22019 49.2791 9.22783 49.5138 9.3468 49.6524C9.73534 50.1053 10.2134 49.9198 10.7613 49.8194C10.6947 49.9241 10.6314 50.1162 10.5604 50.1195C9.96453 50.1435 9.36754 50.125 8.77163 50.1348C8.59809 50.1381 8.42674 50.1959 8.25212 50.2145C7.70096 50.2745 7.1498 50.3367 6.59755 50.3782C6.49496 50.3858 6.38582 50.3007 6.26904 50.2538C6.39782 49.8423 6.62483 49.7102 7.00464 49.7823C7.39427 49.8554 7.85157 49.2628 7.84066 48.86C7.83411 48.6308 8.04148 48.3962 8.1528 48.1637C7.77372 47.8952 7.53215 47.8112 7.42811 47.9116L7.43575 47.905L7.43247 47.9061Z" fill="#D62121"/>
<path d="M25.576 46.8464C32.7018 45.97 39.7719 46.0726 46.9021 47.7337C46.7067 47.8276 46.6106 47.9181 46.5244 47.9094C45.3621 47.7894 44.191 47.7173 43.0418 47.5154C38.9075 46.7885 34.7373 46.6085 30.5539 46.6619C29.0358 46.6816 27.5187 46.8366 26.0006 46.9206C25.8609 46.9282 25.7168 46.8726 25.5749 46.8464H25.576Z" fill="#F8F3DC"/>
<path d="M58.2396 56.86C57.779 56.6668 57.3108 56.4889 56.8611 56.2739C56.693 56.1943 56.5664 56.0284 56.4202 55.9018C56.645 55.9443 56.8786 55.9574 57.0914 56.0317C59.6606 56.9332 62.0486 56.3809 64.3383 55.1171C64.6734 54.9326 64.9419 54.6194 65.2246 54.3476C65.5225 54.0606 65.7703 53.8248 66.2669 53.7746C66.7984 53.7211 67.3419 53.3806 67.7948 53.0488C68.3907 52.6123 68.9048 52.0633 69.4538 51.5623C69.4767 51.5874 69.5018 51.6115 69.528 51.6355C68.9342 52.74 68.0448 53.5443 66.9643 54.1544C66.5637 54.221 66.1643 54.2865 65.7648 54.352C65.6753 54.4502 65.5858 54.5473 65.4963 54.6456C65.2639 54.8999 65.0314 55.1542 64.7989 55.4074C62.7394 56.4638 60.5784 57.0652 58.2396 56.86Z" fill="#F8F3DC"/>
<path d="M46.9217 35.7948C47.8701 37.9012 49.5378 38.436 51.6999 37.9613C50.2145 39.1782 47.3615 38.3869 46.7558 36.6308C46.6729 36.3907 46.7449 36.096 46.7449 35.8276L46.9228 35.7959L46.9217 35.7948Z" fill="#F8F3DC"/>
<path d="M63.4663 67.0112C64.8033 67.8134 65.994 68.5282 67.2851 69.3042C67.081 69.3588 66.9173 69.4625 66.8278 69.4177C65.4843 68.7432 64.1801 68.0087 63.0068 66.8082C64.0611 66.3029 65.0248 65.8412 65.9885 65.3795C66.0202 65.4396 66.0507 65.4996 66.0824 65.5585C65.266 66.0115 64.4497 66.4644 63.4652 67.0112H63.4663Z" fill="#D62121"/>
<path d="M72.896 49.003C72.6887 49.1885 72.4824 49.3752 72.155 49.6688C72.203 49.7877 72.2379 50.1392 72.43 50.2898C72.6767 50.483 73.0488 50.519 73.3719 50.5997C73.3817 50.6019 73.4548 50.3487 73.5432 50.0759C73.6753 50.3029 73.8718 50.4884 73.8794 50.6816C73.8969 51.1181 73.5694 50.8704 73.3544 50.9119C72.8109 51.0166 72.3733 50.8464 71.9443 50.5615C71.6824 50.388 71.4434 50.3509 71.343 50.6336C71.105 50.5604 70.8889 50.4928 70.6652 50.424C70.7471 49.6458 71.3834 49.0085 71.8483 49.3359C72.0775 48.8491 72.4966 48.9528 72.9026 49.0117L72.895 49.0041L72.896 49.003Z" fill="#D62121"/>
<path d="M11.272 62.3891C10.3029 62.925 9.40574 63.4347 8.49005 63.9094C8.35689 63.9782 8.13643 63.8778 7.95635 63.8559C7.96181 63.8046 7.96726 63.7522 7.97163 63.701C8.74762 63.2622 9.52361 62.8246 10.2996 62.3858L10.3302 62.2472C9.79318 62.1708 9.2573 62.0617 8.71706 62.0256C8.15062 61.9874 7.57981 62.0169 7.01228 61.9569C8.10696 61.5553 10.3629 61.7921 11.272 62.388V62.3891Z" fill="#D62121"/>
<path d="M18.1053 40.4769C16.7804 39.9869 15.4576 39.4925 14.1304 39.0112C13.6066 38.8213 13.0718 38.6619 12.3831 38.4371C13.6066 38.1381 14.6161 37.5945 15.7817 37.731C14.9468 37.9318 14.1108 38.1315 13.17 38.3574C14.5364 38.89 15.7697 39.3561 16.9899 39.8559C17.3806 40.0164 17.7353 40.2674 18.1053 40.4769Z" fill="#F8F3DC"/>
<path d="M1.10014 44.3689C1.15252 44.6778 1.19945 44.9583 1.25512 45.2879C1.194 45.301 1.03029 45.3381 0.797817 45.3894C0.673397 44.4791 0.554434 43.6082 0.43438 42.7372C0.526058 42.7165 0.618826 42.6958 0.710504 42.675C0.773805 42.8584 0.795636 43.0767 0.911325 43.2186C1.10669 43.4598 1.36644 43.6497 1.59018 43.869C1.75171 44.0273 1.89905 44.1975 2.00491 44.4933C1.75935 44.4595 1.51378 44.4256 1.09905 44.3689H1.10014Z" fill="#D62121"/>
<path d="M42.9391 14.0344C42.7667 13.8532 42.5943 13.672 42.4218 13.4909C42.436 13.4559 42.4502 13.4199 42.4644 13.385C42.7776 13.5432 43.0898 13.7015 43.4019 13.8598C43.2786 13.8598 43.1552 13.8598 43.0308 13.8598C43.212 14.1817 43.3833 14.4884 43.5558 14.7951C43.5263 14.8213 43.4979 14.8464 43.4685 14.8726C42.7154 14.5441 41.9743 14.1883 41.2049 13.9023C40.9091 13.7921 40.5533 13.8445 40.2259 13.8226C40.0316 13.6578 39.8385 13.493 39.6442 13.3293C39.6769 13.2671 39.7086 13.2049 39.7413 13.1427C40.5817 13.4821 41.4177 13.8314 42.2647 14.1544C42.4316 14.2177 42.6357 14.1817 42.8235 14.1904C42.8344 14.2221 42.8562 14.245 42.8879 14.257C42.9588 14.2745 43.0297 14.293 43.1018 14.3105C43.0887 14.2505 43.0745 14.1904 43.0614 14.1315C43.021 14.0999 42.9806 14.0671 42.9413 14.0344H42.9391Z" fill="#F8F3DC"/>
<path d="M10.3061 47.4718C9.93179 47.3353 9.55635 47.1978 9.1809 47.0603C8.98554 46.9468 8.79127 46.8333 8.59591 46.7198C8.63629 46.6772 8.67667 46.6336 8.71487 46.591C9.19182 46.6598 9.66985 46.7285 10.1468 46.7962C10.1392 46.8748 10.102 47.0057 10.1304 47.0221C10.484 47.2251 10.8584 47.3943 11.2066 47.6049C11.7239 47.916 12.2259 48.2532 12.7345 48.5795C12.6909 48.645 12.6472 48.7116 12.6035 48.7771C11.8374 48.3416 11.0712 47.9061 10.305 47.4696L10.3061 47.4718Z" fill="#F8F3DC"/>
<path d="M18.4633 35.9924C17.6109 35.6027 16.7585 35.212 15.905 34.8257C15.3179 34.5604 14.7285 34.3007 14.1523 33.9405C14.5604 33.9198 14.9697 33.899 15.3779 33.8783C15.1956 33.9318 15.0134 33.9853 14.8769 34.0246C16.0655 34.6772 17.2649 35.3353 18.4633 35.9935V35.9924Z" fill="#F8F3DC"/>
<path d="M37.6884 13.6546C37.504 13.5411 37.3184 13.4287 37.134 13.3151C37.1645 13.2573 37.194 13.1984 37.2246 13.1405C38.0617 13.4789 38.8933 13.8336 39.7402 14.1435C39.9629 14.2254 40.2368 14.1675 40.4879 14.1741C40.8033 14.4589 41.1187 14.7427 41.433 15.0265L41.4297 15.0232C40.9637 14.83 40.5042 14.6194 40.0295 14.4491C39.2546 14.1708 38.4699 13.9187 37.6884 13.6557V13.6546Z" fill="#F8F3DC"/>
<path d="M64.8469 49.6055C65.3282 50.687 66.1042 50.7503 67.0483 50.4982C66.5233 51.0417 65.8892 51.212 65.3905 50.9632C64.8851 50.711 64.7869 50.2603 64.8469 49.6044V49.6055Z" fill="#F8F3DC"/>
<path d="M23.2524 30.9872C22.9795 30.7907 22.699 30.6041 22.4338 30.3978C21.6382 29.7779 20.8491 29.1503 20.048 28.5173C20.1397 28.5293 20.2357 28.5424 20.3329 28.5566C21.3883 29.2682 22.4316 29.994 23.2524 30.9872Z" fill="#F8F3DC"/>
<path d="M19.1203 32.824C18.2046 32.4835 17.2889 32.1441 16.3733 31.8035L16.3885 31.606C17.0925 31.606 17.7954 31.606 18.4993 31.606C18.0573 31.6617 17.6142 31.7162 17.1722 31.7719C17.1645 31.8057 17.158 31.8396 17.1503 31.8734C17.8074 32.1899 18.4633 32.5075 19.1203 32.824Z" fill="#F8F3DC"/>
<path d="M1.39263 46.4404C1.35334 46.496 1.28022 46.5986 1.20818 46.7012C1.06303 46.4055 0.918961 46.1097 0.773804 45.8139C0.834922 45.7583 0.896041 45.7037 0.95716 45.648C1.37299 45.8052 1.7899 45.9624 2.20573 46.1195C2.20136 46.1915 2.197 46.2647 2.19263 46.3367C1.9296 46.3705 1.66657 46.4044 1.39263 46.4404Z" fill="#D62121"/>
<path d="M45.4963 14.9206C45.4406 14.6859 45.385 14.4524 45.2944 14.0726C45.8728 14.3509 46.4011 14.6063 46.9293 14.8606C46.5582 14.7416 46.1872 14.6237 45.6851 14.4633C46.0464 14.9282 46.3312 15.2928 46.615 15.6584C46.5954 15.6824 46.5768 15.7053 46.5572 15.7293C46.2035 15.4598 45.8499 15.1913 45.4963 14.9217V14.9206Z" fill="#F8F3DC"/>
<path d="M70.6052 52.8939C70.6794 52.1408 71.6202 51.6715 72.3198 52.0502C71.7272 52.3416 71.2076 52.597 70.6052 52.8939Z" fill="#D62121"/>
<path d="M13.325 43.4456C13.1547 43.4401 12.9844 43.4347 12.8142 43.4292C12.4835 43.3594 12.1528 43.2895 11.821 43.2207C11.4325 43.1247 11.0439 43.0276 10.6554 42.9315C10.6467 42.89 10.6368 42.8486 10.6281 42.8071C11.1738 42.7209 11.7206 42.6336 12.2663 42.5473C11.9967 42.6227 11.7282 42.698 11.3332 42.8093C12.0884 43.0505 12.7072 43.2491 13.3261 43.4467L13.325 43.4456Z" fill="#F8F3DC"/>
<path d="M5.77572 55.8472C5.61965 56.0022 5.40027 56.2183 5.16453 56.4518C4.64575 56.1564 4.35398 55.8977 4.28922 55.6758C4.58281 55.761 4.84038 55.8756 5.10669 55.9018C5.36207 55.9269 5.62729 55.8614 5.77681 55.8461L5.77572 55.8472Z" fill="#D62121"/>
<path d="M79.5831 45.9907C79.5296 46.304 79.4772 46.6139 79.4226 46.9304C79.1422 46.8529 78.925 46.794 78.6772 46.7252C78.6434 46.102 78.83 45.9132 79.5831 45.9907Z" fill="#D62121"/>
<path d="M24.4431 27.0996C23.9367 26.2865 23.4303 25.4734 22.9228 24.6592C23.4292 25.4723 23.9356 26.2854 24.4431 27.0996Z" fill="#F8F3DC"/>
<path d="M50.4349 33.8859C50.639 34.1763 50.8409 34.3411 50.8475 34.5135C50.8529 34.6456 50.5735 34.9217 50.4895 34.8977C50.3061 34.8442 50.0868 34.663 50.0387 34.4895C50.0049 34.3694 50.233 34.1763 50.4349 33.8849V33.8859Z" fill="#F8F3DC"/>
<path d="M4.40273 52.3176C5.04557 52.0393 5.4603 52.3012 5.78445 53.2278C5.26713 52.8873 4.85457 52.6155 4.40273 52.3176Z" fill="#D62121"/>
<path d="M64.7989 55.4074C65.0314 55.1531 65.2638 54.8999 65.4963 54.6456C65.6011 54.9501 65.7059 55.2546 65.8095 55.5591L65.8161 55.5536C65.4767 55.5056 65.1383 55.4565 64.7989 55.4085V55.4074Z" fill="#D62121"/>
<path d="M22.6019 27.8363C22.2112 27.6955 21.8216 27.5536 21.4308 27.4128C21.4352 27.3692 21.4407 27.3244 21.445 27.2808C22.0191 27.3168 22.5932 27.3517 23.1662 27.3877C22.8497 27.4019 22.5332 27.4161 22.0813 27.4368C22.3345 27.6311 22.4677 27.7337 22.6019 27.8363Z" fill="#F8F3DC"/>
<path d="M67.116 55.5416C66.7394 55.3037 66.3618 55.0669 65.9853 54.8289C66.0256 54.7667 66.0671 54.7056 66.1075 54.6434C66.4753 54.8944 66.8431 55.1465 67.2109 55.3975C67.1793 55.4456 67.1476 55.4936 67.1149 55.5416H67.116Z" fill="#D62121"/>
<path d="M76.1714 56.2085C75.7719 56.8469 75.4892 56.9102 75.1367 56.4628C75.4729 56.3798 75.7795 56.3045 76.1714 56.2085Z" fill="#D62121"/>
<path d="M65.7648 54.3509C66.1643 54.2854 66.5648 54.2188 66.9643 54.1533C67.1127 54.185 67.26 54.2177 67.4314 54.2548C66.9675 54.6652 66.2909 54.6947 65.7648 54.3509Z" fill="#D62121"/>
<path d="M4.66576 46.1937V45.8117C4.8764 45.9154 5.11323 46.0311 5.34898 46.1479C5.32933 46.1817 5.31078 46.2156 5.29113 46.2494C5.10341 46.233 4.9146 46.2166 4.66576 46.1937Z" fill="#D62121"/>
<path d="M6.21337 45.8357C6.31378 46.101 6.41528 46.3651 6.49496 46.5757C6.2232 46.4699 5.89359 46.3411 5.60546 46.2287C5.80628 46.1021 6.01146 45.9733 6.21774 45.8434L6.21228 45.8357H6.21337Z" fill="#D62121"/>
<path d="M4.9146 51.857C4.70505 51.7501 4.47367 51.6693 4.29577 51.5242C4.22374 51.4652 4.26739 51.2644 4.24884 50.9926C4.55662 51.3201 4.75744 51.534 4.95825 51.7479C4.94407 51.7839 4.92879 51.8199 4.9146 51.8559V51.857Z" fill="#D62121"/>
<path d="M72.6341 54.0257C72.4322 53.9984 72.2314 53.9711 71.9825 53.9372C72.1572 53.6709 72.2707 53.4985 72.4704 53.1929C72.4137 53.528 72.382 53.7179 72.3503 53.9089H72.6483C72.6439 53.9482 72.6396 53.9864 72.6341 54.0257Z" fill="#D62121"/>
<path d="M22.9304 24.669C22.7875 24.5894 22.6445 24.5097 22.5004 24.4289C22.5561 24.3602 22.6117 24.2903 22.6685 24.2216C22.8595 24.3132 23.0494 24.4049 23.2404 24.4966C23.1367 24.5544 23.0341 24.6112 22.9304 24.669Z" fill="#F8F3DC"/>
<path d="M72.9037 49.0117C72.9539 48.9659 73.0041 48.9211 73.0543 48.8753C73.0652 48.8873 73.075 48.9004 73.086 48.9124C73.0227 48.943 72.9593 48.9735 72.896 49.003L72.9037 49.0106V49.0117Z" fill="#D62121"/>
<path d="M40.1572 29.2606C40.0699 29.254 39.9836 29.2464 39.8963 29.2398C39.8985 29.2136 39.9007 29.1874 39.9029 29.1613C40.0055 29.1744 40.108 29.1874 40.2106 29.2005C40.1932 29.2213 40.1757 29.2409 40.1572 29.2606Z" fill="#F8F3DC"/>
<path d="M7.86685 46.711C7.81446 46.687 7.76207 46.663 7.70969 46.639C7.73042 46.6161 7.75116 46.5932 7.7719 46.5703C7.80027 46.6205 7.82974 46.6707 7.85812 46.7209L7.86685 46.7121V46.711Z" fill="#D62121"/>
<path d="M44.1637 27.4412C44.0862 27.4128 44.0098 27.3834 43.9323 27.355C43.9345 27.3386 43.9367 27.3222 43.94 27.3048C44.0448 27.3146 44.1495 27.3233 44.2554 27.3332C44.2248 27.3692 44.1954 27.4052 44.1648 27.4412H44.1637Z" fill="#F8F3DC"/>
<path d="M20.5326 31.5929C20.5643 31.5951 20.5959 31.5973 20.6265 31.5984C20.5948 31.5973 20.5632 31.5951 20.5326 31.5929Z" fill="#F8F3DC"/>
<path d="M41.0117 35.8679C41.0139 35.9083 41.0172 35.9487 41.0194 35.988C40.9801 35.9738 40.9408 35.9585 40.9026 35.9443C40.9408 35.9192 40.9801 35.8941 41.0194 35.8701C41.0216 35.8701 41.0117 35.8679 41.0117 35.8679Z" fill="#F8F3DC"/>
<path d="M33.7375 19.3364C33.6753 19.3703 33.612 19.403 33.5498 19.4368C33.54 19.4161 33.5291 19.3943 33.5192 19.3735C33.5694 19.3353 33.6197 19.2971 33.6699 19.2589C33.6928 19.2851 33.7157 19.3113 33.7386 19.3375L33.7375 19.3364Z" fill="#F8F3DC"/>
<path d="M6.21883 45.8434C6.23956 45.8227 6.25921 45.803 6.27995 45.7823C6.2865 45.7997 6.29195 45.8183 6.2985 45.8358C6.27012 45.8358 6.24175 45.8358 6.21337 45.8358L6.21883 45.8434Z" fill="#D62121"/>
<path d="M7.42484 47.9127C7.44448 47.9443 7.46303 47.9749 7.43575 47.9312C7.44448 47.9825 7.43793 47.9443 7.43138 47.9072L7.42484 47.9138V47.9127Z" fill="#D62121"/>
<path d="M69.4548 51.5623C69.4832 51.5045 69.5105 51.4467 69.5389 51.3888L69.6371 51.4729C69.6011 51.5274 69.5651 51.5809 69.5291 51.6355C69.5029 51.6126 69.4789 51.5885 69.4548 51.5623Z" fill="#F8F3DC"/>
<path d="M41.433 15.0254C41.4265 15.0483 41.4199 15.0712 41.4134 15.0941C41.4188 15.0701 41.4243 15.0461 41.4297 15.0221L41.433 15.0254Z" fill="#F8F3DC"/>
<path d="M23.5372 27.4085L23.5001 27.4096C23.5121 27.4096 23.5241 27.4096 23.5372 27.4085Z" fill="#F8F3DC"/>
<path d="M39.1389 15.893C39.1007 15.8527 39.0614 15.8123 39.0221 15.7719L39.0188 15.7795C39.0527 15.7621 39.0876 15.7446 39.1214 15.7272C39.1269 15.7817 39.1323 15.8374 39.1378 15.892L39.1389 15.893Z" fill="#F8F3DC"/>
<path d="M52.119 17.1962C52.1212 17.2529 52.1233 17.3097 52.1255 17.3675C52.0928 17.3392 52.0589 17.3119 52.0262 17.2835C52.0579 17.2551 52.0884 17.2257 52.1201 17.1973L52.119 17.1962Z" fill="#F8F3DC"/>
<path d="M54.9108 17.6971C54.8802 17.7222 54.8497 17.7473 54.8191 17.7724C54.8246 17.7255 54.83 17.6786 54.8355 17.6306C54.8617 17.6513 54.8879 17.6731 54.9108 17.6971Z" fill="#F8F3DC"/>
<path d="M47.4761 26.089C47.4521 26.0595 47.4281 26.0311 47.4041 26.0016C47.4205 25.9984 47.4379 25.9951 47.4543 25.9918C47.4565 26.0267 47.4597 26.0628 47.4619 26.0977L47.4761 26.089Z" fill="#F8F3DC"/>
<path d="M27.8799 25.027C27.9138 25.0041 27.9476 24.9801 27.9814 24.9572C27.9978 24.9834 28.0142 25.0096 28.0306 25.0347C27.9858 25.0303 27.9411 25.0248 27.8974 25.0205L27.8799 25.027Z" fill="#F8F3DC"/>
<path d="M34.3924 23.2644C34.3585 23.2873 34.3247 23.3102 34.2909 23.3332C34.2941 23.2873 34.2963 23.2426 34.2996 23.1967C34.3302 23.2186 34.3607 23.2415 34.3924 23.2633V23.2644Z" fill="#F8F3DC"/>
<path d="M61.3915 37.2966C61.4079 37.2911 61.4243 37.2835 61.4406 37.2802C61.4527 37.278 61.4647 37.2802 61.4767 37.2824C61.4494 37.2879 61.421 37.2933 61.3937 37.2988L61.3904 37.2966H61.3915Z" fill="#F8F3DC"/>
<path d="M65.8106 55.558C65.8215 55.5656 65.8314 55.5733 65.8423 55.5798C65.8336 55.5711 65.8248 55.5613 65.8161 55.5514L65.8095 55.5569L65.8106 55.558Z" fill="#D62121"/>
<path d="M78.2363 40.7749C78.2243 40.7836 78.2112 40.8011 78.2003 40.8C78.1894 40.8 78.1795 40.7804 78.1686 40.7694C78.1806 40.7607 78.1937 40.7433 78.2046 40.7443C78.2155 40.7443 78.2254 40.764 78.2363 40.7749Z" fill="#D62121"/>
<path d="M19.3561 45.5476C19.3681 45.5476 19.3812 45.5476 19.3932 45.5476C19.3866 45.5705 19.3801 45.5945 19.3735 45.6175C19.3615 45.6055 19.3452 45.5956 19.3386 45.5804C19.3353 45.5727 19.3495 45.5574 19.3561 45.5465V45.5476Z" fill="#F8F3DC"/>
<path d="M39.1389 15.893C39.1684 15.8723 39.1978 15.8516 39.2273 15.8308C39.1978 15.8516 39.1684 15.8723 39.14 15.893H39.1389Z" fill="#F8F3DC"/>
<path d="M27.8974 25.0205C27.8745 24.9779 27.8505 24.9342 27.8276 24.8917C27.8461 24.8709 27.8658 24.8513 27.8854 24.8316C27.8854 24.896 27.8832 24.9615 27.881 25.0259C27.8789 25.0259 27.8974 25.0205 27.8974 25.0205Z" fill="#F8F3DC"/>
<path d="M11.821 43.2207C12.1528 43.2906 12.4835 43.3604 12.8142 43.4292C12.8404 43.69 12.8666 43.952 12.8939 44.2205C13.4057 43.905 13.8139 43.9891 14.3629 44.5315C12.7553 44.7443 11.1694 44.9539 9.58363 45.1634C9.57708 45.1383 9.57054 45.1132 9.5629 45.0881C9.99946 44.9386 10.4349 44.7891 10.878 44.6374C10.6292 43.8821 11.5143 43.9258 11.6431 43.4521L11.6311 43.4554C11.6944 43.3768 11.7577 43.2993 11.821 43.2207Z" fill="#333333"/>
<path d="M12.9932 41.6808C13.1995 41.6578 13.4341 41.6317 13.8226 41.588C13.0881 42.1675 12.3623 42.1752 11.6639 42.1228C11.4903 42.1097 11.3484 41.6808 11.1214 41.3359C11.6748 41.4276 11.9738 41.361 12.0546 40.8502C12.0873 40.6428 12.3733 40.4748 12.6843 40.1364C12.8044 40.7334 12.8971 41.1951 12.9943 41.6808H12.9932Z" fill="#333333"/>
<path d="M4.20191 35.104C4.26194 35.0548 4.32088 35.0046 4.3809 34.9555C4.4071 34.9981 4.43329 35.0407 4.46057 35.0843C4.40055 35.1149 4.34052 35.1454 4.28049 35.176C4.25539 35.1509 4.2292 35.1269 4.20191 35.1051V35.104Z" fill="#333333"/>
<path d="M11.6311 43.4554C11.6311 43.4554 11.642 43.4521 11.6431 43.4521L11.6311 43.4554Z" fill="#F8F3DC"/>
<path d="M76.1801 37.6589C76.1724 37.7048 76.1648 37.7506 76.1572 37.7965C76.1342 37.7844 76.1124 37.7724 76.0895 37.7604C76.119 37.7266 76.1495 37.6928 76.179 37.6589H76.1801Z" fill="#333333"/>
<path d="M50.6292 14.1915L50.6259 14.1774L50.6368 14.1981L50.6292 14.1915Z" fill="#F8F3DC"/>
<path d="M37.8052 34.4611C37.7517 34.4535 37.6971 34.4458 37.6437 34.4382C37.6469 34.4535 37.6491 34.4677 37.6524 34.4829C37.7004 34.4709 37.7484 34.4589 37.7965 34.4469C37.7965 34.4458 37.8063 34.4622 37.8063 34.4622L37.8052 34.4611Z" fill="#333333"/>
<path d="M26.1784 42.5211C26.1621 42.5342 26.149 42.5539 26.137 42.5528C26.125 42.5528 26.1141 42.531 26.1021 42.519C26.1151 42.508 26.1282 42.4895 26.1402 42.4895C26.1533 42.4895 26.1654 42.5091 26.1774 42.5201L26.1784 42.5211Z" fill="#333333"/>
<path d="M61.4756 51.2655C59.7075 50.4055 57.9405 49.5454 56.1724 48.6843C58.1206 49.1329 59.9585 49.8325 61.5683 51.0396C61.5378 51.1149 61.5072 51.1902 61.4756 51.2655Z" fill="#333333"/>
<path d="M55.5689 51.5547C53.9045 51.6246 52.251 51.4161 50.5102 51.283H55.5776C55.5743 51.3735 55.5711 51.4641 55.5678 51.5547H55.5689Z" fill="#333333"/>
<path d="M57.3839 51.2579C58.6947 51.486 59.9825 51.845 61.1263 52.5599C61.0925 52.645 61.0576 52.7312 61.0237 52.8164C59.8101 52.2969 58.5976 51.7774 57.3839 51.2579Z" fill="#333333"/>
<path d="M65.3304 39.7872C65.3392 39.8308 65.3468 39.8734 65.3555 39.917C65.3086 39.9105 65.2617 39.904 65.2147 39.8985C65.2529 39.8614 65.2922 39.8243 65.3304 39.7872Z" fill="#333333"/>
<path d="M62.9053 26.2407C62.8606 26.2505 62.8158 26.2603 62.7711 26.2701C62.782 26.2287 62.7929 26.1872 62.8049 26.1457C62.8388 26.1774 62.8715 26.209 62.9053 26.2407Z" fill="#D62121"/>
<path d="M56.5894 16.4115C56.6407 16.4082 56.693 16.4049 56.7443 16.4027C56.716 16.4344 56.6865 16.4671 56.6581 16.4988C56.6352 16.4704 56.6123 16.4409 56.5894 16.4125V16.4115Z" fill="#333333"/>
<path d="M51.4925 16.2106C51.5067 16.2576 51.522 16.3045 51.5362 16.3503C51.475 16.3416 51.4139 16.3329 51.3528 16.3242C51.3997 16.286 51.4456 16.2488 51.4925 16.2106Z" fill="#D62121"/>
<path d="M26.1468 21.3894C26.0671 21.4112 26.0224 21.4385 25.9907 21.4286C25.9591 21.4177 25.9394 21.3697 25.9143 21.337C25.9416 21.3228 25.9743 21.2911 25.9962 21.2977C26.0377 21.3097 26.0726 21.3424 26.1468 21.3894Z" fill="#333333"/>
<path d="M26.8355 24.1364C26.8191 24.0306 26.8016 23.9258 26.7853 23.8199L26.7874 23.8265L26.9162 24.0655C26.89 24.0895 26.8628 24.1124 26.8366 24.1353L26.8355 24.1364Z" fill="#333333"/>
<path d="M38.2363 16.967C38.233 16.9015 38.2297 16.8371 38.2265 16.7716C38.2472 16.776 38.2679 16.7814 38.2887 16.7858C38.2701 16.8458 38.2516 16.9059 38.233 16.9659L38.2363 16.967Z" fill="#333333"/>
<path d="M34.0246 19.2928C34.0879 19.2458 34.1512 19.1989 34.2145 19.152C34.233 19.1673 34.2516 19.1825 34.2701 19.1978C34.2243 19.2622 34.1795 19.3277 34.1337 19.3921C34.0977 19.3593 34.0606 19.3266 34.0246 19.2928Z" fill="#333333"/>
<path d="M34.9228 14.6303C34.9479 14.6456 34.9741 14.6608 34.9992 14.6772C34.9752 14.6849 34.9523 14.6914 34.9282 14.699C34.9304 14.6729 34.9337 14.6467 34.9359 14.6216L34.9217 14.6314L34.9228 14.6303Z" fill="#333333"/>
<path d="M26.7853 23.8199C26.7514 23.8494 26.7187 23.8789 26.6849 23.9083C26.6761 23.8941 26.6685 23.8789 26.6598 23.8647C26.7023 23.8527 26.7449 23.8407 26.7875 23.8276C26.7875 23.8265 26.7853 23.8199 26.7853 23.8199Z" fill="#333333"/>
<path d="M61.2344 63.6442C61.2147 63.6628 61.1951 63.6813 61.1754 63.6999C61.1842 63.6704 61.194 63.6398 61.2027 63.6093L61.2344 63.6442Z" fill="#333333"/>
<path d="M43.0592 14.1315C43.0723 14.1915 43.0865 14.2516 43.0996 14.3105C43.0286 14.293 42.9577 14.2745 42.8878 14.2559C42.9457 14.2145 43.0024 14.1719 43.0592 14.1304V14.1315Z" fill="#D62121"/>
<path d="M42.9392 14.0344C42.9795 14.0671 43.0199 14.0988 43.0592 14.1315C43.0025 14.173 42.9457 14.2145 42.8879 14.257C42.854 14.2439 42.8333 14.2221 42.8224 14.1904C42.8617 14.1402 42.8999 14.0879 42.9392 14.0355V14.0344Z" fill="#D62121"/>
</g>
</g>
<defs>
<clipPath id="clip0_303_3737">
<rect width="80" height="80" fill="white"/>
</clipPath>
</defs>
</svg>
